<?xml version="1.0" encoding="UTF-8" standalone="no"?>
<svg
   xmlns:dc="http://purl.org/dc/elements/1.1/"
   xmlns:cc="http://creativecommons.org/ns#"
   xmlns:rdf="http://www.w3.org/1999/02/22-rdf-syntax-ns#"
   xmlns:svg="http://www.w3.org/2000/svg"
   xmlns="http://www.w3.org/2000/svg"
   xmlns:sodipodi="http://sodipodi.sourceforge.net/DTD/sodipodi-0.dtd"
   xmlns:inkscape="http://www.inkscape.org/namespaces/inkscape"
   id="master-artboard"
   viewBox="0 0 1850 1052"
   version="1.1"
   x="0px"
   y="0px"
   width="1850"
   height="1052"
   sodipodi:docname="disciplice.svg"
   inkscape:version="1.0.1 (3bc2e81, 2020-09-07)">
  <metadata
     id="metadata711">
    <rdf:RDF>
      <cc:Work
         rdf:about="">
        <dc:format>image/svg+xml</dc:format>
        <dc:type
           rdf:resource="http://purl.org/dc/dcmitype/StillImage" />
        <dc:title />
      </cc:Work>
    </rdf:RDF>
  </metadata>
  <defs
     id="defs709" />
  <sodipodi:namedview
     pagecolor="#ffffff"
     bordercolor="#666666"
     borderopacity="1"
     objecttolerance="10"
     gridtolerance="10"
     guidetolerance="10"
     inkscape:pageopacity="0"
     inkscape:pageshadow="2"
     inkscape:window-width="1366"
     inkscape:window-height="703"
     id="namedview707"
     showgrid="false"
     inkscape:zoom="0.46473565"
     inkscape:cx="610.58942"
     inkscape:cy="49.489018"
     inkscape:window-x="0"
     inkscape:window-y="0"
     inkscape:window-maximized="1"
     inkscape:current-layer="master-artboard"
     inkscape:document-rotation="0" />
  <g
     id="g4"
     transform="matrix(1.2819036,0,0,1.2819036,-127.17066,-129.47315)"
     style="opacity:1" />
  <g
     id="g18"
     transform="matrix(1.2819036,0,0,1.2819036,-127.17066,-129.47315)"
     style="opacity:1">
    <path
       d="m 1081.4,329.79999 h -17.8 -59.1 -17.79999 V 505 H 1081.4 Z"
       class="st1"
       style="fill:#e5261f"
       id="path6" />
    <path
       d="m 1026.6,700.09998 h 14.9 v 25.7 h -14.9 z"
       class="st0"
       style="fill:#ffffff"
       id="path8" />
    <path
       d="m 1059.9,288.60001 h -5.1 -41.5 -5.1 v 37.5 h 51.7 z"
       class="st1"
       style="fill:#e5261f"
       id="path10" />
    <path
       d="M 975.20001,725.79999 H 1022.9 v -29.39997 h 22.3 v 29.39997 h 47.7 V 688.70001 H 975.20001 Z"
       class="st1"
       style="fill:#e5261f"
       id="path12" />
    <path
       d="m 983,508.70001 h -7.79999 V 685 H 1092.9 V 508.70001 h -7.8 z"
       class="st1"
       style="fill:#e5261f"
       id="path14" />
    <path
       class="st2"
       d="m 1103.9,685 h -7.3 V 505 h -11.5 V 326 h -21.6 v -41.1 h -8.8 v -28.1 h -18.9 v -28.2 c 0,-1 -0.8,-1.8 -1.8,-1.8 -1,0 -1.8,0.8 -1.8,1.8 v 28.2 h -18.9 v 28.1 h -8.8 V 326 H 983 v 179 h -11.5 v 180 h -8.3 c -1,0 -1.8,0.8 -1.8,1.8 0,1 0.8,1.8 1.8,1.8 h 8.3 v 40.8 h 51.4 22.3 51.4 v -40.8 h 7.3 c 1,0 1.8,-0.8 1.8,-1.8 0,-1 -0.8,-1.8 -1.8,-1.8 z m -68,-424.4 h 15.2 V 285 h -15.2 z m -18.9,0 h 15.2 V 285 H 1017 Z m -8.8,28 h 5.1 41.5 5.1 V 326 h -51.6 v -37.4 z m -21.5,41.2 h 17.9 59 17.9 V 505 h -94.8 z m 54.8,396 h -14.9 v -25.7 h 14.9 z m 51.4,0 h -47.7 v -29.4 h -22.3 v 29.4 H 975.2 V 688.7 H 1093 v 37.1 z m 0,-40.8 H 975.2 V 508.7 h 7.8 102.2 7.8 V 685 Z"
       style="fill:#231f20"
       id="path16" />
  </g>
  <g
     id="g24"
     transform="matrix(1.2819036,0,0,1.2819036,-127.17066,-129.47315)"
     style="opacity:1">
    <path
       d="m 184.3,729.5 h 1013.1 v 31.9 H 184.3 Z"
       class="st1"
       style="fill:#e5261f"
       id="path20" />
    <path
       class="st2"
       d="M 1199.2,725.8 H 182.4 c -1,0 -1.8,0.8 -1.8,1.8 v 35.6 c 0,1 0.8,1.8 1.8,1.8 h 1016.8 c 1,0 1.8,-0.8 1.8,-1.8 v -35.6 c 0.1,-1 -0.8,-1.8 -1.8,-1.8 z m -1.8,35.6 H 184.3 v -31.9 h 1013.1 z"
       style="fill:#231f20"
       id="path22" />
  </g>
  <path
     class="st3"
     d="m 637.22842,478.27734 h 8.3324 c 1.2819,0 2.30741,1.02552 2.30741,2.30742 v 18.20302 c 0,1.28192 -1.02551,2.30742 -2.30741,2.30742 h -8.3324 v 4.2303 h 166.00652 v -4.10208 h -8.33236 c -1.28191,0 -2.30742,-1.02554 -2.30742,-2.30743 v -18.20305 c 0,-1.28189 1.02551,-2.30742 2.30742,-2.30742 h 8.33236 v -4.1021 H 637.22842 Z"
     style="opacity:1;fill:#cfcfcf;stroke-width:1.2819"
     id="path26" />
  <path
     d="m 895.14742,787.72884 v 13.2036 h 159.46878 v -13.2036 h -17.1774 -125.11384 z"
     class="st3"
     style="opacity:1;fill:#cfcfcf;stroke-width:1.2819"
     id="path28" />
  <path
     d="m 943.09066,769.65404 h -28.45827 v 13.33174 h 120.49891 v -13.33174 h -28.4583 z"
     class="st3"
     style="opacity:1;fill:#cfcfcf;stroke-width:1.2819"
     id="path30" />
  <path
     d="m 815.66941,260.48193 h -63.58238 -39.73899 v 8.20419 h 182.28661 v -8.20419 h -15.25463 z"
     class="st3"
     style="opacity:1;fill:#cfcfcf;stroke-width:1.2819"
     id="path32" />
  <path
     d="m 707.98952,391.87706 h 1.79469 20.89501 1.79464 l 5.89676,-24.35616 h -36.27785 z"
     class="st1"
     style="opacity:1;fill:#e5261f;stroke-width:1.2819"
     id="path34" />
  <path
     d="m 712.09163,396.49188 h 16.28015 v 2.8202 h -16.28015 z"
     class="st0"
     style="opacity:1;fill:#ffffff;stroke-width:1.2819"
     id="path36" />
  <path
     class="st2"
     d="m 1136.2735,193.95115 c 0,-0.12829 0,-0.25637 0,-0.51278 0,-0.12829 -0.1281,-0.12829 -0.1281,-0.12829 -0.1283,-0.25638 -0.2565,-0.38457 -0.3847,-0.51274 -0.1282,-0.1283 -0.2563,-0.2564 -0.5127,-0.38459 -0.1283,0 -0.1283,-0.12829 -0.1283,-0.12829 -0.1281,0 -0.2563,0 -0.5128,0 -0.1282,0 -0.2563,-0.12827 -0.5126,-0.12827 h -63.7107 -61.275 V 130.7532 c 0,-0.1281 -0.1281,-0.25637 -0.1281,-0.38454 0,-0.12828 0,-0.25637 0,-0.51278 0,-0.12828 -0.1283,-0.12828 -0.1283,-0.12828 -0.1283,-0.25639 -0.2564,-0.38457 -0.3846,-0.51275 -0.1281,-0.12829 -0.2564,-0.25639 -0.5127,-0.38459 -0.1282,0 -0.1282,-0.12829 -0.1282,-0.12829 -0.1282,0 -0.2563,0 -0.5127,0 -0.1283,0 -0.2564,-0.12827 -0.3846,-0.12827 h -63.71061 c -0.1281,0 -0.25637,0.12827 -0.51275,0.12827 -0.12811,0 -0.25638,0 -0.51276,0 -0.12829,0 -0.12829,0.12829 -0.12829,0.12829 -0.25638,0.1283 -0.38459,0.25639 -0.51277,0.38459 -0.12828,0.12829 -0.25639,0.25636 -0.38458,0.51275 0,0.12828 -0.12827,0.12828 -0.12827,0.12828 0,0.12828 0,0.25641 0,0.51278 0,0.1283 -0.12814,0.25638 -0.12814,0.38454 v 61.27501 h -61.27484 -63.71062 -63.7106 c -0.12828,0 -0.12828,0 -0.25635,0.12828 -0.12829,0 -0.2564,0 -0.3846,0.12811 -0.12828,0 -0.12828,0 -0.25635,0 -0.12829,0 -0.12829,0.12828 -0.12829,0.12828 -0.12829,0.12829 -0.25638,0.12829 -0.38455,0.2564 -0.12828,0 -0.12828,0 -0.25642,0.12828 l -63.83879,63.5824 c -0.64093,0.64095 -0.89731,1.66648 -0.51276,2.56382 0.3846,0.89734 1.28193,1.41008 2.17927,1.41008 h 19.22852 v 10.63981 c 0,1.28188 1.02553,2.3074 2.30742,2.3074 h 7.94781 v 89.47688 h -18.71579 c -0.76913,0 -1.41006,0.3846 -1.92284,0.89733 -0.51276,0.51277 -0.64096,1.28192 -0.38457,2.05106 l 6.92226,28.97102 c 0.25639,1.02553 1.15372,1.79465 2.30745,1.79465 h 1.28189 v 5.12761 c 0,1.28193 1.02553,2.30745 2.30742,2.30745 h 8.076 v 1.2819 c -4.23028,1.02553 -7.43505,4.87122 -7.43505,9.48607 0,3.33294 1.6665,6.15314 4.1021,7.94781 l -80.88812,46.78949 v 0 c -0.76912,0.38455 -1.1537,1.15371 -1.1537,2.05105 v 8.84513 c 0,1.28189 1.0255,2.30742 2.30742,2.30742 h 8.33239 v 13.45998 h -8.33239 c -1.28192,0 -2.30742,1.02553 -2.30742,2.30742 v 8.84515 c 0,1.2819 1.0255,2.30742 2.30742,2.30742 H 805.4141 c 1.2819,0 2.30742,-1.02552 2.30742,-2.30742 v -8.84515 c 0,-1.28189 -1.02552,-2.30742 -2.30742,-2.30742 h -8.33236 v -13.45998 h 8.33236 c 1.2819,0 2.30742,-1.02553 2.30742,-2.30742 v -8.58877 c 0,-0.89731 -0.51275,-1.66646 -1.1537,-2.05104 v 0 l -81.01631,-46.91766 c 1.2819,-0.89735 2.43562,-2.17925 3.20474,-3.71752 l -4.23026,-2.05105 c -0.76914,1.66647 -2.56379,2.82018 -4.48667,2.82018 -2.82018,0 -4.99941,-2.30743 -4.99941,-4.99942 0,-2.82017 2.30742,-4.99943 4.99941,-4.99943 1.28191,0 2.30741,-1.02549 2.30741,-2.30741 v -3.46114 h 8.07602 c 1.28188,0 2.30743,-1.02554 2.30743,-2.30743 v -5.12763 h 1.2819 c 1.15371,0 2.05104,-0.76915 2.30742,-1.79466 l 6.92226,-28.97101 c 0.1283,-0.76915 0,-1.4101 -0.38454,-2.05105 -0.51278,-0.51278 -1.15375,-0.89732 -1.92288,-0.89732 h -18.7157 v -89.34883 h 172.03143 v 30.76571 c 0,1.28191 1.02554,2.30743 2.30743,2.30743 h 44.09749 v 15.12643 63.71062 63.71061 63.58242 63.71059 63.71062 63.71061 61.27496 h -28.33006 c -1.28192,0 -2.30742,1.02554 -2.30742,2.30743 v 15.63923 h -17.17753 c -1.2819,0 -2.30742,1.02554 -2.30742,2.30743 v 17.94664 c 0,1.28191 1.02552,2.30744 2.30742,2.30744 h 164.21182 c 1.2819,0 2.3075,-1.02553 2.3075,-2.30744 v -17.94662 c 0,-1.28189 -1.0256,-2.30742 -2.3075,-2.30742 h -17.1775 v -15.63924 c 0,-1.28189 -1.0255,-2.30743 -2.3074,-2.30743 h -28.3301 v -61.27497 -63.7106 -63.71061 -63.7106 -63.7106 -63.71063 -63.58242 -61.27499 h 61.275 63.7106 c 0.2564,0 0.641,0 0.8974,-0.12829 0.1281,0 0.1281,-0.12828 0.1281,-0.12828 0.2564,-0.12829 0.3846,-0.25638 0.5127,-0.38455 0.1283,-0.12829 0.2564,-0.25638 0.3847,-0.51278 0,-0.12829 0.1283,-0.12829 0.1283,-0.12829 0,-0.12811 0,-0.25636 0,-0.51274 0,-0.12829 0.1283,-0.2564 0.1283,-0.38457 v -63.7106 c 0,-0.25639 -0.1283,-0.38459 -0.1283,-0.64097 z M 803.23494,478.27734 h -8.33236 c -1.28191,0 -2.30742,1.02552 -2.30742,2.30742 v 18.20302 c 0,1.28192 1.02551,2.30742 2.30742,2.30742 h 8.33236 v 4.2303 H 637.22842 v -4.10208 h 8.3324 c 1.2819,0 2.30741,-1.02554 2.30741,-2.30743 v -18.20305 c 0,-1.28189 -1.02551,-2.30742 -2.30741,-2.30742 h -8.3324 v -4.1021 h 166.00652 z m -82.93918,-53.19902 76.52965,44.35388 H 643.63795 Z m 280.60874,-228.307 -26.1509,26.15084 -7.69139,-7.69143 -18.4594,-18.45941 z m -52.17351,-4.74306 26.15081,-26.15083 7.6914,7.69145 18.4595,18.45938 z m 33.84221,45.2512 18.4595,18.45943 H 948.85919 L 975.01,229.58806 Z m 18.3313,23.20246 -18.4594,18.45942 -7.6915,7.69142 -26.15079,-26.15084 z m -18.3313,40.37996 18.4595,18.45942 H 948.85919 L 975.01,293.17045 Z m 18.3313,23.20245 -26.1509,26.15083 -7.69139,-7.69141 -18.4594,-18.45942 z m -18.3313,40.50816 18.4595,18.45941 H 948.85919 L 975.01,356.88107 Z m 18.3313,23.20244 -26.1509,26.15084 -7.69139,-7.69144 -18.4594,-18.4594 z m -18.3313,40.50816 18.4595,18.45941 H 948.85919 L 975.01,420.59167 Z m 18.3313,23.20247 -18.4594,18.45939 -7.6915,7.69143 -26.15079,-26.15082 z m -18.3313,40.37992 18.4595,18.45946 H 948.85919 L 975.01,484.17411 Z m 18.3313,23.20249 -26.1509,26.15084 -7.69139,-7.69143 -18.4594,-18.45941 z m 0,58.96755 h -52.17351 l 18.45942,-18.4594 7.69139,-7.69142 z m 0,4.74305 -18.4594,18.45942 -7.6915,7.6914 -26.15079,-26.15082 z m -18.3313,40.37996 18.4595,18.45941 H 948.85919 L 975.01,611.46712 Z m 18.3313,23.20244 -26.1509,26.15084 -7.69139,-7.6914 -18.4594,-18.45944 z m -18.3313,40.50818 18.4595,18.4594 H 948.85919 L 975.01,675.17772 Z m 18.3313,23.20243 -26.1509,26.15086 -7.69139,-7.69144 -18.4594,-18.45942 z m -18.3313,40.37998 18.4595,18.4594 H 948.85919 L 975.01,738.76013 Z m 3.333,-3.33295 -7.6914,-7.69143 26.1508,-26.15082 v 52.17348 z m 0,-63.58241 -7.6914,-7.69144 26.1508,-26.15082 v 52.17349 z m 0,-63.71062 -7.6914,-7.6914 7.6914,-7.69143 18.4594,-18.45942 v 52.17347 z m -7.6914,-71.27382 26.1508,-26.15086 v 52.17347 z m 7.6914,-56.01921 -7.6914,-7.69141 7.6914,-7.69143 18.4594,-18.45941 v 52.17348 z m 0,-63.71059 -7.6914,-7.69144 26.1508,-26.15081 v 52.17348 z m 0,-63.58244 -7.6914,-7.69141 26.1508,-26.15082 v 52.17346 z m 0,-63.71059 -7.6914,-7.69141 7.6914,-7.69141 18.4594,-18.45944 v 52.17347 z m 0,-63.5824 -7.6914,-7.69142 26.1508,-26.15082 v 52.17345 z m 0,-63.7106 -7.6914,-7.69145 26.1508,-26.15082 v 52.17349 z m 14.9983,-37.04703 -26.1509,26.15084 -7.69139,-7.69142 -18.4594,-18.45942 z m -55.50644,3.33295 18.45938,18.45942 7.69146,7.69142 -26.15084,26.15083 z m 0,63.58244 18.45938,18.45939 7.69146,7.69143 -26.15084,26.15081 z m 0,103.96236 v -40.25177 l 26.15084,26.15081 -26.15084,26.15084 z m 0,23.45885 18.45938,18.45939 7.69146,7.69143 -26.15084,26.15081 z m 0,63.58238 18.45938,18.45942 7.69146,7.69143 -26.15084,26.15083 z m 0,63.71062 26.15084,26.15085 -26.15084,26.1508 z m 0,63.5824 18.45938,18.45944 7.69146,7.69142 -7.69146,7.6914 -18.45938,18.45943 z m 0,63.71063 26.15084,26.15081 -26.15084,26.15086 z m 0,63.58241 18.45938,18.45941 7.69146,7.69141 -26.15084,26.15083 z m 0,63.71061 18.45938,18.4594 7.69146,7.69143 -26.15084,26.15082 z m -8.07602,-512.63323 -18.45939,18.45941 -7.69144,7.69143 -7.69141,-7.69143 -18.45941,-18.45941 z m 3.33295,3.33297 v 52.17345 l -26.15081,-26.15082 7.69142,-7.69141 z m -58.96755,0 18.4594,18.45939 7.69142,7.69143 -26.15082,26.15081 z m -23.07429,33.84224 -7.69141,-7.69142 26.15087,-26.15082 v 52.17345 z m 14.99829,21.79236 h -52.17346 l 26.15083,-26.15083 7.69143,7.6914 z m 0,-58.96757 -26.15084,26.15084 -7.69142,-7.69143 -18.3312,-18.45941 z m -55.50643,3.33297 18.45942,18.45939 7.69142,7.69143 -26.15084,26.15081 z m -23.20243,33.84224 -7.69143,-7.69142 26.15082,-26.15082 v 52.17345 z m 15.12644,21.79236 h -52.17346 l 18.45939,-18.45943 7.69143,-7.6914 7.69144,7.6914 z m 0,-58.96757 -26.15082,26.15084 -26.15084,-26.15084 z m -55.6346,3.33297 26.15083,26.15082 -7.6914,7.69142 -18.45943,18.45939 z m -60.24947,55.6346 55.50641,-55.50644 v 55.50644 h -39.739 z m 34.22683,143.57321 h -16.28017 v -2.82022 h 16.28017 z m 9.99884,-31.79123 -5.89675,24.22797 h -1.79468 -20.89501 -1.79466 l -5.76859,-24.22797 z M 894.63466,268.68612 H 712.34797 v -8.2042 h 39.73902 63.7106 63.7106 15.25469 v 8.2042 z m -9.48609,-12.94723 26.15085,-26.15083 26.15083,26.15083 h -40.37997 z m 14.22913,46.02034 v -30.76569 -10.63981 h 41.27729 v 41.27729 H 899.3777 Z m 155.2385,485.96961 v 13.20363 H 895.14742 v -13.20363 h 17.17752 125.11386 z m -19.4849,-18.07482 v 13.20359 H 914.76055 v -13.20359 h 28.33008 63.71057 z m 29.4837,-572.8827 -18.4594,18.45941 -7.6914,7.69143 -26.0226,-26.15084 z m -55.5063,3.33297 26.1508,26.15082 -7.6915,7.69142 -18.4593,18.45939 z m 3.3329,55.6346 18.4594,-18.45943 7.6914,-7.6914 26.1508,26.15083 z m 55.5064,-3.33297 -26.1508,-26.15081 7.6914,-7.69143 18.4594,-18.45939 z m 60.3777,-55.6346 -18.4595,18.45941 -7.6913,7.69143 -7.6914,-7.69143 -18.4594,-18.45941 z m -55.6346,3.33297 18.4594,18.45939 7.6914,7.69143 -26.1508,26.15081 z m 3.333,55.6346 26.1508,-26.15083 26.1508,26.15083 z m 55.6345,-3.33297 -26.1508,-26.15081 7.6914,-7.69143 18.4594,-18.45939 z"
     style="opacity:1;fill:#231f20;stroke-width:1.2819"
     id="path38" />
  <g
     id="g44"
     transform="matrix(1.2819036,0,0,1.2819036,-127.17066,-129.47315)"
     style="opacity:1">
    <path
       class="st1"
       d="m 446.1,268.6 c 0,-0.5 -0.1,-1 -0.2,-1.5 -0.1,-0.6 -0.1,-1.1 -0.2,-1.7 -0.1,-0.4 -0.2,-0.8 -0.2,-1.2 -0.1,-0.7 -0.3,-1.3 -0.5,-2 -0.1,-0.2 -0.1,-0.4 -0.2,-0.6 -1.4,-4.7 -3.9,-9 -7.3,-12.6 -0.1,-0.1 -0.3,-0.3 -0.4,-0.4 -0.6,-0.6 -1.1,-1.1 -1.8,-1.7 -0.4,-0.3 -0.8,-0.6 -1.2,-0.9 -0.4,-0.3 -0.8,-0.6 -1.2,-0.9 -1.2,-0.9 -2.4,-1.6 -3.7,-2.3 -0.3,-0.2 -0.7,-0.3 -1,-0.5 -1.2,-0.6 -2.4,-1.1 -3.6,-1.5 -0.1,0 -0.3,-0.1 -0.4,-0.1 -1.6,-0.5 -3.2,-0.9 -4.8,-1.2 -1.6,-0.3 -3.3,-0.4 -4.9,-0.4 -0.2,0 -0.4,0 -0.7,0 -1.3,0 -2.5,0.1 -3.7,0.3 -0.6,0.1 -1.3,0.2 -1.9,0.3 -0.8,0.2 -1.6,0.4 -2.3,0.6 -0.7,0.2 -1.4,0.4 -2.1,0.6 -0.7,0.3 -1.5,0.6 -2.2,0.9 -1.1,0.5 -2.1,1 -3.2,1.6 -0.7,0.4 -1.3,0.8 -2,1.2 -0.6,0.4 -1.1,0.8 -1.7,1.3 -0.6,0.5 -1.3,1 -1.9,1.6 -0.4,0.4 -0.9,0.8 -1.3,1.3 -0.8,0.9 -1.6,1.8 -2.4,2.7 -0.2,0.2 -0.3,0.4 -0.5,0.6 -0.8,1.2 -1.6,2.4 -2.3,3.7 -0.2,0.3 -0.4,0.7 -0.5,1 -0.6,1.3 -1.2,2.6 -1.6,4 -0.3,0.8 -0.5,1.6 -0.7,2.3 0,0.2 -0.1,0.4 -0.1,0.5 -0.2,0.9 -0.4,1.9 -0.5,2.8 0,0.1 0,0.1 0,0.2 -0.4,3 -0.3,6 0.1,8.9 0,0.1 0,0.2 0,0.2 0.1,0.8 0.3,1.6 0.5,2.5 0.1,0.2 0.1,0.4 0.2,0.6 0.2,0.7 0.4,1.3 0.6,2 0.1,0.4 0.2,0.7 0.4,1.1 0.2,0.5 0.4,1 0.6,1.5 0.2,0.5 0.4,1 0.7,1.5 0.2,0.4 0.4,0.7 0.6,1 0.3,0.6 0.6,1.1 1,1.7 0.2,0.3 0.3,0.5 0.5,0.8 0.4,0.6 0.8,1.2 1.2,1.8 0.2,0.2 0.4,0.5 0.6,0.7 0.4,0.5 0.9,1.1 1.4,1.6 0.3,0.3 0.5,0.5 0.8,0.8 0.4,0.4 0.9,0.9 1.4,1.3 0.4,0.3 0.8,0.7 1.2,1 0.4,0.3 0.8,0.6 1.2,0.9 1.2,0.8 2.4,1.6 3.6,2.2 0.4,0.2 0.8,0.4 1.2,0.6 1,0.5 2.1,0.9 3.2,1.3 0.2,0.1 0.5,0.2 0.7,0.3 3.2,1 6.5,1.6 9.8,1.6 0.1,0 0.3,0 0.4,0 1.4,0 2.7,-0.1 4,-0.3 0.6,-0.1 1.2,-0.2 1.8,-0.3 0.8,-0.2 1.6,-0.4 2.4,-0.6 0.7,-0.2 1.4,-0.4 2.1,-0.6 0.7,-0.2 1.3,-0.5 2,-0.8 1.2,-0.5 2.4,-1.2 3.6,-1.8 0.5,-0.3 1.1,-0.6 1.6,-1 0.6,-0.4 1.2,-0.9 1.9,-1.4 0.6,-0.4 1.1,-0.9 1.6,-1.4 0.5,-0.5 1.1,-1 1.5,-1.5 0.7,-0.7 1.3,-1.4 1.9,-2.2 0.3,-0.4 0.6,-0.7 0.9,-1.1 0.1,-0.1 0.1,-0.2 0.1,-0.2 0.8,-1.1 1.5,-2.2 2.1,-3.4 0.2,-0.3 0.3,-0.6 0.5,-0.9 0.7,-1.4 1.3,-2.8 1.8,-4.2 0,-0.1 0.1,-0.3 0.1,-0.4 0.3,-0.9 0.5,-1.7 0.7,-2.6 0.1,-0.2 0.1,-0.5 0.1,-0.7 0.2,-0.8 0.3,-1.6 0.4,-2.4 0,-0.3 0.1,-0.7 0.1,-1 0.1,-0.7 0.1,-1.3 0.1,-2 0,-0.4 0,-0.9 0,-1.3 0.1,-0.7 0.1,-1.2 0,-1.8 z"
       style="fill:#e5261f"
       id="path40" />
    <path
       class="st2"
       d="m 449.9,270.2 c 0,-0.6 0,-1.2 -0.1,-1.9 0,-0.6 -0.1,-1.1 -0.2,-1.7 -0.1,-0.4 -0.1,-0.9 -0.1,-1.3 0,-0.2 -0.1,-0.3 -0.1,-0.5 -0.1,-0.5 -0.2,-0.9 -0.3,-1.4 -0.2,-0.7 -0.3,-1.4 -0.5,-2.1 -0.1,-0.2 -0.1,-0.5 -0.2,-0.7 -1.6,-5.3 -4.4,-10.1 -8.1,-14.1 -0.2,-0.2 -0.3,-0.3 -0.5,-0.5 -0.6,-0.6 -1.2,-1.2 -1.9,-1.8 -0.4,-0.4 -0.9,-0.7 -1.4,-1.1 -0.4,-0.3 -0.7,-0.6 -1.1,-0.9 -0.1,0 -0.1,-0.1 -0.2,-0.1 -0.3,-0.2 -0.5,-0.4 -0.8,-0.5 -0.6,-0.4 -1.3,-0.9 -2,-1.2 -0.3,-0.2 -0.6,-0.3 -0.9,-0.5 -0.8,-0.4 -1.5,-0.8 -2.3,-1.2 -0.2,-0.1 -0.4,-0.2 -0.6,-0.3 -2.7,-1.2 -5.6,-2.1 -8.6,-2.5 -1.8,-0.3 -3.7,-0.4 -5.5,-0.4 -1.4,0 -2.7,0.1 -4,0.3 -0.1,0 -0.2,0 -0.3,0 -8.3,1 -15.9,4.9 -21.5,10.9 -0.1,0.1 -0.2,0.2 -0.3,0.3 -1.6,1.8 -3.1,3.7 -4.3,5.9 -0.1,0.2 -0.3,0.5 -0.4,0.7 -0.4,0.7 -0.8,1.5 -1.1,2.2 -0.1,0.3 -0.3,0.5 -0.4,0.8 -0.4,0.9 -0.7,1.7 -1,2.6 0,0.1 -0.1,0.2 -0.1,0.3 0,0.1 -0.1,0.2 -0.1,0.4 -0.2,0.7 -0.4,1.5 -0.6,2.2 -0.1,0.3 -0.2,0.6 -0.2,0.8 -0.2,1 -0.4,1.9 -0.5,2.9 0,0.1 -0.1,0.3 -0.1,0.4 -0.1,1.1 -0.2,2.1 -0.3,3.2 0,0.1 0,0.1 0,0.2 0,1.1 0,2.1 0,3.2 0,0.1 0,0.1 0,0.2 0.1,1 0.2,2 0.3,3 0,0.2 0,0.3 0.1,0.5 0.1,0.9 0.3,1.7 0.5,2.6 0.1,0.3 0.1,0.6 0.2,0.9 0.2,0.7 0.4,1.4 0.6,2 0.2,0.5 0.3,0.9 0.5,1.4 0.2,0.5 0.4,1 0.6,1.5 0.3,0.6 0.5,1.2 0.8,1.7 0.2,0.4 0.4,0.7 0.6,1.1 0.4,0.7 0.7,1.3 1.1,2 0.2,0.3 0.4,0.5 0.5,0.8 0.5,0.7 0.9,1.4 1.4,2 0.2,0.3 0.4,0.5 0.6,0.8 0.5,0.6 1,1.2 1.5,1.8 0.3,0.3 0.6,0.6 1,1 0.5,0.5 1,1 1.5,1.4 0.5,0.4 1,0.8 1.5,1.2 0.4,0.3 0.7,0.6 1,0.8 0.1,0 0.1,0.1 0.2,0.1 0.2,0.2 0.5,0.3 0.7,0.5 0.7,0.5 1.3,0.9 2,1.3 0.3,0.1 0.5,0.3 0.8,0.4 0.8,0.5 1.7,0.9 2.5,1.3 0.1,0.1 0.2,0.1 0.3,0.2 3.6,1.6 7.5,2.6 11.5,2.9 0.9,0.1 1.9,0.1 2.8,0.1 1.3,0 2.6,-0.1 3.9,-0.2 0.2,0 0.3,0 0.5,-0.1 10.9,-1.4 20.5,-7.7 26,-17.1 0.1,-0.2 0.2,-0.4 0.4,-0.6 0.4,-0.7 0.7,-1.3 1.1,-2 0.2,-0.4 0.4,-0.8 0.6,-1.2 0.2,-0.5 0.4,-1 0.6,-1.5 0.2,-0.5 0.4,-1.1 0.6,-1.6 0,0 0,-0.1 0.1,-0.1 0,-0.1 0.1,-0.3 0.1,-0.4 0.3,-0.9 0.6,-1.9 0.8,-2.9 0.1,-0.3 0.1,-0.5 0.2,-0.8 0.2,-0.9 0.3,-1.7 0.4,-2.6 0,-0.4 0.1,-0.8 0.1,-1.2 0.1,-0.7 0.1,-1.5 0.1,-2.2 0,-0.6 0,-1.1 0,-1.6 z m -3.8,3.5 c 0,0.3 -0.1,0.7 -0.1,1 -0.1,0.8 -0.2,1.6 -0.4,2.4 0,0.2 -0.1,0.5 -0.1,0.7 -0.2,0.9 -0.4,1.7 -0.7,2.6 0,0.1 -0.1,0.3 -0.1,0.4 -0.5,1.5 -1.1,2.9 -1.8,4.2 -0.1,0.3 -0.3,0.6 -0.5,0.9 -0.6,1.2 -1.3,2.3 -2.1,3.4 -0.1,0.1 -0.1,0.2 -0.1,0.2 -0.3,0.4 -0.6,0.7 -0.9,1.1 -0.6,0.8 -1.2,1.5 -1.9,2.2 -0.5,0.5 -1,1 -1.5,1.5 -0.5,0.5 -1.1,0.9 -1.6,1.4 -0.6,0.5 -1.2,1 -1.9,1.4 -0.5,0.4 -1.1,0.7 -1.6,1 -1.2,0.7 -2.4,1.3 -3.6,1.8 -0.6,0.3 -1.3,0.6 -2,0.8 -0.7,0.2 -1.4,0.4 -2.1,0.6 -0.8,0.2 -1.6,0.4 -2.4,0.6 -0.6,0.1 -1.2,0.2 -1.8,0.3 -1.3,0.2 -2.7,0.3 -4,0.3 -0.1,0 -0.3,0 -0.4,0 -3.3,0 -6.6,-0.5 -9.8,-1.6 -0.2,-0.1 -0.5,-0.2 -0.7,-0.3 -1.1,-0.4 -2.2,-0.8 -3.2,-1.3 -0.4,-0.2 -0.8,-0.4 -1.2,-0.6 -1.2,-0.7 -2.5,-1.4 -3.6,-2.2 -0.4,-0.3 -0.8,-0.6 -1.2,-0.9 -0.4,-0.3 -0.8,-0.6 -1.2,-1 -0.5,-0.4 -0.9,-0.9 -1.4,-1.3 -0.3,-0.3 -0.6,-0.5 -0.8,-0.8 -0.5,-0.5 -0.9,-1.1 -1.4,-1.6 -0.2,-0.2 -0.4,-0.5 -0.6,-0.7 -0.4,-0.6 -0.8,-1.2 -1.2,-1.8 -0.2,-0.3 -0.4,-0.5 -0.5,-0.8 -0.3,-0.6 -0.7,-1.1 -1,-1.7 -0.2,-0.3 -0.4,-0.7 -0.6,-1 -0.2,-0.5 -0.4,-1 -0.7,-1.5 -0.2,-0.5 -0.4,-1 -0.6,-1.5 -0.1,-0.4 -0.2,-0.7 -0.4,-1.1 -0.2,-0.6 -0.4,-1.3 -0.6,-2 -0.1,-0.2 -0.1,-0.4 -0.2,-0.6 -0.2,-0.8 -0.4,-1.6 -0.5,-2.5 0,-0.1 0,-0.2 0,-0.2 -0.5,-2.9 -0.5,-5.9 -0.1,-8.9 0,-0.1 0,-0.1 0,-0.2 0.1,-0.9 0.3,-1.9 0.5,-2.8 0,-0.2 0.1,-0.4 0.1,-0.5 0.2,-0.8 0.4,-1.6 0.7,-2.3 0.5,-1.4 1,-2.7 1.6,-4 0.2,-0.3 0.3,-0.7 0.5,-1 0.7,-1.3 1.4,-2.5 2.3,-3.7 0.2,-0.2 0.3,-0.4 0.5,-0.6 0.7,-1 1.5,-1.9 2.4,-2.7 0.4,-0.4 0.9,-0.9 1.3,-1.3 0.6,-0.6 1.2,-1.1 1.9,-1.6 0.5,-0.4 1.1,-0.9 1.7,-1.3 0.6,-0.4 1.3,-0.8 2,-1.2 1,-0.6 2.1,-1.1 3.2,-1.6 0.7,-0.3 1.4,-0.6 2.2,-0.9 0.7,-0.2 1.4,-0.4 2.1,-0.6 0.8,-0.2 1.6,-0.4 2.3,-0.6 0.6,-0.1 1.3,-0.3 1.9,-0.3 1.2,-0.2 2.5,-0.3 3.7,-0.3 0.2,0 0.4,0 0.7,0 1.7,0 3.3,0.1 4.9,0.4 1.6,0.3 3.2,0.6 4.8,1.2 0.1,0 0.3,0.1 0.4,0.1 1.2,0.4 2.5,0.9 3.6,1.5 0.3,0.2 0.7,0.3 1,0.5 1.3,0.7 2.5,1.4 3.7,2.3 0.4,0.3 0.8,0.6 1.2,0.9 0.4,0.3 0.8,0.6 1.2,0.9 0.6,0.5 1.2,1.1 1.8,1.7 0.1,0.1 0.3,0.3 0.4,0.4 3.4,3.6 5.9,7.9 7.3,12.6 0.1,0.2 0.1,0.4 0.2,0.6 0.2,0.6 0.3,1.3 0.5,2 0.1,0.4 0.2,0.8 0.2,1.2 0.1,0.6 0.2,1.1 0.2,1.7 0.1,0.5 0.1,1 0.2,1.5 0,0.6 0.1,1.2 0.1,1.7 0,0.4 0,0.9 0,1.3 -0.1,0.7 -0.1,1.4 -0.2,2.1 z"
       style="fill:#231f20"
       id="path42" />
  </g>
  <g
     id="g96"
     transform="matrix(1.2819036,0,0,1.2819036,-127.17066,-129.47315)"
     style="opacity:1">
    <path
       d="m 426.10001,651.20001 h 15.8 v 26.9 h -15.8 z"
       class="st4"
       style="fill:#73e3e2"
       id="path46" />
    <path
       d="m 406.60001,620.70001 h 15.8 v 26.9 h -15.8 z"
       class="st4"
       style="fill:#73e3e2"
       id="path48" />
    <path
       d="m 406.60001,651.20001 h 15.8 v 26.9 h -15.8 z"
       class="st4"
       style="fill:#73e3e2"
       id="path50" />
    <path
       d="m 387.10001,620.70001 h 15.8 v 26.9 h -15.8 z"
       class="st4"
       style="fill:#73e3e2"
       id="path52" />
    <path
       d="m 367.60001,620.70001 h 15.8 v 26.9 h -15.8 z"
       class="st4"
       style="fill:#73e3e2"
       id="path54" />
    <path
       d="m 465.20001,651.20001 h 16.7 v 26.9 h -16.7 z"
       class="st4"
       style="fill:#73e3e2"
       id="path56" />
    <path
       d="m 465.20001,620.70001 h 16.7 v 26.9 h -16.7 z"
       class="st4"
       style="fill:#73e3e2"
       id="path58" />
    <path
       d="m 426.10001,620.70001 h 15.8 v 26.9 h -15.8 z"
       class="st4"
       style="fill:#73e3e2"
       id="path60" />
    <path
       d="m 305.39999,617 h 3.70002 15.79998 3.70002 15.79998 3.70002 H 364 h 3.60001 15.79998 3.70002 15.79998 3.70002 H 422.5 426.10001 442 445.70001 461.5 465.20001 485.5 h 6.29999 v -51.59998 l -213,45.09998 v 6.5 h 6.30002 z"
       class="st3"
       style="fill:#cfcfcf"
       id="path62" />
    <path
       d="m 367.60001,651.20001 h 15.8 v 26.9 h -15.8 z"
       class="st4"
       style="fill:#73e3e2"
       id="path64" />
    <path
       d="m 445.70001,651.20001 h 15.8 v 26.9 h -15.8 z"
       class="st4"
       style="fill:#73e3e2"
       id="path66" />
    <path
       d="m 445.70001,620.70001 h 15.8 v 26.9 h -15.8 z"
       class="st4"
       style="fill:#73e3e2"
       id="path68" />
    <path
       d="m 387.10001,651.20001 h 15.8 v 26.9 h -15.8 z"
       class="st4"
       style="fill:#73e3e2"
       id="path70" />
    <path
       d="m 288.79999,620.70001 h 16.7 v 26.9 h -16.7 z"
       class="st4"
       style="fill:#73e3e2"
       id="path72" />
    <path
       d="m 278.79999,699.79999 h 213 v 7 h -213 z"
       class="st0"
       style="fill:#ffffff"
       id="path74" />
    <path
       d="m 288.79999,651.20001 h 16.7 v 26.9 h -16.7 z"
       class="st4"
       style="fill:#73e3e2"
       id="path76" />
    <path
       d="m 278.79999,710.5 h 213 v 15.3 h -213 z"
       class="st3"
       style="fill:#cfcfcf"
       id="path78" />
    <path
       d="M 465.20001,681.79999 H 461.5 445.70001 442 426.10001 422.5 406.60001 402.89999 387.10001 383.39999 367.60001 364 h -15.89999 -3.70002 -15.79998 -3.70002 -15.79998 -3.70002 -20.29998 -6.30002 v 14.29999 h 213 V 681.79999 H 485.5 Z"
       class="st3"
       style="fill:#cfcfcf"
       id="path80" />
    <path
       d="m 348.10001,620.70001 h 15.8 v 26.9 h -15.8 z"
       class="st4"
       style="fill:#73e3e2"
       id="path82" />
    <path
       d="m 348.10001,651.20001 h 15.8 v 26.9 h -15.8 z"
       class="st4"
       style="fill:#73e3e2"
       id="path84" />
    <path
       d="m 328.60001,620.70001 h 15.8 v 26.9 h -15.8 z"
       class="st4"
       style="fill:#73e3e2"
       id="path86" />
    <path
       d="m 309.10001,651.20001 h 15.8 v 26.9 h -15.8 z"
       class="st4"
       style="fill:#73e3e2"
       id="path88" />
    <path
       d="m 328.60001,651.20001 h 15.8 v 26.9 h -15.8 z"
       class="st4"
       style="fill:#73e3e2"
       id="path90" />
    <path
       d="m 309.10001,620.70001 h 15.8 v 26.9 h -15.8 z"
       class="st4"
       style="fill:#73e3e2"
       id="path92" />
    <path
       class="st2"
       d="m 501,706.8 h -5.6 v -7 -3.7 -18 h -10 v -26.9 -3.7 -26.9 h 10 V 560.8 L 275,607.4 v 13.2 h 9.9 v 26.9 3.7 26.9 H 275 v 18 3.7 7 h -5.6 c -1,0 -1.8,0.8 -1.8,1.8 0,1 0.8,1.8 1.8,1.8 h 5.6 v 19 h 220.4 v -19 h 5.6 c 1,0 1.8,-0.8 1.8,-1.8 0.1,-1 -0.7,-1.8 -1.8,-1.8 z M 278.8,617 v -6.5 l 213,-45 V 617 h -6.3 -20.4 -3.7 -15.8 -3.6 -15.8 -3.7 -15.8 -3.7 -15.8 -3.7 -15.8 -3.7 -15.8 -3.7 -15.8 -3.7 -15.8 -3.7 -20.4 z m 186.4,30.5 v -26.9 h 16.7 v 26.9 z m 16.6,3.7 v 26.9 h -16.7 v -26.9 z m -36.1,-3.7 v -26.9 h 15.8 v 26.9 z m 15.8,3.7 v 26.9 h -15.8 v -26.9 z m -35.4,-3.7 V 620.6 H 442 v 26.9 z m 15.9,3.7 v 26.9 h -15.8 v -26.9 z m -35.4,-3.7 v -26.9 h 15.8 v 26.9 z m 15.9,3.7 v 26.9 h -15.8 v -26.9 z m -35.4,-3.7 v -26.9 h 15.8 v 26.9 z m 15.8,3.7 v 26.9 h -15.8 v -26.9 z m -35.3,-3.7 v -26.9 h 15.8 v 26.9 z m 15.8,3.7 v 26.9 h -15.8 v -26.9 z m -35.3,-3.7 V 620.6 H 364 v 26.9 z m 15.9,3.7 v 26.9 h -15.8 v -26.9 z m -35.4,-3.7 v -26.9 h 15.8 v 26.9 z m 15.8,3.7 v 26.9 h -15.8 v -26.9 z m -35.3,-3.7 v -26.9 h 15.8 v 26.9 z m 15.8,3.7 v 26.9 h -15.8 v -26.9 z m -36.1,-3.7 v -26.9 h 16.7 v 26.9 z m 16.6,3.7 v 26.9 h -16.7 v -26.9 z m 186.4,74.6 h -213 v -15.3 h 213 z m 0,-19 h -213 v -7 h 213 z m 0,-10.7 h -213 v -14.4 h 6.3 20.4 3.7 15.8 3.7 15.8 3.7 15.8 3.7 15.8 3.7 15.8 3.7 15.8 3.7 15.8 3.7 15.8 3.7 20.4 6.3 v 14.4 z"
       style="fill:#231f20"
       id="path94" />
  </g>
  <path
     class="st2"
     d="m 227.91663,642.10463 c 0.12812,0 0.38457,0 0.51275,0 l 277.66031,-61.40319 c 1.28191,-0.25638 2.05105,-1.53828 1.79468,-2.8202 -0.25638,-1.28189 -1.5383,-2.05104 -2.8202,-1.79467 L 227.2757,637.36156 c -1.28192,0.25638 -2.05106,1.53829 -1.79469,2.8202 0.25638,1.15372 1.28192,1.92287 2.43562,1.92287 z"
     style="opacity:1;fill:#231f20;stroke-width:1.2819"
     id="path98" />
  <path
     d="m 611.97492,559.80642 h 29.61194 V 589.162 h -29.61194 z"
     class="st4"
     style="opacity:1;fill:#73e3e2;stroke-width:1.2819"
     id="path100" />
  <path
     d="m 611.97492,696.32916 h 29.61194 v 29.35556 h -29.61194 z"
     class="st4"
     style="opacity:1;fill:#73e3e2;stroke-width:1.2819"
     id="path102" />
  <path
     d="m 611.97492,593.90503 h 29.61194 v 29.35556 h -29.61194 z"
     class="st4"
     style="opacity:1;fill:#73e3e2;stroke-width:1.2819"
     id="path104" />
  <path
     d="m 611.97492,628.13186 h 29.61194 v 29.35559 h -29.61194 z"
     class="st4"
     style="opacity:1;fill:#73e3e2;stroke-width:1.2819"
     id="path106" />
  <path
     d="m 646.20173,764.65456 h 29.61199 v 36.27791 h -29.61199 z"
     class="st4"
     style="opacity:1;fill:#73e3e2;stroke-width:1.2819"
     id="path108" />
  <path
     d="m 646.20173,628.13186 h 29.61199 v 29.35559 h -29.61199 z"
     class="st4"
     style="opacity:1;fill:#73e3e2;stroke-width:1.2819"
     id="path110" />
  <path
     d="m 646.20173,662.23046 h 29.61199 v 29.35559 h -29.61199 z"
     class="st4"
     style="opacity:1;fill:#73e3e2;stroke-width:1.2819"
     id="path112" />
  <path
     d="m 646.20173,696.32916 h 29.61199 v 29.35556 h -29.61199 z"
     class="st4"
     style="opacity:1;fill:#73e3e2;stroke-width:1.2819"
     id="path114" />
  <path
     d="m 646.20173,730.42775 h 29.61199 v 29.3556 h -29.61199 z"
     class="st4"
     style="opacity:1;fill:#73e3e2;stroke-width:1.2819"
     id="path116" />
  <path
     d="m 577.61989,730.42775 h 29.61199 v 29.3556 h -29.61199 z"
     class="st4"
     style="opacity:1;fill:#73e3e2;stroke-width:1.2819"
     id="path118" />
  <path
     d="m 577.61989,628.13186 h 29.61199 v 29.35559 h -29.61199 z"
     class="st4"
     style="opacity:1;fill:#73e3e2;stroke-width:1.2819"
     id="path120" />
  <path
     d="m 577.61989,696.32916 h 29.61199 v 29.35556 h -29.61199 z"
     class="st4"
     style="opacity:1;fill:#73e3e2;stroke-width:1.2819"
     id="path122" />
  <path
     d="m 577.61989,662.23046 h 29.61199 v 29.35559 h -29.61199 z"
     class="st4"
     style="opacity:1;fill:#73e3e2;stroke-width:1.2819"
     id="path124" />
  <path
     d="m 577.61989,764.65456 h 29.61199 v 36.27791 h -29.61199 z"
     class="st4"
     style="opacity:1;fill:#73e3e2;stroke-width:1.2819"
     id="path126" />
  <path
     d="m 646.20173,593.90503 h 29.61199 v 29.35556 h -29.61199 z"
     class="st4"
     style="opacity:1;fill:#73e3e2;stroke-width:1.2819"
     id="path128" />
  <path
     d="m 577.61989,527.75881 h 29.61199 v 27.30456 h -29.61199 z"
     class="st4"
     style="opacity:1;fill:#73e3e2;stroke-width:1.2819"
     id="path130" />
  <path
     d="m 611.97492,764.65456 h 29.61194 v 36.27791 h -29.61194 z"
     class="st4"
     style="opacity:1;fill:#73e3e2;stroke-width:1.2819"
     id="path132" />
  <path
     d="m 577.61989,593.90503 h 29.61199 v 29.35556 h -29.61199 z"
     class="st4"
     style="opacity:1;fill:#73e3e2;stroke-width:1.2819"
     id="path134" />
  <path
     d="m 611.97492,730.42775 h 29.61194 v 29.3556 h -29.61194 z"
     class="st4"
     style="opacity:1;fill:#73e3e2;stroke-width:1.2819"
     id="path136" />
  <path
     d="m 577.61989,559.80642 h 29.61199 V 589.162 h -29.61199 z"
     class="st4"
     style="opacity:1;fill:#73e3e2;stroke-width:1.2819"
     id="path138" />
  <path
     d="m 611.97492,662.23046 h 29.61194 v 29.35559 h -29.61194 z"
     class="st4"
     style="opacity:1;fill:#73e3e2;stroke-width:1.2819"
     id="path140" />
  <path
     d="m 714.78358,662.23046 h 29.612 v 29.35559 h -29.612 z"
     class="st4"
     style="opacity:1;fill:#73e3e2;stroke-width:1.2819"
     id="path142" />
  <path
     d="m 749.1386,696.32916 h 29.61195 v 29.35556 H 749.1386 Z"
     class="st4"
     style="opacity:1;fill:#73e3e2;stroke-width:1.2819"
     id="path144" />
  <path
     d="m 749.1386,764.65456 h 29.61195 v 36.27791 H 749.1386 Z"
     class="st4"
     style="opacity:1;fill:#73e3e2;stroke-width:1.2819"
     id="path146" />
  <path
     d="m 714.78358,593.90503 h 29.612 v 29.35556 h -29.612 z"
     class="st4"
     style="opacity:1;fill:#73e3e2;stroke-width:1.2819"
     id="path148" />
  <path
     d="m 714.78358,628.13186 h 29.612 v 29.35559 h -29.612 z"
     class="st4"
     style="opacity:1;fill:#73e3e2;stroke-width:1.2819"
     id="path150" />
  <path
     d="m 749.1386,730.42775 h 29.61195 v 29.3556 H 749.1386 Z"
     class="st4"
     style="opacity:1;fill:#73e3e2;stroke-width:1.2819"
     id="path152" />
  <path
     d="m 783.36542,730.42775 h 29.612 v 29.3556 h -29.612 z"
     class="st4"
     style="opacity:1;fill:#73e3e2;stroke-width:1.2819"
     id="path154" />
  <path
     d="m 646.20173,559.80642 h 29.61199 V 589.162 h -29.61199 z"
     class="st4"
     style="opacity:1;fill:#73e3e2;stroke-width:1.2819"
     id="path156" />
  <path
     d="m 783.36542,764.65456 h 29.612 v 36.27791 h -29.612 z"
     class="st4"
     style="opacity:1;fill:#73e3e2;stroke-width:1.2819"
     id="path158" />
  <path
     d="m 749.1386,662.23046 h 29.61195 v 29.35559 H 749.1386 Z"
     class="st4"
     style="opacity:1;fill:#73e3e2;stroke-width:1.2819"
     id="path160" />
  <path
     d="m 680.55676,696.32916 h 29.61196 v 29.35556 h -29.61196 z"
     class="st4"
     style="opacity:1;fill:#73e3e2;stroke-width:1.2819"
     id="path162" />
  <path
     d="m 680.55676,730.42775 h 29.61196 v 29.3556 h -29.61196 z"
     class="st4"
     style="opacity:1;fill:#73e3e2;stroke-width:1.2819"
     id="path164" />
  <path
     d="m 680.55676,662.23046 h 29.61196 v 29.35559 h -29.61196 z"
     class="st4"
     style="opacity:1;fill:#73e3e2;stroke-width:1.2819"
     id="path166" />
  <path
     d="m 680.55676,764.65456 h 29.61196 v 36.27791 h -29.61196 z"
     class="st4"
     style="opacity:1;fill:#73e3e2;stroke-width:1.2819"
     id="path168" />
  <path
     d="m 714.78358,764.65456 h 29.612 v 36.27791 h -29.612 z"
     class="st4"
     style="opacity:1;fill:#73e3e2;stroke-width:1.2819"
     id="path170" />
  <path
     d="m 714.78358,696.32916 h 29.612 v 29.35556 h -29.612 z"
     class="st4"
     style="opacity:1;fill:#73e3e2;stroke-width:1.2819"
     id="path172" />
  <path
     d="m 714.78358,730.42775 h 29.612 v 29.3556 h -29.612 z"
     class="st4"
     style="opacity:1;fill:#73e3e2;stroke-width:1.2819"
     id="path174" />
  <path
     d="m 680.55676,628.13186 h 29.61196 v 29.35559 h -29.61196 z"
     class="st4"
     style="opacity:1;fill:#73e3e2;stroke-width:1.2819"
     id="path176" />
  <path
     d="m 680.55676,593.90503 h 29.61196 v 29.35556 h -29.61196 z"
     class="st4"
     style="opacity:1;fill:#73e3e2;stroke-width:1.2819"
     id="path178" />
  <path
     class="st2"
     d="m 828.61662,759.91154 h -10.76799 v -29.3556 h 10.76799 c 1.28191,0 2.30743,-1.02553 2.30743,-2.30743 0,-1.2819 -1.02552,-2.30743 -2.30743,-2.30743 h -10.76799 -34.355 v -29.35557 h 11.40895 c 1.28188,0 2.3074,-1.02551 2.3074,-2.30742 0,-1.2819 -1.02552,-2.30743 -2.3074,-2.30743 h -11.40895 v -29.35562 h 11.40895 c 1.28188,0 2.3074,-1.0255 2.3074,-2.30741 0,-1.2819 -1.02552,-2.30743 -2.3074,-2.30743 h -11.40895 -34.35502 v -29.86834 h 9.35789 c 1.28191,0 2.30743,-1.02554 2.30743,-2.30744 0,-1.2819 -1.02552,-2.30742 -2.30743,-2.30742 h -9.35789 v -29.35558 h 9.35789 c 1.28191,0 2.30743,-1.02554 2.30743,-2.30742 0,-1.28192 -1.02552,-2.30743 -2.30743,-2.30743 h -9.35789 -34.35502 -4.74304 -29.61196 v -29.35561 h 9.48609 c 1.2819,0 2.30743,-1.0255 2.30743,-2.30741 0,-1.28191 -1.02553,-2.30743 -2.30743,-2.30743 h -9.48609 -34.35503 -4.74304 -29.61196 V 523.52853 H 572.6205 v 32.04759 h -10.89619 c -1.28191,0 -2.30742,1.02552 -2.30742,2.30743 0,1.28191 1.02551,2.30741 2.30742,2.30741 h 10.89619 v 29.35561 h -9.22973 c -1.28189,0 -2.30742,1.02551 -2.30742,2.30743 0,1.28188 1.02553,2.30742 2.30742,2.30742 h 9.22973 V 623.517 h -9.22973 c -1.28189,0 -2.30742,1.02552 -2.30742,2.30742 0,1.2819 1.02553,2.30744 2.30742,2.30744 h 9.22973 v 29.35559 h -11.28077 c -1.28188,0 -2.30741,1.02552 -2.30741,2.30743 0,1.28191 1.02553,2.30742 2.30741,2.30742 h 11.28077 v 29.35558 h -11.28077 c -1.28188,0 -2.30741,1.02553 -2.30741,2.30745 0,1.2819 1.02553,2.30741 2.30741,2.30741 h 11.28077 v 29.35559 h -10.89619 c -1.28191,0 -2.30742,1.02553 -2.30742,2.30743 0,1.28191 1.02551,2.30741 2.30742,2.30741 h 10.89619 v 29.35561 h -10.89619 c -1.28191,0 -2.30742,1.0255 -2.30742,2.30742 0,1.28192 1.02551,2.30742 2.30742,2.30742 h 10.89619 v 41.02094 h 34.355 4.74306 29.61196 4.74304 29.612 4.74303 29.61196 4.74304 29.61199 4.74303 29.61197 4.74305 34.355 v -41.02094 h 10.76799 c 1.28191,0 2.30743,-1.0255 2.30743,-2.30742 0,-0.76914 -1.02552,-1.79466 -2.30743,-1.79466 z m -221.38474,41.02093 h -29.61196 v -36.27791 h 29.61196 z m 0,-41.02093 h -29.61196 v -29.3556 h 29.61196 z m 0,-34.22683 h -29.61196 v -29.35558 h 29.61196 z m 0,-34.09863 H 577.61992 V 662.2305 h 29.61196 z m 0,-34.09863 h -29.61196 v -29.35559 h 29.61196 z m 0,-34.09864 h -29.61196 v -29.3556 h 29.61196 z m 0,-34.22682 h -29.61196 v -29.35557 h 29.61196 z m 0,-34.09862 h -29.61196 v -27.30456 h 29.61196 z m 34.22683,245.8691 h -29.61196 v -36.27791 h 29.61196 z m 0,-41.02093 h -29.61196 v -29.3556 h 29.61196 z m 0,-34.22683 h -29.61196 v -29.35558 h 29.61196 z m 0,-34.09863 H 611.84675 V 662.2305 h 29.61196 z m 0,-34.09863 h -29.61196 v -29.35559 h 29.61196 z m 0,-34.09864 h -29.61196 v -29.3556 h 29.61196 z m 0,-34.22682 h -29.61196 v -29.35557 h 29.61196 z m 34.35501,211.77048 h -29.61197 v -36.27791 h 29.61197 z m 0,-41.02093 h -29.61197 v -29.3556 h 29.61197 z m 0,-34.22683 h -29.61197 v -29.35558 h 29.61197 z m 0,-34.09863 H 646.20175 V 662.2305 h 29.61197 z m 0,-34.09863 h -29.61197 v -29.35559 h 29.61197 z m 0,-34.09864 h -29.61197 v -29.3556 h 29.61197 z m 0,-34.22682 h -29.61197 v -29.35557 h 29.61197 z m 34.22683,211.77048 h -29.61196 v -36.27791 h 29.61196 z m 0,-41.02093 h -29.61196 v -29.3556 h 29.61196 z m 0,-34.22683 h -29.61196 v -29.35558 h 29.61196 z m 0,-34.09863 H 680.42859 V 662.2305 h 29.61196 z m 0,-34.09863 h -29.61196 v -29.35559 h 29.61196 z m 0,-34.09864 h -29.61196 v -29.3556 h 29.61196 z m 34.35503,177.54366 h -29.61199 v -36.27791 h 29.61199 z m 0,-41.02093 h -29.61199 v -29.3556 h 29.61199 z m 0,-34.22683 h -29.61199 v -29.35558 h 29.61199 z m 0,-34.09863 H 714.78359 V 662.2305 h 29.61199 z m 0,-34.09863 h -29.61199 v -29.35559 h 29.61199 z m 0,-34.09864 h -29.61199 v -29.3556 h 29.61199 z m 34.2268,177.54366 h -29.61195 v -36.27791 h 29.61195 z m 0,-41.02093 h -29.61195 v -29.3556 h 29.61195 z m 0,-34.22683 h -29.61195 v -29.35558 h 29.61195 z m 0,-34.09863 H 749.01043 V 662.2305 h 29.61195 z m 34.35504,109.34639 h -29.61199 v -36.27791 h 29.61199 z m 0,-41.02093 h -29.61199 v -29.3556 h 29.61199 z"
     style="opacity:1;fill:#231f20;stroke-width:1.2819"
     id="path180" />
  <path
     class="st2"
     d="m 1181.1401,253.43142 c -1.2819,0 -2.3074,1.02556 -2.3074,2.30747 v 19.22854 c 0,1.28191 1.0255,2.30741 2.3074,2.30741 1.2819,0 2.3074,-1.0255 2.3074,-2.30741 v -19.22854 c 0.1283,-1.28191 -0.8973,-2.30747 -2.3074,-2.30747 z"
     style="opacity:1;fill:#231f20;stroke-width:1.2819"
     id="path182" />
  <path
     class="st2"
     d="m 1198.3175,253.43142 c -1.2817,0 -2.3073,1.02556 -2.3073,2.30747 v 19.22854 c 0,1.28191 1.0256,2.30741 2.3073,2.30741 1.2821,0 2.3075,-1.0255 2.3075,-2.30741 v -19.22854 c 0.1283,-1.28191 -0.8973,-2.30747 -2.3075,-2.30747 z"
     style="opacity:1;fill:#231f20;stroke-width:1.2819"
     id="path184" />
  <path
     class="st2"
     d="m 1215.4951,253.43142 c -1.2819,0 -2.3075,1.02556 -2.3075,2.30747 v 19.22854 c 0,1.28191 1.0256,2.30741 2.3075,2.30741 1.2818,0 2.3074,-1.0255 2.3074,-2.30741 v -19.22854 c 0.1283,-1.28191 -0.8973,-2.30747 -2.3074,-2.30747 z"
     style="opacity:1;fill:#231f20;stroke-width:1.2819"
     id="path186" />
  <path
     class="st2"
     d="m 1172.5514,306.50225 c -1.282,0 -2.3075,1.02554 -2.3075,2.30742 v 19.22855 c 0,1.28192 1.0255,2.30743 2.3075,2.30743 1.2818,0 2.3075,-1.02551 2.3075,-2.30743 v -19.22855 c 0.1282,-1.28188 -0.8975,-2.30742 -2.3075,-2.30742 z"
     style="opacity:1;fill:#231f20;stroke-width:1.2819"
     id="path188" />
  <path
     class="st2"
     d="m 1189.7289,306.50225 c -1.2819,0 -2.3074,1.02554 -2.3074,2.30742 v 19.22855 c 0,1.28192 1.0255,2.30743 2.3074,2.30743 1.2818,0 2.3074,-1.02551 2.3074,-2.30743 v -19.22855 c 0.1283,-1.28188 -0.8973,-2.30742 -2.3074,-2.30742 z"
     style="opacity:1;fill:#231f20;stroke-width:1.2819"
     id="path190" />
  <path
     class="st2"
     d="m 1206.9063,306.50225 c -1.2819,0 -2.3073,1.02554 -2.3073,2.30742 v 19.22855 c 0,1.28192 1.0254,2.30743 2.3073,2.30743 1.2821,0 2.3075,-1.02551 2.3075,-2.30743 v -19.22855 c 0.1282,-1.28188 -0.8973,-2.30742 -2.3075,-2.30742 z"
     style="opacity:1;fill:#231f20;stroke-width:1.2819"
     id="path192" />
  <path
     class="st2"
     d="m 1224.0839,306.50225 c -1.282,0 -2.3074,1.02554 -2.3074,2.30742 v 19.22855 c 0,1.28192 1.0254,2.30743 2.3074,2.30743 1.2819,0 2.3074,-1.02551 2.3074,-2.30743 v -19.22855 c 0.1281,-1.28188 -0.8972,-2.30742 -2.3074,-2.30742 z"
     style="opacity:1;fill:#231f20;stroke-width:1.2819"
     id="path194" />
  <path
     class="st2"
     d="m 1172.5514,340.34452 c -1.282,0 -2.3075,1.02552 -2.3075,2.30742 v 19.22855 c 0,1.2819 1.0255,2.30744 2.3075,2.30744 1.2818,0 2.3075,-1.02554 2.3075,-2.30744 v -19.22855 c 0.1282,-1.2819 -0.8975,-2.30742 -2.3075,-2.30742 z"
     style="opacity:1;fill:#231f20;stroke-width:1.2819"
     id="path196" />
  <path
     class="st2"
     d="m 1189.7289,340.34452 c -1.2819,0 -2.3074,1.02552 -2.3074,2.30742 v 19.22855 c 0,1.2819 1.0255,2.30744 2.3074,2.30744 1.2818,0 2.3074,-1.02554 2.3074,-2.30744 v -19.22855 c 0.1283,-1.2819 -0.8973,-2.30742 -2.3074,-2.30742 z"
     style="opacity:1;fill:#231f20;stroke-width:1.2819"
     id="path198" />
  <path
     class="st2"
     d="m 1206.9063,340.34452 c -1.2819,0 -2.3073,1.02552 -2.3073,2.30742 v 19.22855 c 0,1.2819 1.0254,2.30744 2.3073,2.30744 1.2821,0 2.3075,-1.02554 2.3075,-2.30744 v -19.22855 c 0.1282,-1.2819 -0.8973,-2.30742 -2.3075,-2.30742 z"
     style="opacity:1;fill:#231f20;stroke-width:1.2819"
     id="path200" />
  <path
     class="st2"
     d="m 1224.0839,340.34452 c -1.282,0 -2.3074,1.02552 -2.3074,2.30742 v 19.22855 c 0,1.2819 1.0254,2.30744 2.3074,2.30744 1.2819,0 2.3074,-1.02554 2.3074,-2.30744 v -19.22855 c 0.1281,-1.2819 -0.8972,-2.30742 -2.3074,-2.30742 z"
     style="opacity:1;fill:#231f20;stroke-width:1.2819"
     id="path202" />
  <path
     class="st2"
     d="m 1172.5514,374.18675 c -1.282,0 -2.3075,1.02555 -2.3075,2.30743 v 19.22857 c 0,1.28191 1.0255,2.30742 2.3075,2.30742 1.2818,0 2.3075,-1.02551 2.3075,-2.30742 v -19.22857 c 0.1282,-1.15371 -0.8975,-2.30743 -2.3075,-2.30743 z"
     style="opacity:1;fill:#231f20;stroke-width:1.2819"
     id="path204" />
  <path
     class="st2"
     d="m 1189.7289,374.18675 c -1.2819,0 -2.3074,1.02555 -2.3074,2.30743 v 19.22857 c 0,1.28191 1.0255,2.30742 2.3074,2.30742 1.2818,0 2.3074,-1.02551 2.3074,-2.30742 v -19.22857 c 0.1283,-1.15371 -0.8973,-2.30743 -2.3074,-2.30743 z"
     style="opacity:1;fill:#231f20;stroke-width:1.2819"
     id="path206" />
  <path
     class="st2"
     d="m 1206.9063,374.18675 c -1.2819,0 -2.3073,1.02555 -2.3073,2.30743 v 19.22857 c 0,1.28191 1.0254,2.30742 2.3073,2.30742 1.2821,0 2.3075,-1.02551 2.3075,-2.30742 v -19.22857 c 0.1282,-1.15371 -0.8973,-2.30743 -2.3075,-2.30743 z"
     style="opacity:1;fill:#231f20;stroke-width:1.2819"
     id="path208" />
  <path
     class="st2"
     d="m 1224.0839,374.18675 c -1.282,0 -2.3074,1.02555 -2.3074,2.30743 v 19.22857 c 0,1.28191 1.0254,2.30742 2.3074,2.30742 1.2819,0 2.3074,-1.02551 2.3074,-2.30742 v -19.22857 c 0.1281,-1.15371 -0.8972,-2.30743 -2.3074,-2.30743 z"
     style="opacity:1;fill:#231f20;stroke-width:1.2819"
     id="path210" />
  <path
     class="st2"
     d="m 1172.5514,408.15722 c -1.282,0 -2.3075,1.02551 -2.3075,2.30743 v 19.22853 c 0,1.2819 1.0255,2.30743 2.3075,2.30743 1.2818,0 2.3075,-1.02553 2.3075,-2.30743 v -19.22853 c 0.1282,-1.28192 -0.8975,-2.30743 -2.3075,-2.30743 z"
     style="opacity:1;fill:#231f20;stroke-width:1.2819"
     id="path212" />
  <path
     class="st2"
     d="m 1189.7289,408.15722 c -1.2819,0 -2.3074,1.02551 -2.3074,2.30743 v 19.22853 c 0,1.2819 1.0255,2.30743 2.3074,2.30743 1.2818,0 2.3074,-1.02553 2.3074,-2.30743 v -19.22853 c 0.1283,-1.28192 -0.8973,-2.30743 -2.3074,-2.30743 z"
     style="opacity:1;fill:#231f20;stroke-width:1.2819"
     id="path214" />
  <path
     class="st2"
     d="m 1206.9063,408.15722 c -1.2819,0 -2.3073,1.02551 -2.3073,2.30743 v 19.22853 c 0,1.2819 1.0254,2.30743 2.3073,2.30743 1.2821,0 2.3075,-1.02553 2.3075,-2.30743 v -19.22853 c 0.1282,-1.28192 -0.8973,-2.30743 -2.3075,-2.30743 z"
     style="opacity:1;fill:#231f20;stroke-width:1.2819"
     id="path216" />
  <path
     class="st2"
     d="m 1224.0839,408.15722 c -1.282,0 -2.3074,1.02551 -2.3074,2.30743 v 19.22853 c 0,1.2819 1.0254,2.30743 2.3074,2.30743 1.2819,0 2.3074,-1.02553 2.3074,-2.30743 v -19.22853 c 0.1281,-1.28192 -0.8972,-2.30743 -2.3074,-2.30743 z"
     style="opacity:1;fill:#231f20;stroke-width:1.2819"
     id="path218" />
  <path
     class="st2"
     d="m 1172.5514,441.99947 c -1.282,0 -2.3075,1.02551 -2.3075,2.30742 v 19.22855 c 0,1.28188 1.0255,2.30745 2.3075,2.30745 1.2818,0 2.3075,-1.02557 2.3075,-2.30745 v -19.22855 c 0.1282,-1.1537 -0.8975,-2.30742 -2.3075,-2.30742 z"
     style="opacity:1;fill:#231f20;stroke-width:1.2819"
     id="path220" />
  <path
     class="st2"
     d="m 1189.7289,441.99947 c -1.2819,0 -2.3074,1.02551 -2.3074,2.30742 v 19.22855 c 0,1.28188 1.0255,2.30745 2.3074,2.30745 1.2818,0 2.3074,-1.02557 2.3074,-2.30745 v -19.22855 c 0.1283,-1.1537 -0.8973,-2.30742 -2.3074,-2.30742 z"
     style="opacity:1;fill:#231f20;stroke-width:1.2819"
     id="path222" />
  <path
     class="st2"
     d="m 1206.9063,441.99947 c -1.2819,0 -2.3073,1.02551 -2.3073,2.30742 v 19.22855 c 0,1.28188 1.0254,2.30745 2.3073,2.30745 1.2821,0 2.3075,-1.02557 2.3075,-2.30745 v -19.22855 c 0.1282,-1.1537 -0.8973,-2.30742 -2.3075,-2.30742 z"
     style="opacity:1;fill:#231f20;stroke-width:1.2819"
     id="path224" />
  <path
     class="st2"
     d="m 1224.0839,441.99947 c -1.282,0 -2.3074,1.02551 -2.3074,2.30742 v 19.22855 c 0,1.28188 1.0254,2.30745 2.3074,2.30745 1.2819,0 2.3074,-1.02557 2.3074,-2.30745 v -19.22855 c 0.1281,-1.1537 -0.8972,-2.30742 -2.3074,-2.30742 z"
     style="opacity:1;fill:#231f20;stroke-width:1.2819"
     id="path226" />
  <path
     class="st2"
     d="m 1172.5514,475.96989 c -1.282,0 -2.3075,1.02553 -2.3075,2.30745 v 19.22854 c 0,1.2819 1.0255,2.30742 2.3075,2.30742 1.2818,0 2.3075,-1.02552 2.3075,-2.30742 v -19.22854 c 0.1282,-1.28192 -0.8975,-2.30745 -2.3075,-2.30745 z"
     style="opacity:1;fill:#231f20;stroke-width:1.2819"
     id="path228" />
  <path
     class="st2"
     d="m 1189.7289,475.96989 c -1.2819,0 -2.3074,1.02553 -2.3074,2.30745 v 19.22854 c 0,1.2819 1.0255,2.30742 2.3074,2.30742 1.2818,0 2.3074,-1.02552 2.3074,-2.30742 v -19.22854 c 0.1283,-1.28192 -0.8973,-2.30745 -2.3074,-2.30745 z"
     style="opacity:1;fill:#231f20;stroke-width:1.2819"
     id="path230" />
  <path
     class="st2"
     d="m 1206.9063,475.96989 c -1.2819,0 -2.3073,1.02553 -2.3073,2.30745 v 19.22854 c 0,1.2819 1.0254,2.30742 2.3073,2.30742 1.2821,0 2.3075,-1.02552 2.3075,-2.30742 v -19.22854 c 0.1282,-1.28192 -0.8973,-2.30745 -2.3075,-2.30745 z"
     style="opacity:1;fill:#231f20;stroke-width:1.2819"
     id="path232" />
  <path
     class="st2"
     d="m 1224.0839,475.96989 c -1.282,0 -2.3074,1.02553 -2.3074,2.30745 v 19.22854 c 0,1.2819 1.0254,2.30742 2.3074,2.30742 1.2819,0 2.3074,-1.02552 2.3074,-2.30742 v -19.22854 c 0.1281,-1.28192 -0.8972,-2.30745 -2.3074,-2.30745 z"
     style="opacity:1;fill:#231f20;stroke-width:1.2819"
     id="path234" />
  <path
     class="st2"
     d="m 1172.5514,535.57841 c -1.282,0 -2.3075,1.02556 -2.3075,2.30746 v 19.22852 c 0,1.28189 1.0255,2.30744 2.3075,2.30744 1.2818,0 2.3075,-1.02555 2.3075,-2.30744 v -19.22852 c 0.1282,-1.15374 -0.8975,-2.30746 -2.3075,-2.30746 z"
     style="opacity:1;fill:#231f20;stroke-width:1.2819"
     id="path236" />
  <path
     class="st2"
     d="m 1189.7289,535.57841 c -1.2819,0 -2.3074,1.02556 -2.3074,2.30746 v 19.22852 c 0,1.28189 1.0255,2.30744 2.3074,2.30744 1.2818,0 2.3074,-1.02555 2.3074,-2.30744 v -19.22852 c 0.1283,-1.15374 -0.8973,-2.30746 -2.3074,-2.30746 z"
     style="opacity:1;fill:#231f20;stroke-width:1.2819"
     id="path238" />
  <path
     class="st2"
     d="m 1206.9063,535.57841 c -1.2819,0 -2.3073,1.02556 -2.3073,2.30746 v 19.22852 c 0,1.28189 1.0254,2.30744 2.3073,2.30744 1.2821,0 2.3075,-1.02555 2.3075,-2.30744 v -19.22852 c 0.1282,-1.15374 -0.8973,-2.30746 -2.3075,-2.30746 z"
     style="opacity:1;fill:#231f20;stroke-width:1.2819"
     id="path240" />
  <path
     class="st2"
     d="m 1224.0839,535.57841 c -1.282,0 -2.3074,1.02556 -2.3074,2.30746 v 19.22852 c 0,1.28189 1.0254,2.30744 2.3074,2.30744 1.2819,0 2.3074,-1.02555 2.3074,-2.30744 v -19.22852 c 0.1281,-1.15374 -0.8972,-2.30746 -2.3074,-2.30746 z"
     style="opacity:1;fill:#231f20;stroke-width:1.2819"
     id="path242" />
  <path
     class="st2"
     d="m 1241.2613,535.57841 c -1.2818,0 -2.3074,1.02556 -2.3074,2.30746 v 19.22852 c 0,1.28189 1.0256,2.30744 2.3074,2.30744 1.282,0 2.3075,-1.02555 2.3075,-2.30744 v -19.22852 c 0.1283,-1.15374 -1.0255,-2.30746 -2.3075,-2.30746 z"
     style="opacity:1;fill:#231f20;stroke-width:1.2819"
     id="path244" />
  <path
     class="st2"
     d="m 1155.5021,535.57841 c -1.282,0 -2.3074,1.02556 -2.3074,2.30746 v 19.22852 c 0,1.28189 1.0254,2.30744 2.3074,2.30744 1.2818,0 2.3074,-1.02555 2.3074,-2.30744 v -19.22852 c 0,-1.15374 -1.0256,-2.30746 -2.3074,-2.30746 z"
     style="opacity:1;fill:#231f20;stroke-width:1.2819"
     id="path246" />
  <path
     class="st2"
     d="m 1172.5514,571.08714 c -1.282,0 -2.3075,1.02553 -2.3075,2.30744 v 19.22856 c 0,1.2819 1.0255,2.30741 2.3075,2.30741 1.2818,0 2.3075,-1.02551 2.3075,-2.30741 v -19.22856 c 0.1282,-1.28191 -0.8975,-2.30744 -2.3075,-2.30744 z"
     style="opacity:1;fill:#231f20;stroke-width:1.2819"
     id="path248" />
  <path
     class="st2"
     d="m 1189.7289,571.08714 c -1.2819,0 -2.3074,1.02553 -2.3074,2.30744 v 19.22856 c 0,1.2819 1.0255,2.30741 2.3074,2.30741 1.2818,0 2.3074,-1.02551 2.3074,-2.30741 v -19.22856 c 0.1283,-1.28191 -0.8973,-2.30744 -2.3074,-2.30744 z"
     style="opacity:1;fill:#231f20;stroke-width:1.2819"
     id="path250" />
  <path
     class="st2"
     d="m 1206.9063,571.08714 c -1.2819,0 -2.3073,1.02553 -2.3073,2.30744 v 19.22856 c 0,1.2819 1.0254,2.30741 2.3073,2.30741 1.2821,0 2.3075,-1.02551 2.3075,-2.30741 v -19.22856 c 0.1282,-1.28191 -0.8973,-2.30744 -2.3075,-2.30744 z"
     style="opacity:1;fill:#231f20;stroke-width:1.2819"
     id="path252" />
  <path
     class="st2"
     d="m 1224.0839,571.08714 c -1.282,0 -2.3074,1.02553 -2.3074,2.30744 v 19.22856 c 0,1.2819 1.0254,2.30741 2.3074,2.30741 1.2819,0 2.3074,-1.02551 2.3074,-2.30741 v -19.22856 c 0.1281,-1.28191 -0.8972,-2.30744 -2.3074,-2.30744 z"
     style="opacity:1;fill:#231f20;stroke-width:1.2819"
     id="path254" />
  <path
     class="st2"
     d="m 1241.2613,571.08714 c -1.2818,0 -2.3074,1.02553 -2.3074,2.30744 v 19.22856 c 0,1.2819 1.0256,2.30741 2.3074,2.30741 1.282,0 2.3075,-1.02551 2.3075,-2.30741 v -19.22856 c 0.1283,-1.28191 -1.0255,-2.30744 -2.3075,-2.30744 z"
     style="opacity:1;fill:#231f20;stroke-width:1.2819"
     id="path256" />
  <path
     class="st2"
     d="m 1155.5021,571.08714 c -1.282,0 -2.3074,1.02553 -2.3074,2.30744 v 19.22856 c 0,1.2819 1.0254,2.30741 2.3074,2.30741 1.2818,0 2.3074,-1.02551 2.3074,-2.30741 v -19.22856 c 0,-1.28191 -1.0256,-2.30744 -2.3074,-2.30744 z"
     style="opacity:1;fill:#231f20;stroke-width:1.2819"
     id="path258" />
  <path
     class="st2"
     d="m 1172.5514,606.59587 c -1.282,0 -2.3075,1.02553 -2.3075,2.30743 v 19.22856 c 0,1.28189 1.0255,2.30742 2.3075,2.30742 1.2818,0 2.3075,-1.02553 2.3075,-2.30742 V 608.9033 c 0.1282,-1.2819 -0.8975,-2.30743 -2.3075,-2.30743 z"
     style="opacity:1;fill:#231f20;stroke-width:1.2819"
     id="path260" />
  <path
     class="st2"
     d="m 1189.7289,606.59587 c -1.2819,0 -2.3074,1.02553 -2.3074,2.30743 v 19.22856 c 0,1.28189 1.0255,2.30742 2.3074,2.30742 1.2818,0 2.3074,-1.02553 2.3074,-2.30742 V 608.9033 c 0.1283,-1.2819 -0.8973,-2.30743 -2.3074,-2.30743 z"
     style="opacity:1;fill:#231f20;stroke-width:1.2819"
     id="path262" />
  <path
     class="st2"
     d="m 1206.9063,606.59587 c -1.2819,0 -2.3073,1.02553 -2.3073,2.30743 v 19.22856 c 0,1.28189 1.0254,2.30742 2.3073,2.30742 1.2821,0 2.3075,-1.02553 2.3075,-2.30742 V 608.9033 c 0.1282,-1.2819 -0.8973,-2.30743 -2.3075,-2.30743 z"
     style="opacity:1;fill:#231f20;stroke-width:1.2819"
     id="path264" />
  <path
     class="st2"
     d="m 1224.0839,606.59587 c -1.282,0 -2.3074,1.02553 -2.3074,2.30743 v 19.22856 c 0,1.28189 1.0254,2.30742 2.3074,2.30742 1.2819,0 2.3074,-1.02553 2.3074,-2.30742 V 608.9033 c 0.1281,-1.2819 -0.8972,-2.30743 -2.3074,-2.30743 z"
     style="opacity:1;fill:#231f20;stroke-width:1.2819"
     id="path266" />
  <path
     class="st2"
     d="m 1241.2613,606.59587 c -1.2818,0 -2.3074,1.02553 -2.3074,2.30743 v 19.22856 c 0,1.28189 1.0256,2.30742 2.3074,2.30742 1.282,0 2.3075,-1.02553 2.3075,-2.30742 V 608.9033 c 0.1283,-1.2819 -1.0255,-2.30743 -2.3075,-2.30743 z"
     style="opacity:1;fill:#231f20;stroke-width:1.2819"
     id="path268" />
  <path
     class="st2"
     d="m 1155.5021,606.59587 c -1.282,0 -2.3074,1.02553 -2.3074,2.30743 v 19.22856 c 0,1.28189 1.0254,2.30742 2.3074,2.30742 1.2818,0 2.3074,-1.02553 2.3074,-2.30742 V 608.9033 c 0,-1.2819 -1.0256,-2.30743 -2.3074,-2.30743 z"
     style="opacity:1;fill:#231f20;stroke-width:1.2819"
     id="path270" />
  <path
     class="st2"
     d="m 1172.5514,642.10463 c -1.282,0 -2.3075,1.02552 -2.3075,2.30739 v 19.22856 c 0,1.28191 1.0255,2.30743 2.3075,2.30743 1.2818,0 2.3075,-1.02552 2.3075,-2.30743 v -19.22856 c 0.1282,-1.28187 -0.8975,-2.30739 -2.3075,-2.30739 z"
     style="opacity:1;fill:#231f20;stroke-width:1.2819"
     id="path272" />
  <path
     class="st2"
     d="m 1189.7289,642.10463 c -1.2819,0 -2.3074,1.02552 -2.3074,2.30739 v 19.22856 c 0,1.28191 1.0255,2.30743 2.3074,2.30743 1.2818,0 2.3074,-1.02552 2.3074,-2.30743 v -19.22856 c 0.1283,-1.28187 -0.8973,-2.30739 -2.3074,-2.30739 z"
     style="opacity:1;fill:#231f20;stroke-width:1.2819"
     id="path274" />
  <path
     class="st2"
     d="m 1206.9063,642.10463 c -1.2819,0 -2.3073,1.02552 -2.3073,2.30739 v 19.22856 c 0,1.28191 1.0254,2.30743 2.3073,2.30743 1.2821,0 2.3075,-1.02552 2.3075,-2.30743 v -19.22856 c 0.1282,-1.28187 -0.8973,-2.30739 -2.3075,-2.30739 z"
     style="opacity:1;fill:#231f20;stroke-width:1.2819"
     id="path276" />
  <path
     class="st2"
     d="m 1224.0839,642.10463 c -1.282,0 -2.3074,1.02552 -2.3074,2.30739 v 19.22856 c 0,1.28191 1.0254,2.30743 2.3074,2.30743 1.2819,0 2.3074,-1.02552 2.3074,-2.30743 v -19.22856 c 0.1281,-1.28187 -0.8972,-2.30739 -2.3074,-2.30739 z"
     style="opacity:1;fill:#231f20;stroke-width:1.2819"
     id="path278" />
  <path
     class="st2"
     d="m 1241.2613,642.10463 c -1.2818,0 -2.3074,1.02552 -2.3074,2.30739 v 19.22856 c 0,1.28191 1.0256,2.30743 2.3074,2.30743 1.282,0 2.3075,-1.02552 2.3075,-2.30743 v -19.22856 c 0.1283,-1.28187 -1.0255,-2.30739 -2.3075,-2.30739 z"
     style="opacity:1;fill:#231f20;stroke-width:1.2819"
     id="path280" />
  <path
     class="st2"
     d="m 1155.5021,642.10463 c -1.282,0 -2.3074,1.02552 -2.3074,2.30739 v 19.22856 c 0,1.28191 1.0254,2.30743 2.3074,2.30743 1.2818,0 2.3074,-1.02552 2.3074,-2.30743 v -19.22856 c 0,-1.28187 -1.0256,-2.30739 -2.3074,-2.30739 z"
     style="opacity:1;fill:#231f20;stroke-width:1.2819"
     id="path282" />
  <path
     class="st2"
     d="m 1172.5514,677.48516 c -1.282,0 -2.3075,1.02551 -2.3075,2.30741 v 19.22855 c 0,1.28189 1.0255,2.30743 2.3075,2.30743 1.2818,0 2.3075,-1.02554 2.3075,-2.30743 v -19.22855 c 0.1282,-1.15372 -0.8975,-2.30741 -2.3075,-2.30741 z"
     style="opacity:1;fill:#231f20;stroke-width:1.2819"
     id="path284" />
  <path
     class="st2"
     d="m 1189.7289,677.48516 c -1.2819,0 -2.3074,1.02551 -2.3074,2.30741 v 19.22855 c 0,1.28189 1.0255,2.30743 2.3074,2.30743 1.2818,0 2.3074,-1.02554 2.3074,-2.30743 v -19.22855 c 0.1283,-1.15372 -0.8973,-2.30741 -2.3074,-2.30741 z"
     style="opacity:1;fill:#231f20;stroke-width:1.2819"
     id="path286" />
  <path
     class="st2"
     d="m 1206.9063,677.48516 c -1.2819,0 -2.3073,1.02551 -2.3073,2.30741 v 19.22855 c 0,1.28189 1.0254,2.30743 2.3073,2.30743 1.2821,0 2.3075,-1.02554 2.3075,-2.30743 v -19.22855 c 0.1282,-1.15372 -0.8973,-2.30741 -2.3075,-2.30741 z"
     style="opacity:1;fill:#231f20;stroke-width:1.2819"
     id="path288" />
  <path
     class="st2"
     d="m 1224.0839,677.48516 c -1.282,0 -2.3074,1.02551 -2.3074,2.30741 v 19.22855 c 0,1.28189 1.0254,2.30743 2.3074,2.30743 1.2819,0 2.3074,-1.02554 2.3074,-2.30743 v -19.22855 c 0.1281,-1.15372 -0.8972,-2.30741 -2.3074,-2.30741 z"
     style="opacity:1;fill:#231f20;stroke-width:1.2819"
     id="path290" />
  <path
     class="st2"
     d="m 1241.2613,677.48516 c -1.2818,0 -2.3074,1.02551 -2.3074,2.30741 v 19.22855 c 0,1.28189 1.0256,2.30743 2.3074,2.30743 1.282,0 2.3075,-1.02554 2.3075,-2.30743 v -19.22855 c 0.1283,-1.15372 -1.0255,-2.30741 -2.3075,-2.30741 z"
     style="opacity:1;fill:#231f20;stroke-width:1.2819"
     id="path292" />
  <path
     class="st2"
     d="m 1155.5021,677.48516 c -1.282,0 -2.3074,1.02551 -2.3074,2.30741 v 19.22855 c 0,1.28189 1.0254,2.30743 2.3074,2.30743 1.2818,0 2.3074,-1.02554 2.3074,-2.30743 v -19.22855 c 0,-1.15372 -1.0256,-2.30741 -2.3074,-2.30741 z"
     style="opacity:1;fill:#231f20;stroke-width:1.2819"
     id="path294" />
  <path
     class="st2"
     d="m 1172.5514,712.99386 c -1.282,0 -2.3075,1.02552 -2.3075,2.30745 v 19.22855 c 0,1.2819 1.0255,2.30742 2.3075,2.30742 1.2818,0 2.3075,-1.02552 2.3075,-2.30742 v -19.22855 c 0.1282,-1.28193 -0.8975,-2.30745 -2.3075,-2.30745 z"
     style="opacity:1;fill:#231f20;stroke-width:1.2819"
     id="path296" />
  <path
     class="st2"
     d="m 1189.7289,712.99386 c -1.2819,0 -2.3074,1.02552 -2.3074,2.30745 v 19.22855 c 0,1.2819 1.0255,2.30742 2.3074,2.30742 1.2818,0 2.3074,-1.02552 2.3074,-2.30742 v -19.22855 c 0.1283,-1.28193 -0.8973,-2.30745 -2.3074,-2.30745 z"
     style="opacity:1;fill:#231f20;stroke-width:1.2819"
     id="path298" />
  <path
     class="st2"
     d="m 1206.9063,712.99386 c -1.2819,0 -2.3073,1.02552 -2.3073,2.30745 v 19.22855 c 0,1.2819 1.0254,2.30742 2.3073,2.30742 1.2821,0 2.3075,-1.02552 2.3075,-2.30742 v -19.22855 c 0.1282,-1.28193 -0.8973,-2.30745 -2.3075,-2.30745 z"
     style="opacity:1;fill:#231f20;stroke-width:1.2819"
     id="path300" />
  <path
     class="st2"
     d="m 1224.0839,712.99386 c -1.282,0 -2.3074,1.02552 -2.3074,2.30745 v 19.22855 c 0,1.2819 1.0254,2.30742 2.3074,2.30742 1.2819,0 2.3074,-1.02552 2.3074,-2.30742 v -19.22855 c 0.1281,-1.28193 -0.8972,-2.30745 -2.3074,-2.30745 z"
     style="opacity:1;fill:#231f20;stroke-width:1.2819"
     id="path302" />
  <path
     class="st2"
     d="m 1241.2613,712.99386 c -1.2818,0 -2.3074,1.02552 -2.3074,2.30745 v 19.22855 c 0,1.2819 1.0256,2.30742 2.3074,2.30742 1.282,0 2.3075,-1.02552 2.3075,-2.30742 v -19.22855 c 0.1283,-1.28193 -1.0255,-2.30745 -2.3075,-2.30745 z"
     style="opacity:1;fill:#231f20;stroke-width:1.2819"
     id="path304" />
  <path
     class="st2"
     d="m 1155.5021,712.99386 c -1.282,0 -2.3074,1.02552 -2.3074,2.30745 v 19.22855 c 0,1.2819 1.0254,2.30742 2.3074,2.30742 1.2818,0 2.3074,-1.02552 2.3074,-2.30742 v -19.22855 c 0,-1.28193 -1.0256,-2.30745 -2.3074,-2.30745 z"
     style="opacity:1;fill:#231f20;stroke-width:1.2819"
     id="path306" />
  <path
     class="st2"
     d="m 1172.5514,789.26714 c 1.2818,0 2.3075,-1.02552 2.3075,-2.30744 v -19.22856 c 0,-1.2819 -1.0257,-2.30742 -2.3075,-2.30742 -1.282,0 -2.3075,1.02552 -2.3075,2.30742 v 19.22856 c 0,1.1537 1.0255,2.30744 2.3075,2.30744 z"
     style="opacity:1;fill:#231f20;stroke-width:1.2819"
     id="path308" />
  <path
     class="st2"
     d="m 1224.0839,789.26714 c 1.2819,0 2.3074,-1.02552 2.3074,-2.30744 v -19.22856 c 0,-1.2819 -1.0255,-2.30742 -2.3074,-2.30742 -1.282,0 -2.3074,1.02552 -2.3074,2.30742 v 19.22856 c 0,1.1537 1.0254,2.30744 2.3074,2.30744 z"
     style="opacity:1;fill:#231f20;stroke-width:1.2819"
     id="path310" />
  <path
     class="st2"
     d="m 1241.2613,789.26714 c 1.282,0 2.3075,-1.02552 2.3075,-2.30744 v -19.22856 c 0,-1.2819 -1.0255,-2.30742 -2.3075,-2.30742 -1.2818,0 -2.3074,1.02552 -2.3074,2.30742 v 19.22856 c 0,1.1537 1.0256,2.30744 2.3074,2.30744 z"
     style="opacity:1;fill:#231f20;stroke-width:1.2819"
     id="path312" />
  <path
     class="st2"
     d="m 1155.5021,789.26714 c 1.2818,0 2.3074,-1.02552 2.3074,-2.30744 v -19.22856 c 0,-1.2819 -1.0256,-2.30742 -2.3074,-2.30742 -1.282,0 -2.3074,1.02552 -2.3074,2.30742 v 19.22856 c -0.1284,1.1537 0.8973,2.30744 2.3074,2.30744 z"
     style="opacity:1;fill:#231f20;stroke-width:1.2819"
     id="path314" />
  <g
     id="g322"
     transform="matrix(1.2819036,0,0,1.2819036,-127.17066,-129.47315)">
    <path
       class="st2"
       d="m 414.5,224 c -1,0 -1.8,-0.8 -1.8,-1.8 v -79.9 c 0,-1 0.8,-1.8 1.8,-1.8 1,0 1.8,0.8 1.8,1.8 v 79.9 c 0.1,1 -0.7,1.8 -1.8,1.8 z"
       style="fill:#231f20"
       id="path320" />
  </g>
  <g
     id="g330"
     transform="matrix(1.2819036,0,0,1.2819036,-127.17066,-129.47315)">
    <path
       class="st2"
       d="m 399.5,226.4 c -0.8,0 -1.5,-0.5 -1.8,-1.3 l -3.9,-12.2 c -0.3,-1 0.2,-2 1.2,-2.3 1,-0.3 2,0.2 2.3,1.2 l 3.9,12.2 c 0.3,1 -0.2,2 -1.2,2.3 -0.1,0.1 -0.3,0.1 -0.5,0.1 z"
       style="fill:#231f20"
       id="path328" />
  </g>
  <g
     id="g338"
     transform="matrix(1.2819036,0,0,1.2819036,-127.17066,-129.47315)">
    <path
       class="st2"
       d="m 385.9,233.3 c -0.6,0 -1.1,-0.3 -1.5,-0.8 l -7.5,-10.3 c -0.6,-0.8 -0.4,-2 0.4,-2.6 0.8,-0.6 2,-0.4 2.6,0.4 l 7.5,10.3 c 0.6,0.8 0.4,2 -0.4,2.6 -0.3,0.3 -0.7,0.4 -1.1,0.4 z"
       style="fill:#231f20"
       id="path336" />
  </g>
  <g
     id="g342"
     transform="matrix(1.2819036,0,0,1.2819036,-127.17066,-129.47315)">
    <path
       class="st2"
       d="m 372.4,214.8 c -0.6,0 -1.1,-0.3 -1.5,-0.8 l -7.5,-10.3 c -0.6,-0.8 -0.4,-2 0.4,-2.6 0.8,-0.6 2,-0.4 2.6,0.4 l 7.5,10.3 c 0.6,0.8 0.4,2 -0.4,2.6 -0.3,0.3 -0.7,0.4 -1.1,0.4 z"
       style="fill:#231f20"
       id="path340" />
  </g>
  <g
     id="g346"
     transform="matrix(1.2819036,0,0,1.2819036,-127.17066,-129.47315)">
    <path
       class="st2"
       d="m 359,196.2 c -0.6,0 -1.1,-0.3 -1.5,-0.8 L 350,185.1 c -0.6,-0.8 -0.4,-2 0.4,-2.6 0.8,-0.6 2,-0.4 2.6,0.4 l 7.5,10.3 c 0.6,0.8 0.4,2 -0.4,2.6 -0.4,0.3 -0.8,0.4 -1.1,0.4 z"
       style="fill:#231f20"
       id="path344" />
  </g>
  <g
     id="g354"
     transform="matrix(1.2819036,0,0,1.2819036,-127.17066,-129.47315)">
    <path
       class="st2"
       d="m 375.1,244.1 c -0.4,0 -0.8,-0.1 -1.1,-0.4 l -10.3,-7.5 c -0.8,-0.6 -1,-1.8 -0.4,-2.6 0.6,-0.8 1.8,-1 2.6,-0.4 l 10.3,7.5 c 0.8,0.6 1,1.8 0.4,2.6 -0.3,0.6 -0.9,0.8 -1.5,0.8 z"
       style="fill:#231f20"
       id="path352" />
  </g>
  <g
     id="g362"
     transform="matrix(1.2819036,0,0,1.2819036,-127.17066,-129.47315)">
    <path
       class="st2"
       d="m 368.2,257.7 c -0.2,0 -0.4,0 -0.6,-0.1 l -12.2,-4 c -1,-0.3 -1.5,-1.4 -1.2,-2.3 0.3,-1 1.3,-1.5 2.3,-1.2 l 12.2,4 c 1,0.3 1.5,1.4 1.2,2.3 -0.2,0.8 -0.9,1.3 -1.7,1.3 z"
       style="fill:#231f20"
       id="path360" />
  </g>
  <g
     id="g366"
     transform="matrix(1.2819036,0,0,1.2819036,-127.17066,-129.47315)">
    <path
       class="st2"
       d="m 346.4,250.6 c -0.2,0 -0.4,0 -0.6,-0.1 l -12.2,-3.9 c -1,-0.3 -1.5,-1.4 -1.2,-2.3 0.3,-1 1.4,-1.5 2.3,-1.2 L 347,247 c 1,0.3 1.5,1.4 1.2,2.3 -0.3,0.8 -1,1.3 -1.8,1.3 z"
       style="fill:#231f20"
       id="path364" />
  </g>
  <g
     id="g370"
     transform="matrix(1.2819036,0,0,1.2819036,-127.17066,-129.47315)">
    <path
       class="st2"
       d="m 324.6,243.5 c -0.2,0 -0.4,0 -0.6,-0.1 l -12.2,-4 c -1,-0.3 -1.5,-1.4 -1.2,-2.3 0.3,-1 1.4,-1.5 2.3,-1.2 l 12.2,4 c 1,0.3 1.5,1.4 1.2,2.3 -0.2,0.8 -0.9,1.3 -1.7,1.3 z"
       style="fill:#231f20"
       id="path368" />
  </g>
  <g
     id="g378"
     transform="matrix(1.2819036,0,0,1.2819036,-127.17066,-129.47315)">
    <path
       class="st2"
       d="m 365.8,272.8 v 0 h -79.9 c -1,0 -1.8,-0.8 -1.8,-1.8 0,-1 0.8,-1.8 1.8,-1.8 v 0 h 79.9 c 1,0 1.8,0.8 1.8,1.8 0.1,0.9 -0.8,1.8 -1.8,1.8 z"
       style="fill:#231f20"
       id="path376" />
  </g>
  <g
     id="g386"
     transform="matrix(1.2819036,0,0,1.2819036,-127.17066,-129.47315)">
    <path
       class="st2"
       d="m 356,291.8 c -0.8,0 -1.5,-0.5 -1.8,-1.3 -0.3,-1 0.2,-2 1.2,-2.3 l 12.2,-3.9 c 1,-0.3 2,0.2 2.3,1.2 0.3,1 -0.2,2 -1.2,2.3 l -12.2,3.9 c -0.1,0 -0.3,0.1 -0.5,0.1 z"
       style="fill:#231f20"
       id="path384" />
  </g>
  <g
     id="g394"
     transform="matrix(1.2819036,0,0,1.2819036,-127.17066,-129.47315)">
    <path
       class="st2"
       d="m 364.8,308.9 c -0.6,0 -1.1,-0.3 -1.5,-0.8 -0.6,-0.8 -0.4,-2 0.4,-2.6 L 374,298 c 0.8,-0.6 2,-0.4 2.6,0.4 0.6,0.8 0.4,2 -0.4,2.6 l -10.3,7.5 c -0.4,0.3 -0.7,0.4 -1.1,0.4 z"
       style="fill:#231f20"
       id="path392" />
  </g>
  <g
     id="g398"
     transform="matrix(1.2819036,0,0,1.2819036,-127.17066,-129.47315)">
    <path
       class="st2"
       d="m 346.3,322.4 c -0.6,0 -1.1,-0.3 -1.5,-0.8 -0.6,-0.8 -0.4,-2 0.4,-2.6 l 10.3,-7.5 c 0.8,-0.6 2,-0.4 2.6,0.4 0.6,0.8 0.4,2 -0.4,2.6 l -10.3,7.5 c -0.4,0.3 -0.8,0.4 -1.1,0.4 z"
       style="fill:#231f20"
       id="path396" />
  </g>
  <g
     id="g402"
     transform="matrix(1.2819036,0,0,1.2819036,-127.17066,-129.47315)">
    <path
       class="st2"
       d="m 327.7,335.8 c -0.6,0 -1.1,-0.3 -1.5,-0.8 -0.6,-0.8 -0.4,-2 0.4,-2.6 L 337,325 c 0.8,-0.6 2,-0.4 2.6,0.4 0.6,0.8 0.4,2 -0.4,2.6 l -10.4,7.5 c -0.3,0.2 -0.7,0.3 -1.1,0.3 z"
       style="fill:#231f20"
       id="path400" />
  </g>
  <g
     id="g410"
     transform="matrix(1.2819036,0,0,1.2819036,-127.17066,-129.47315)">
    <path
       class="st2"
       d="m 378.4,322.5 c -0.4,0 -0.8,-0.1 -1.1,-0.4 -0.8,-0.6 -1,-1.8 -0.4,-2.6 l 7.5,-10.3 c 0.6,-0.8 1.8,-1 2.6,-0.4 0.8,0.6 1,1.8 0.4,2.6 l -7.5,10.3 c -0.4,0.5 -0.9,0.8 -1.5,0.8 z"
       style="fill:#231f20"
       id="path408" />
  </g>
  <g
     id="g418"
     transform="matrix(1.2819036,0,0,1.2819036,-127.17066,-129.47315)">
    <path
       class="st2"
       d="m 395.5,331.2 c -0.2,0 -0.4,0 -0.6,-0.1 -1,-0.3 -1.5,-1.4 -1.2,-2.3 l 4,-12.2 c 0.3,-1 1.4,-1.5 2.3,-1.2 1,0.3 1.5,1.4 1.2,2.3 l -4,12.2 c -0.2,0.8 -0.9,1.3 -1.7,1.3 z"
       style="fill:#231f20"
       id="path416" />
  </g>
  <g
     id="g422"
     transform="matrix(1.2819036,0,0,1.2819036,-127.17066,-129.47315)">
    <path
       class="st2"
       d="m 388.5,353 c -0.2,0 -0.4,0 -0.6,-0.1 -1,-0.3 -1.5,-1.4 -1.2,-2.3 l 3.9,-12.2 c 0.3,-1 1.4,-1.5 2.3,-1.2 1,0.3 1.5,1.4 1.2,2.3 l -3.9,12.2 c -0.2,0.8 -1,1.3 -1.7,1.3 z"
       style="fill:#231f20"
       id="path420" />
  </g>
  <g
     id="g426"
     transform="matrix(1.2819036,0,0,1.2819036,-127.17066,-129.47315)">
    <path
       class="st2"
       d="m 381.4,374.8 c -0.2,0 -0.4,0 -0.6,-0.1 -1,-0.3 -1.5,-1.4 -1.2,-2.3 l 4,-12.2 c 0.3,-1 1.4,-1.5 2.3,-1.2 1,0.3 1.5,1.4 1.2,2.3 l -4,12.2 c -0.2,0.8 -0.9,1.3 -1.7,1.3 z"
       style="fill:#231f20"
       id="path424" />
  </g>
  <g
     id="g434"
     transform="matrix(1.2819036,0,0,1.2819036,-127.17066,-129.47315)">
    <path
       class="st2"
       d="m 414.5,401.4 c -1,0 -1.8,-0.8 -1.8,-1.8 v -79.9 c 0,-1 0.8,-1.8 1.8,-1.8 1,0 1.8,0.8 1.8,1.8 v 79.9 c 0.1,0.9 -0.7,1.8 -1.8,1.8 z"
       style="fill:#231f20"
       id="path432" />
  </g>
  <g
     id="g442"
     transform="matrix(1.2819036,0,0,1.2819036,-127.17066,-129.47315)">
    <path
       class="st2"
       d="m 433.6,331.2 c -0.8,0 -1.5,-0.5 -1.8,-1.3 l -3.9,-12.1 c -0.3,-1 0.2,-2 1.2,-2.3 1,-0.3 2,0.2 2.3,1.2 l 3.9,12.1 c 0.3,1 -0.2,2 -1.2,2.3 -0.2,0.1 -0.4,0.1 -0.5,0.1 z"
       style="fill:#231f20"
       id="path440" />
  </g>
  <g
     id="g450"
     transform="matrix(1.2819036,0,0,1.2819036,-127.17066,-129.47315)">
    <path
       class="st2"
       d="m 450.7,322.5 c -0.6,0 -1.1,-0.3 -1.5,-0.8 l -7.5,-10.3 c -0.6,-0.8 -0.4,-2 0.4,-2.6 0.8,-0.6 2,-0.4 2.6,0.4 l 7.5,10.3 c 0.6,0.8 0.4,2 -0.4,2.6 -0.3,0.3 -0.7,0.4 -1.1,0.4 z"
       style="fill:#231f20"
       id="path448" />
  </g>
  <g
     id="g454"
     transform="matrix(1.2819036,0,0,1.2819036,-127.17066,-129.47315)">
    <path
       class="st2"
       d="m 464.2,341 c -0.6,0 -1.1,-0.3 -1.5,-0.8 l -7.5,-10.3 c -0.6,-0.8 -0.4,-2 0.4,-2.6 0.8,-0.6 2,-0.4 2.6,0.4 l 7.5,10.3 c 0.6,0.8 0.4,2 -0.4,2.6 -0.4,0.3 -0.7,0.4 -1.1,0.4 z"
       style="fill:#231f20"
       id="path452" />
  </g>
  <g
     id="g458"
     transform="matrix(1.2819036,0,0,1.2819036,-127.17066,-129.47315)">
    <path
       class="st2"
       d="m 477.7,359.6 c -0.6,0 -1.1,-0.3 -1.5,-0.8 l -7.5,-10.4 c -0.6,-0.8 -0.4,-2 0.4,-2.6 0.8,-0.6 2,-0.4 2.6,0.4 l 7.5,10.4 c 0.6,0.8 0.4,2 -0.4,2.6 -0.4,0.3 -0.8,0.4 -1.1,0.4 z"
       style="fill:#231f20"
       id="path456" />
  </g>
  <g
     id="g466"
     transform="matrix(1.2819036,0,0,1.2819036,-127.17066,-129.47315)">
    <path
       class="st2"
       d="m 464.3,308.9 c -0.4,0 -0.8,-0.1 -1.1,-0.4 L 452.9,301 c -0.8,-0.6 -1,-1.8 -0.4,-2.6 0.6,-0.8 1.8,-1 2.6,-0.4 l 10.3,7.5 c 0.8,0.6 1,1.8 0.4,2.6 -0.4,0.5 -0.9,0.8 -1.5,0.8 z"
       style="fill:#231f20"
       id="path464" />
  </g>
  <g
     id="g474"
     transform="matrix(1.2819036,0,0,1.2819036,-127.17066,-129.47315)">
    <path
       class="st2"
       d="m 473,291.8 c -0.2,0 -0.4,0 -0.6,-0.1 l -12.2,-4 c -1,-0.3 -1.5,-1.4 -1.2,-2.3 0.3,-1 1.4,-1.5 2.3,-1.2 l 12.2,4 c 1,0.3 1.5,1.4 1.2,2.3 -0.2,0.8 -0.9,1.3 -1.7,1.3 z"
       style="fill:#231f20"
       id="path472" />
  </g>
  <g
     id="g478"
     transform="matrix(1.2819036,0,0,1.2819036,-127.17066,-129.47315)">
    <path
       class="st2"
       d="m 494.8,298.8 c -0.2,0 -0.4,0 -0.6,-0.1 L 482,294.8 c -1,-0.3 -1.5,-1.4 -1.2,-2.3 0.3,-1 1.3,-1.5 2.3,-1.2 l 12.2,3.9 c 1,0.3 1.5,1.4 1.2,2.3 -0.2,0.8 -0.9,1.3 -1.7,1.3 z"
       style="fill:#231f20"
       id="path476" />
  </g>
  <g
     id="g482"
     transform="matrix(1.2819036,0,0,1.2819036,-127.17066,-129.47315)">
    <path
       class="st2"
       d="m 516.6,305.9 c -0.2,0 -0.4,0 -0.6,-0.1 l -12.2,-4 c -1,-0.3 -1.5,-1.4 -1.2,-2.3 0.3,-1 1.4,-1.5 2.3,-1.2 l 12.2,4 c 1,0.3 1.5,1.4 1.2,2.3 -0.2,0.8 -0.9,1.3 -1.7,1.3 z"
       style="fill:#231f20"
       id="path480" />
  </g>
  <g
     id="g490"
     transform="matrix(1.2819036,0,0,1.2819036,-127.17066,-129.47315)">
    <path
       class="st2"
       d="m 543.2,272.8 v 0 h -79.9 c -1,0 -1.8,-0.8 -1.8,-1.8 0,-1 0.8,-1.8 1.8,-1.8 v 0 h 79.9 c 1,0 1.8,0.8 1.8,1.8 0,0.9 -0.8,1.8 -1.8,1.8 z"
       style="fill:#231f20"
       id="path488" />
  </g>
  <g
     id="g498"
     transform="matrix(1.2819036,0,0,1.2819036,-127.17066,-129.47315)">
    <path
       class="st2"
       d="m 460.9,257.7 c -0.8,0 -1.5,-0.5 -1.8,-1.3 -0.3,-1 0.2,-2 1.2,-2.3 l 12.1,-3.9 c 1,-0.3 2,0.2 2.3,1.2 0.3,1 -0.2,2 -1.2,2.3 l -12.1,3.9 c -0.1,0.1 -0.3,0.1 -0.5,0.1 z"
       style="fill:#231f20"
       id="path496" />
  </g>
  <g
     id="g506"
     transform="matrix(1.2819036,0,0,1.2819036,-127.17066,-129.47315)">
    <path
       class="st2"
       d="m 454,244.1 c -0.6,0 -1.1,-0.3 -1.5,-0.8 -0.6,-0.8 -0.4,-2 0.4,-2.6 l 10.3,-7.5 c 0.8,-0.6 2,-0.4 2.6,0.4 0.6,0.8 0.4,2 -0.4,2.6 l -10.3,7.5 c -0.4,0.3 -0.8,0.4 -1.1,0.4 z"
       style="fill:#231f20"
       id="path504" />
  </g>
  <g
     id="g510"
     transform="matrix(1.2819036,0,0,1.2819036,-127.17066,-129.47315)">
    <path
       class="st2"
       d="m 472.5,230.6 c -0.6,0 -1.1,-0.3 -1.5,-0.8 -0.6,-0.8 -0.4,-2 0.4,-2.6 l 10.3,-7.5 c 0.8,-0.6 2,-0.4 2.6,0.4 0.6,0.8 0.4,2 -0.4,2.6 l -10.3,7.5 c -0.3,0.3 -0.7,0.4 -1.1,0.4 z"
       style="fill:#231f20"
       id="path508" />
  </g>
  <g
     id="g514"
     transform="matrix(1.2819036,0,0,1.2819036,-127.17066,-129.47315)">
    <path
       class="st2"
       d="m 491,217.2 c -0.6,0 -1.1,-0.3 -1.5,-0.8 -0.6,-0.8 -0.4,-2 0.4,-2.6 l 10.4,-7.5 c 0.8,-0.6 2,-0.4 2.6,0.4 0.6,0.8 0.4,2 -0.4,2.6 l -10.4,7.5 c -0.3,0.2 -0.7,0.4 -1.1,0.4 z"
       style="fill:#231f20"
       id="path512" />
  </g>
  <g
     id="g518"
     transform="matrix(1.2819036,0,0,1.2819036,-127.17066,-129.47315)">
    <path
       class="st2"
       d="m 443.2,233.3 c -0.4,0 -0.8,-0.1 -1.1,-0.4 -0.8,-0.6 -1,-1.8 -0.4,-2.6 l 7.5,-10.3 c 0.6,-0.8 1.8,-1 2.6,-0.4 0.8,0.6 1,1.8 0.4,2.6 l -7.5,10.3 c -0.4,0.6 -0.9,0.8 -1.5,0.8 z"
       style="fill:#231f20"
       id="path516" />
  </g>
  <g
     id="g522"
     transform="matrix(1.2819036,0,0,1.2819036,-127.17066,-129.47315)">
    <path
       class="st2"
       d="m 429.6,226.4 c -0.2,0 -0.4,0 -0.6,-0.1 -1,-0.3 -1.5,-1.4 -1.2,-2.3 l 3.9,-12.1 c 0.3,-1 1.4,-1.5 2.3,-1.2 1,0.3 1.5,1.4 1.2,2.3 l -3.9,12.1 c -0.2,0.8 -0.9,1.3 -1.7,1.3 z"
       style="fill:#231f20"
       id="path520" />
  </g>
  <g
     id="g526"
     transform="matrix(1.2819036,0,0,1.2819036,-127.17066,-129.47315)">
    <path
       class="st2"
       d="m 436.7,204.6 c -0.2,0 -0.4,0 -0.6,-0.1 -1,-0.3 -1.5,-1.4 -1.2,-2.3 l 3.9,-12.1 c 0.3,-1 1.3,-1.5 2.3,-1.2 1,0.3 1.5,1.4 1.2,2.3 l -3.9,12.1 c -0.2,0.8 -0.9,1.3 -1.7,1.3 z"
       style="fill:#231f20"
       id="path524" />
  </g>
  <g
     id="g530"
     transform="matrix(1.2819036,0,0,1.2819036,-127.17066,-129.47315)">
    <path
       class="st2"
       d="m 443.8,182.8 c -0.2,0 -0.4,0 -0.6,-0.1 -1,-0.3 -1.5,-1.4 -1.2,-2.3 l 4,-12.2 c 0.3,-1 1.3,-1.5 2.3,-1.2 1,0.3 1.5,1.4 1.2,2.3 l -4,12.2 c -0.2,0.8 -1,1.3 -1.7,1.3 z"
       style="fill:#231f20"
       id="path528" />
  </g>
  <g
     id="g534"
     transform="matrix(1.2819036,0,0,1.2819036,-127.17066,-129.47315)">
    <path
       class="st2"
       d="m 350,805.8 h -96.1 c -1,0 -1.8,-0.8 -1.8,-1.8 0,-1 0.8,-1.8 1.8,-1.8 H 350 c 1,0 1.8,0.8 1.8,1.8 0,0.9 -0.8,1.8 -1.8,1.8 z"
       style="fill:#231f20"
       id="path532" />
  </g>
  <g
     id="g538"
     transform="matrix(1.2819036,0,0,1.2819036,-127.17066,-129.47315)">
    <path
       class="st2"
       d="m 379.5,825.2 h -70.2 c -1,0 -1.8,-0.8 -1.8,-1.8 0,-1 0.8,-1.8 1.8,-1.8 h 70.2 c 1,0 1.8,0.8 1.8,1.8 0.1,0.9 -0.8,1.8 -1.8,1.8 z"
       style="fill:#231f20"
       id="path536" />
  </g>
  <g
     id="g542"
     transform="matrix(1.2819036,0,0,1.2819036,-127.17066,-129.47315)">
    <path
       class="st2"
       d="m 778.6,909.2 h -90.5 c -1,0 -1.8,-0.8 -1.8,-1.8 0,-1 0.8,-1.8 1.8,-1.8 h 90.5 c 1,0 1.8,0.8 1.8,1.8 0.1,1 -0.8,1.8 -1.8,1.8 z"
       style="fill:#231f20"
       id="path540" />
  </g>
  <g
     id="g546"
     transform="matrix(1.2819036,0,0,1.2819036,-127.17066,-129.47315)">
    <path
       class="st2"
       d="M 846.1,779.9 H 745.4 c -1,0 -1.8,-0.8 -1.8,-1.8 0,-1 0.8,-1.8 1.8,-1.8 h 100.7 c 1,0 1.8,0.8 1.8,1.8 0,1 -0.8,1.8 -1.8,1.8 z"
       style="fill:#231f20"
       id="path544" />
  </g>
  <g
     id="g550"
     transform="matrix(1.2819036,0,0,1.2819036,-127.17066,-129.47315)">
    <path
       class="st2"
       d="m 973.6,805.8 h -56.4 c -1,0 -1.8,-0.8 -1.8,-1.8 0,-1 0.8,-1.8 1.8,-1.8 h 56.4 c 1,0 1.8,0.8 1.8,1.8 0,0.9 -0.8,1.8 -1.8,1.8 z"
       style="fill:#231f20"
       id="path548" />
  </g>
  <g
     id="g554"
     transform="matrix(1.2819036,0,0,1.2819036,-127.17066,-129.47315)">
    <path
       class="st2"
       d="m 1167.6,831.6 h -117.3 c -1,0 -1.8,-0.8 -1.8,-1.8 0,-1 0.8,-1.8 1.8,-1.8 h 117.3 c 1,0 1.8,0.8 1.8,1.8 0,1 -0.8,1.8 -1.8,1.8 z"
       style="fill:#231f20"
       id="path552" />
  </g>
  <g
     id="g558"
     transform="matrix(1.2819036,0,0,1.2819036,-127.17066,-129.47315)">
    <path
       class="st2"
       d="m 1246.4,498.2 h -77.8 c -1,0 -1.8,-0.8 -1.8,-1.8 0,-1 0.8,-1.8 1.8,-1.8 h 77.8 c 1,0 1.8,0.8 1.8,1.8 0,1 -0.8,1.8 -1.8,1.8 z"
       style="fill:#231f20"
       id="path556" />
  </g>
  <g
     id="g562"
     transform="matrix(1.2819036,0,0,1.2819036,-127.17066,-129.47315)">
    <path
       class="st2"
       d="m 681.2,885.8 c 0,-2.1 1.7,-3.7 3.7,-3.7 v 0 c 2,0 3.7,1.6 3.7,3.7 v 0 c 0,2 -1.7,3.7 -3.7,3.7 v 0 c -2,0 -3.7,-1.6 -3.7,-3.7 z m -14.8,0 c 0,-2.1 1.7,-3.7 3.7,-3.7 v 0 c 2.1,0 3.7,1.6 3.7,3.7 v 0 c 0,2 -1.6,3.7 -3.7,3.7 v 0 c -2,0 -3.7,-1.6 -3.7,-3.7 z m -14.8,0 c 0,-2.1 1.7,-3.7 3.7,-3.7 v 0 c 2,0 3.7,1.6 3.7,3.7 v 0 c 0,2 -1.7,3.7 -3.7,3.7 v 0 c -2,0 -3.7,-1.6 -3.7,-3.7 z m -14.7,0 c 0,-2.1 1.7,-3.7 3.7,-3.7 v 0 c 2,0 3.7,1.6 3.7,3.7 v 0 c 0,2 -1.7,3.7 -3.7,3.7 v 0 c -2.1,0 -3.7,-1.6 -3.7,-3.7 z m -14.8,0 c 0,-2.1 1.7,-3.7 3.7,-3.7 v 0 c 2.1,0 3.7,1.6 3.7,3.7 v 0 c 0,2 -1.6,3.7 -3.7,3.7 v 0 c -2.1,0 -3.7,-1.6 -3.7,-3.7 z"
       style="fill:#231f20"
       id="path560" />
  </g>
  <g
     id="g566"
     transform="matrix(1.2819036,0,0,1.2819036,-127.17066,-129.47315)">
    <path
       class="st2"
       d="m 646,174.9 c 0,-2.1 1.6,-3.7 3.7,-3.7 v 0 c 2,0 3.7,1.7 3.7,3.7 v 0 c 0,2 -1.7,3.7 -3.7,3.7 v 0 c -2.1,0 -3.7,-1.7 -3.7,-3.7 z m -14.8,0 c 0,-2.1 1.6,-3.7 3.7,-3.7 v 0 c 2,0 3.7,1.7 3.7,3.7 v 0 c 0,2 -1.7,3.7 -3.7,3.7 v 0 c -2.1,0 -3.7,-1.7 -3.7,-3.7 z m -14.8,0 c 0,-2.1 1.7,-3.7 3.7,-3.7 v 0 c 2,0 3.7,1.7 3.7,3.7 v 0 c 0,2 -1.7,3.7 -3.7,3.7 v 0 c -2,0 -3.7,-1.7 -3.7,-3.7 z m -14.8,0 c 0,-2.1 1.6,-3.7 3.7,-3.7 v 0 c 2,0 3.7,1.7 3.7,3.7 v 0 c 0,2 -1.7,3.7 -3.7,3.7 v 0 c -2.1,0 -3.7,-1.7 -3.7,-3.7 z m -14.8,0 c 0,-2.1 1.6,-3.7 3.7,-3.7 v 0 c 2,0 3.7,1.7 3.7,3.7 v 0 c 0,2 -1.7,3.7 -3.7,3.7 v 0 c -2,0 -3.7,-1.7 -3.7,-3.7 z"
       style="fill:#231f20"
       id="path564" />
  </g>
  <g
     id="g570"
     transform="matrix(1.2819036,0,0,1.2819036,-127.17066,-129.47315)">
    <path
       class="st2"
       d="m 1227.6,270.9 c 0,-2 1.7,-3.7 3.7,-3.7 v 0 c 2,0 3.7,1.7 3.7,3.7 v 0 c 0,2 -1.7,3.7 -3.7,3.7 v 0 c -2,0 -3.7,-1.7 -3.7,-3.7 z m -14.8,0 c 0,-2 1.7,-3.7 3.7,-3.7 v 0 c 2,0 3.7,1.7 3.7,3.7 v 0 c 0,2 -1.7,3.7 -3.7,3.7 v 0 c -2,0 -3.7,-1.7 -3.7,-3.7 z m -14.7,0 c 0,-2 1.7,-3.7 3.7,-3.7 v 0 c 2.1,0 3.7,1.7 3.7,3.7 v 0 c 0,2 -1.6,3.7 -3.7,3.7 v 0 c -2.1,0 -3.7,-1.7 -3.7,-3.7 z m -14.8,0 c 0,-2 1.7,-3.7 3.7,-3.7 v 0 c 2.1,0 3.7,1.7 3.7,3.7 v 0 c 0,2 -1.6,3.7 -3.7,3.7 v 0 c -2.1,0 -3.7,-1.7 -3.7,-3.7 z m -14.8,0 c 0,-2 1.7,-3.7 3.7,-3.7 v 0 c 2.1,0 3.7,1.7 3.7,3.7 v 0 c 0,2 -1.6,3.7 -3.7,3.7 v 0 c -2,0 -3.7,-1.7 -3.7,-3.7 z"
       style="fill:#231f20"
       id="path568" />
  </g>
  <g
     id="g574"
     transform="matrix(1.2819036,0,0,1.2819036,-127.17066,-129.47315)">
    <path
       class="st2"
       d="m 530.7,449.7 c 0,-2.1 1.7,-3.7 3.7,-3.7 v 0 c 2,0 3.7,1.6 3.7,3.7 v 0 c 0,2 -1.6,3.7 -3.7,3.7 v 0 c -2,0 -3.7,-1.6 -3.7,-3.7 z m -14.7,0 c 0,-2.1 1.6,-3.7 3.7,-3.7 v 0 c 2.1,0 3.7,1.6 3.7,3.7 v 0 c 0,2 -1.7,3.7 -3.7,3.7 v 0 c -2.1,0 -3.7,-1.6 -3.7,-3.7 z m -14.9,0 c 0,-2.1 1.7,-3.7 3.7,-3.7 v 0 c 2,0 3.7,1.6 3.7,3.7 v 0 c 0,2 -1.6,3.7 -3.7,3.7 v 0 c -2,0 -3.7,-1.6 -3.7,-3.7 z m -14.7,0 c 0,-2.1 1.6,-3.7 3.7,-3.7 v 0 c 2.1,0 3.7,1.6 3.7,3.7 v 0 c 0,2 -1.6,3.7 -3.7,3.7 v 0 c -2.1,0 -3.7,-1.6 -3.7,-3.7 z m -14.8,0 c 0,-2.1 1.7,-3.7 3.7,-3.7 v 0 c 2.1,0 3.7,1.6 3.7,3.7 v 0 c 0,2 -1.7,3.7 -3.7,3.7 v 0 c -2.1,0 -3.7,-1.6 -3.7,-3.7 z"
       style="fill:#231f20"
       id="path572" />
  </g>
  <g
     id="g578"
     transform="matrix(1.2819036,0,0,1.2819036,-127.17066,-129.47315)">
    <path
       class="st2"
       d="m 425.7,786.1 c 0,-2.1 1.6,-3.7 3.7,-3.7 v 0 c 2,0 3.7,1.6 3.7,3.7 v 0 c 0,2 -1.7,3.7 -3.7,3.7 v 0 c -2.1,0 -3.7,-1.7 -3.7,-3.7 z m -14.8,0 c 0,-2.1 1.7,-3.7 3.7,-3.7 v 0 c 2.1,0 3.7,1.6 3.7,3.7 v 0 c 0,2 -1.6,3.7 -3.7,3.7 v 0 c -2,0 -3.7,-1.7 -3.7,-3.7 z m -14.8,0 c 0,-2.1 1.7,-3.7 3.7,-3.7 v 0 c 2,0 3.7,1.6 3.7,3.7 v 0 c 0,2 -1.6,3.7 -3.7,3.7 v 0 c -2,0 -3.7,-1.7 -3.7,-3.7 z m -14.8,0 c 0,-2.1 1.7,-3.7 3.7,-3.7 v 0 c 2.1,0 3.7,1.6 3.7,3.7 v 0 c 0,2 -1.6,3.7 -3.7,3.7 v 0 c -2,0 -3.7,-1.7 -3.7,-3.7 z m -14.8,0 c 0,-2.1 1.7,-3.7 3.7,-3.7 v 0 c 2.1,0 3.7,1.6 3.7,3.7 v 0 c 0,2 -1.7,3.7 -3.7,3.7 v 0 c -2,0 -3.7,-1.7 -3.7,-3.7 z m -14.7,0 c 0,-2.1 1.7,-3.7 3.7,-3.7 v 0 c 2.1,0 3.7,1.6 3.7,3.7 v 0 c 0,2 -1.6,3.7 -3.7,3.7 v 0 c -2.1,0 -3.7,-1.7 -3.7,-3.7 z m -14.8,0 c 0,-2.1 1.7,-3.7 3.7,-3.7 v 0 c 2.1,0 3.7,1.6 3.7,3.7 v 0 c 0,2 -1.6,3.7 -3.7,3.7 v 0 c -2.1,0 -3.7,-1.7 -3.7,-3.7 z m -14.8,0 c 0,-2.1 1.6,-3.7 3.7,-3.7 v 0 c 2,0 3.7,1.6 3.7,3.7 v 0 c 0,2 -1.7,3.7 -3.7,3.7 v 0 c -2,0 -3.7,-1.7 -3.7,-3.7 z m -14.8,0 c 0,-2.1 1.7,-3.7 3.7,-3.7 v 0 c 2,0 3.7,1.6 3.7,3.7 v 0 c 0,2 -1.6,3.7 -3.7,3.7 v 0 c -2,0 -3.7,-1.7 -3.7,-3.7 z"
       style="fill:#231f20"
       id="path576" />
  </g>
  <g
     id="g582"
     transform="matrix(1.2819036,0,0,1.2819036,-127.17066,-129.47315)">
    <path
       class="st2"
       d="m 1202,483.9 h -60.5 c -1,0 -1.8,-0.8 -1.8,-1.8 0,-1 0.8,-1.8 1.8,-1.8 h 60.5 c 1,0 1.8,0.8 1.8,1.8 0,0.9 -0.8,1.8 -1.8,1.8 z"
       style="fill:#231f20"
       id="path580" />
  </g>
  <g
     id="g586"
     transform="matrix(1.2819036,0,0,1.2819036,-127.17066,-129.47315)">
    <path
       class="st2"
       d="M 1182.1,332.6 H 1123 c -1,0 -1.8,-0.8 -1.8,-1.8 0,-1 0.8,-1.8 1.8,-1.8 h 59.1 c 1,0 1.8,0.8 1.8,1.8 0.1,1 -0.8,1.8 -1.8,1.8 z"
       style="fill:#231f20"
       id="path584" />
  </g>
  <g
     id="g590"
     transform="matrix(1.2819036,0,0,1.2819036,-127.17066,-129.47315)">
    <path
       class="st2"
       d="m 569.9,140.5 h -82.5 c -1,0 -1.8,-0.8 -1.8,-1.8 0,-1 0.8,-1.8 1.8,-1.8 h 82.5 c 1,0 1.8,0.8 1.8,1.8 0,1 -0.8,1.8 -1.8,1.8 z"
       style="fill:#231f20"
       id="path588" />
  </g>
  <g
     id="g594"
     transform="matrix(1.2819036,0,0,1.2819036,-127.17066,-129.47315)">
    <path
       class="st2"
       d="m 604.4,122 h -65.3 c -1,0 -1.8,-0.8 -1.8,-1.8 0,-1 0.8,-1.8 1.8,-1.8 h 65.3 c 1,0 1.8,0.8 1.8,1.8 0,1 -0.8,1.8 -1.8,1.8 z"
       style="fill:#231f20"
       id="path592" />
  </g>
  <g
     id="g598"
     transform="matrix(1.2819036,0,0,1.2819036,-127.17066,-129.47315)">
    <path
       class="st2"
       d="m 574.7,410.2 h -75.9 c -1,0 -1.8,-0.8 -1.8,-1.8 0,-1 0.8,-1.8 1.8,-1.8 h 75.9 c 1,0 1.8,0.8 1.8,1.8 0.1,0.9 -0.8,1.8 -1.8,1.8 z"
       style="fill:#231f20"
       id="path596" />
  </g>
  <g
     id="g602"
     transform="matrix(1.2819036,0,0,1.2819036,-127.17066,-129.47315)">
    <path
       class="st2"
       d="m 515.4,422.3 h -59.1 c -1,0 -1.8,-0.8 -1.8,-1.8 0,-1 0.8,-1.8 1.8,-1.8 h 59.1 c 1,0 1.8,0.8 1.8,1.8 0,1 -0.8,1.8 -1.8,1.8 z"
       style="fill:#231f20"
       id="path600" />
  </g>
  <g
     id="g606"
     transform="matrix(1.2819036,0,0,1.2819036,-127.17066,-129.47315)">
    <path
       class="st2"
       d="m 752.7,522.3 h -59.1 c -1,0 -1.8,-0.8 -1.8,-1.8 0,-1 0.8,-1.8 1.8,-1.8 h 59.1 c 1,0 1.8,0.8 1.8,1.8 0,1 -0.8,1.8 -1.8,1.8 z"
       style="fill:#231f20"
       id="path604" />
  </g>
  <g
     id="g610"
     transform="matrix(1.2819036,0,0,1.2819036,-127.17066,-129.47315)">
    <path
       class="st2"
       d="M 267.8,522.3 H 136.6 c -1,0 -1.8,-0.8 -1.8,-1.8 0,-1 0.8,-1.8 1.8,-1.8 h 131.2 c 1,0 1.8,0.8 1.8,1.8 0,1 -0.8,1.8 -1.8,1.8 z"
       style="fill:#231f20"
       id="path608" />
  </g>
  <g
     id="g614"
     transform="matrix(1.2819036,0,0,1.2819036,-127.17066,-129.47315)">
    <path
       class="st2"
       d="m 236.4,540.6 h -34.2 c -1,0 -1.8,-0.8 -1.8,-1.8 0,-1 0.8,-1.8 1.8,-1.8 h 34.2 c 1,0 1.8,0.8 1.8,1.8 0,1 -0.8,1.8 -1.8,1.8 z"
       style="fill:#231f20"
       id="path612" />
  </g>
  <g
     id="g618"
     transform="matrix(1.2819036,0,0,1.2819036,-127.17066,-129.47315)">
    <path
       class="st2"
       d="m 777.5,223 h -34.2 c -1,0 -1.8,-0.8 -1.8,-1.8 0,-1 0.8,-1.8 1.8,-1.8 h 34.2 c 1,0 1.8,0.8 1.8,1.8 0,1 -0.8,1.8 -1.8,1.8 z"
       style="fill:#231f20"
       id="path616" />
  </g>
  <g
     id="g622"
     transform="matrix(1.2819036,0,0,1.2819036,-127.17066,-129.47315)">
    <path
       class="st2"
       d="m 364.7,527.5 c -2,-0.3 -3.4,-2.3 -3,-4.3 v 0 c 0.3,-2 2.3,-3.4 4.3,-3 v 0 c 2,0.4 3.4,2.3 3,4.3 v 0 c -0.3,1.8 -1.9,3.1 -3.6,3.1 v 0 c -0.3,0 -0.6,0 -0.7,-0.1 z m 11.3,-3 c -0.4,-2 1,-4 3,-4.3 v 0 c 2,-0.4 3.9,1 4.3,3 v 0 c 0.3,2 -1,3.9 -3,4.3 v 0 c 0,0 0,0 0,0 v 0 c -0.2,0 -0.4,0 -0.6,0 v 0 c -1.8,0.1 -3.4,-1.2 -3.7,-3 z m -26.1,-2.3 v 0 0 c -1.8,-1 -2.4,-3.3 -1.4,-5 v 0 c 1,-1.8 3.3,-2.4 5.1,-1.4 v 0 c 1.8,1 2.4,3.3 1.4,5.1 v 0 c -0.7,1.2 -1.9,1.8 -3.2,1.8 v 0 c -0.7,0 -1.3,-0.2 -1.9,-0.5 z m 40.1,-1.4 c -1,-1.8 -0.4,-4 1.3,-5.1 v 0 c 1.8,-1 4,-0.4 5.1,1.4 v 0 c 1,1.8 0.4,4 -1.4,5 v 0 c -0.6,0.4 -1.2,0.5 -1.8,0.5 v 0 c -1.3,0.1 -2.5,-0.6 -3.2,-1.8 z m -52.1,-8.7 c -1.3,-1.6 -1.1,-3.9 0.4,-5.2 v 0 c 1.6,-1.3 3.9,-1.1 5.2,0.4 v 0 c 1.3,1.6 1.1,3.9 -0.4,5.2 v 0 c -0.7,0.6 -1.6,0.9 -2.4,0.9 v 0 c -1.1,0.1 -2.1,-0.4 -2.8,-1.3 z m 63.9,0.4 c -1.6,-1.3 -1.8,-3.7 -0.4,-5.2 v 0 c 1.3,-1.6 3.7,-1.8 5.2,-0.4 v 0 c 1.6,1.3 1.8,3.6 0.4,5.2 v 0 c 0,0 0,0 0,0 v 0 c -0.7,0.9 -1.8,1.3 -2.8,1.3 v 0 c -0.8,0 -1.7,-0.3 -2.4,-0.9 z M 330,498.6 c -0.7,-1.9 0.3,-4 2.2,-4.7 v 0 c 1.9,-0.7 4.1,0.3 4.8,2.2 v 0 c 0.7,1.9 -0.3,4.1 -2.2,4.8 v 0 c -0.4,0.1 -0.8,0.2 -1.3,0.2 v 0 c -1.5,-0.1 -2.9,-1 -3.5,-2.5 z m 80.2,2.1 c -1.9,-0.7 -2.9,-2.8 -2.2,-4.7 v 0 c 0.7,-1.9 2.8,-2.9 4.7,-2.2 v 0 c 1.9,0.7 2.9,2.8 2.2,4.7 v 0 c -0.5,1.5 -2,2.4 -3.4,2.4 v 0 c -0.5,0 -0.9,0 -1.3,-0.2 z m -82.9,-17.6 c 0,-2 1.6,-3.7 3.7,-3.7 v 0 c 2,0 3.7,1.7 3.7,3.7 v 0 c 0,2 -1.7,3.7 -3.7,3.7 v 0 c -2.1,0 -3.7,-1.6 -3.7,-3.7 z m 82.9,-0.1 c 0,0 0,0 0,0 v 0 c 0,-0.1 0,-0.1 0,-0.1 v 0 c 0,-2.1 1.6,-3.7 3.7,-3.7 v 0 c 2,0 3.7,1.7 3.7,3.7 v 0 c 0,0 0,0 0,0.1 v 0 c 0,0 0,0.1 0,0.1 v 0 c 0,2 -1.7,3.7 -3.7,3.7 v 0 c -2,-0.1 -3.7,-1.7 -3.7,-3.8 z m -78.1,-10.6 c -1.9,-0.7 -2.9,-2.8 -2.2,-4.7 v 0 c 0.7,-1.9 2.8,-2.9 4.7,-2.2 v 0 c 1.9,0.7 2.9,2.8 2.3,4.7 v 0 c -0.6,1.5 -2,2.4 -3.5,2.4 v 0 c -0.4,0 -0.9,-0.1 -1.3,-0.2 z m 75.8,-2.4 c -0.7,-1.9 0.3,-4 2.2,-4.7 v 0 c 1.9,-0.7 4.1,0.3 4.8,2.2 v 0 c 0.7,1.9 -0.3,4.1 -2.2,4.8 v 0 c -0.4,0.1 -0.9,0.2 -1.3,0.2 v 0 c -1.5,-0.1 -2.9,-1 -3.5,-2.5 z m -69.7,-10.7 c -1.6,-1.3 -1.7,-3.6 -0.4,-5.2 v 0 0 0 c 1.3,-1.6 3.6,-1.8 5.2,-0.5 v 0 c 1.6,1.3 1.8,3.7 0.4,5.2 v 0 c -0.7,0.9 -1.8,1.3 -2.8,1.3 v 0 c -0.8,0 -1.7,-0.2 -2.4,-0.8 z m 63.1,-0.6 c -1.3,-1.6 -1.1,-3.9 0.4,-5.2 v 0 c 1.6,-1.3 3.9,-1.1 5.2,0.4 v 0 c 1.3,1.6 1.1,3.9 -0.4,5.2 v 0 c -0.7,0.6 -1.5,0.9 -2.4,0.9 v 0 c -1,-0.1 -2.1,-0.5 -2.8,-1.3 z M 348.4,449 c -1,-1.7 -0.4,-4 1.3,-5 v 0 c 1.8,-1 4,-0.4 5.1,1.3 v 0 c 1,1.7 0.4,4 -1.3,5.1 v 0 c -0.6,0.3 -1.2,0.5 -1.8,0.5 v 0 c -1.4,0 -2.6,-0.7 -3.3,-1.9 z m 42.8,1.2 c -1.8,-1 -2.4,-3.3 -1.4,-5 v 0 c 1,-1.8 3.3,-2.4 5,-1.4 v 0 c 1.8,1 2.4,3.3 1.4,5 v 0 c -0.7,1.2 -1.9,1.9 -3.2,1.9 v 0 c -0.6,0 -1.2,-0.1 -1.8,-0.5 z m -29.7,-7.4 c -0.4,-2 1,-3.9 3,-4.3 v 0 c 2,-0.3 3.9,1 4.3,3 v 0 c 0.3,2 -1,4 -3,4.3 v 0 c -0.2,0 -0.4,0.1 -0.7,0.1 v 0 c -1.7,0 -3.3,-1.3 -3.6,-3.1 z m 17.4,3 v 0 c -2,-0.3 -3.4,-2.3 -3,-4.3 v 0 c 0.4,-2 2.3,-3.4 4.3,-3 v 0 0 0 c 2,0.3 3.4,2.3 3,4.3 v 0 c -0.3,1.8 -1.8,3.1 -3.6,3.1 v 0 c -0.3,0 -0.5,-0.1 -0.7,-0.1 z"
       style="fill:#231f20"
       id="path620" />
  </g>
  <g
     id="g626"
     transform="matrix(1.2819036,0,0,1.2819036,-127.17066,-129.47315)">
    <path
       class="st2"
       d="m 1154.9,638.1 c 0,0 0,0 0,0 v 0 c -2.1,-0.3 -3.4,-2.1 -3.2,-4.1 v 0 c 0.3,-2 2.1,-3.4 4.2,-3.2 v 0 c 2,0.3 3.4,2.1 3.1,4.2 v 0 c -0.3,1.8 -1.8,3.2 -3.7,3.2 v 0 c 0,-0.1 -0.2,-0.1 -0.4,-0.1 z m 11,-4.2 c -0.8,-1.8 0,-4 1.8,-4.9 v 0 c 1.8,-0.8 4.1,0 4.9,1.8 v 0 c 0.8,1.8 0,4 -1.8,4.9 v 0 c 0,0 0,0 0,0 v 0 c -0.5,0.3 -1,0.3 -1.5,0.3 v 0 c -1.4,0.1 -2.8,-0.7 -3.4,-2.1 z m -25.6,-2.4 v 0 0 c -1.6,-1.3 -1.7,-3.7 -0.4,-5.2 v 0 c 1.3,-1.6 3.7,-1.7 5.2,-0.4 v 0 c 1.6,1.3 1.7,3.7 0.4,5.2 v 0 c -0.7,0.9 -1.8,1.3 -2.8,1.3 v 0 c -0.9,-0.1 -1.7,-0.4 -2.4,-0.9 z m 37.5,-5.1 c -1.7,-1.1 -2.2,-3.4 -1.1,-5.1 v 0 c 1.1,-1.7 3.4,-2.2 5.1,-1.1 v 0 c 1.7,1.1 2.2,3.4 1.1,5.1 v 0 c -0.7,1.1 -1.9,1.7 -3.1,1.7 v 0 c -0.7,-0.1 -1.4,-0.3 -2,-0.6 z m -46.3,-8.4 c -0.6,-2 0.6,-4 2.5,-4.6 v 0 c 1.9,-0.6 4,0.6 4.6,2.5 v 0 c 0.6,2 -0.5,4 -2.5,4.6 v 0 c -0.4,0.1 -0.7,0.1 -1.1,0.1 v 0 c -1.5,0 -3,-1 -3.5,-2.6 z m 48.6,-8.2 v 0 0 0 c 0,-0.1 0,-0.1 0,-0.3 v 0 c 0,-2 1.6,-3.7 3.7,-3.7 v 0 c 2,0 3.7,1.6 3.7,3.7 v 0 c 0,0 0,0 0,0.1 v 0 c 0,0.1 0,0.2 0,0.3 v 0 c 0,2 -1.7,3.7 -3.7,3.7 v 0 c -2.1,-0.1 -3.7,-1.8 -3.7,-3.8 z m -46.2,-3.3 c -2,-0.6 -3.1,-2.6 -2.5,-4.6 v 0 c 0.6,-2 2.6,-3.1 4.6,-2.5 v 0 c 2,0.5 3.1,2.6 2.5,4.5 v 0 c -0.4,1.6 -2,2.7 -3.5,2.7 v 0 c -0.4,0.1 -0.7,0 -1.1,-0.1 z m 42.7,-8.3 c -1.1,-1.7 -0.7,-4 1,-5.1 v 0 c 1.7,-1.1 4,-0.7 5.1,1 v 0 c 1.1,1.7 0.6,4 -1.1,5.1 v 0 c -0.6,0.4 -1.3,0.6 -2,0.6 v 0 c -1.1,0 -2.3,-0.6 -3,-1.6 z m -36.9,-4.6 c -1.3,-1.6 -1.2,-3.9 0.3,-5.2 v 0 c 0,0 0,0 0,0 v 0 c 1.5,-1.4 3.8,-1.2 5.2,0.3 v 0 c 1.3,1.5 1.2,3.8 -0.3,5.2 v 0 c -0.7,0.6 -1.6,0.9 -2.5,0.9 v 0 c -1,0 -2,-0.4 -2.7,-1.2 z m 27.8,-3.1 c -1.8,-0.9 -2.7,-3 -1.9,-4.9 v 0 c 0.9,-1.9 3,-2.7 4.9,-1.9 v 0 c 1.8,0.8 2.7,3 1.8,4.9 v 0 c -0.6,1.4 -2,2.2 -3.4,2.2 v 0 c -0.4,0 -0.9,-0.1 -1.4,-0.3 z m -16,-4.7 c -0.3,-2 1.1,-3.9 3.1,-4.2 v 0 c 2,-0.3 3.9,1.1 4.2,3.1 v 0 c 0.3,2 -1.1,3.9 -3.1,4.2 v 0 c -0.2,0 -0.3,0 -0.5,0 v 0 c -1.9,0 -3.4,-1.3 -3.7,-3.1 z"
       style="fill:#231f20"
       id="path624" />
  </g>
  <g
     id="g630"
     transform="matrix(1.2819036,0,0,1.2819036,-127.17066,-129.47315)">
    <path
       class="st2"
       d="m 621.6,833 c -2,-0.4 -3.3,-2.4 -2.8,-4.4 v 0 c 0.4,-2 2.4,-3.3 4.4,-2.8 v 0 c 2,0.4 3.3,2.4 2.8,4.4 v 0 c -0.4,1.7 -1.9,2.9 -3.6,2.9 v 0 c -0.3,0 -0.6,0 -0.8,-0.1 z m 11.1,-4.3 c -1.3,-1.6 -1,-3.9 0.6,-5.2 v 0 c 1.6,-1.3 3.9,-1 5.2,0.6 v 0 c 1.3,1.6 1,3.9 -0.6,5.2 v 0 c -0.7,0.6 -1.5,0.8 -2.3,0.8 v 0 c -1.1,-0.1 -2.2,-0.5 -2.9,-1.4 z m -24.3,-6.1 c -0.9,-1.8 -0.1,-4 1.7,-4.9 v 0 c 1.8,-0.9 4.1,-0.1 5,1.7 v 0 c 0.9,1.8 0.1,4.1 -1.7,5 v 0 c -0.5,0.3 -1.1,0.4 -1.6,0.4 v 0 c -1.4,-0.1 -2.7,-0.9 -3.4,-2.2 z m 29.3,-8.3 c 0,-0.1 0,-0.2 0,-0.3 v 0 c 0,-2 1.6,-3.7 3.7,-3.7 v 0 c 2,0 3.7,1.6 3.7,3.7 v 0 c 0,0 0,0.1 0,0.1 v 0 c 0,0 0,0 0,0.1 v 0 c 0,2 -1.7,3.7 -3.7,3.7 v 0 c -2,-0.1 -3.6,-1.6 -3.7,-3.6 z m -27.6,-3.5 c -1.8,-0.9 -2.6,-3.1 -1.7,-5 v 0 c 0,0 0,0 0,0 v 0 c 0.9,-1.8 3.1,-2.7 4.9,-1.8 v 0 c 1.8,0.9 2.6,3.1 1.7,4.9 v 0 c -0.6,1.3 -2,2.1 -3.3,2.1 v 0 c -0.6,0.2 -1.1,0 -1.6,-0.2 z m 23,-6 c -1.6,-1.3 -1.9,-3.6 -0.6,-5.2 v 0 c 1.3,-1.6 3.6,-1.9 5.2,-0.6 v 0 c 1.6,1.3 1.9,3.6 0.6,5.2 v 0 c -0.7,0.9 -1.8,1.4 -2.9,1.4 v 0 c -0.8,-0.1 -1.6,-0.3 -2.3,-0.8 z m -14.5,-5 c -0.4,-2 0.8,-4 2.8,-4.5 v 0 c 2,-0.4 4,0.8 4.4,2.7 v 0 c 0.5,2 -0.7,4 -2.7,4.5 v 0 c -0.3,0.1 -0.6,0.1 -0.9,0.1 v 0 c -1.7,0.1 -3.2,-1.1 -3.6,-2.8 z"
       style="fill:#231f20"
       id="path628" />
  </g>
  <g
     id="g634"
     transform="matrix(1.2819036,0,0,1.2819036,-127.17066,-129.47315)">
    <path
       class="st2"
       d="m 973.3,182.5 c -6.8,0 -12.4,-5.5 -12.4,-12.4 0,-6.8 5.5,-12.4 12.4,-12.4 6.8,0 12.4,5.5 12.4,12.4 0,6.9 -5.6,12.4 -12.4,12.4 z m 0,-21 c -4.8,0 -8.7,3.9 -8.7,8.7 0,4.8 3.9,8.7 8.7,8.7 4.8,0 8.7,-3.9 8.7,-8.7 0,-4.8 -3.9,-8.7 -8.7,-8.7 z"
       style="fill:#231f20"
       id="path632" />
  </g>
  <g
     id="g638"
     transform="matrix(1.2819036,0,0,1.2819036,-127.17066,-129.47315)">
    <path
       class="st2"
       d="m 253.9,432.8 c -6.8,0 -12.4,-5.5 -12.4,-12.4 0,-6.8 5.5,-12.4 12.4,-12.4 6.8,0 12.4,5.5 12.4,12.4 -0.1,6.9 -5.6,12.4 -12.4,12.4 z m 0,-21 c -4.8,0 -8.7,3.9 -8.7,8.7 0,4.8 3.9,8.7 8.7,8.7 4.8,0 8.7,-3.9 8.7,-8.7 -0.1,-4.8 -4,-8.7 -8.7,-8.7 z"
       style="fill:#231f20"
       id="path636" />
  </g>
  <g
     id="g642"
     transform="matrix(1.2819036,0,0,1.2819036,-127.17066,-129.47315)">
    <path
       class="st2"
       d="m 1242.7,686.4 c -4.8,0 -8.7,-3.9 -8.7,-8.7 0,-4.8 3.9,-8.7 8.7,-8.7 4.8,0 8.7,3.9 8.7,8.7 -0.1,4.9 -3.9,8.7 -8.7,8.7 z m 0,-13.6 c -2.7,0 -5,2.2 -5,5 0,2.7 2.2,5 5,5 2.8,0 5,-2.2 5,-5 -0.1,-2.8 -2.3,-5 -5,-5 z"
       style="fill:#231f20"
       id="path640" />
  </g>
  <g
     id="g646"
     transform="matrix(1.2819036,0,0,1.2819036,-127.17066,-129.47315)">
    <path
       class="st2"
       d="m 770.9,612.4 c -4.8,0 -8.7,-3.9 -8.7,-8.7 0,-4.8 3.9,-8.7 8.7,-8.7 4.8,0 8.7,3.9 8.7,8.7 0,4.8 -3.9,8.7 -8.7,8.7 z m 0,-13.7 c -2.7,0 -5,2.2 -5,5 0,2.7 2.2,5 5,5 2.7,0 5,-2.2 5,-5 0,-2.7 -2.3,-5 -5,-5 z"
       style="fill:#231f20"
       id="path644" />
  </g>
  <g
     id="g650"
     transform="matrix(1.2819036,0,0,1.2819036,-127.17066,-129.47315)">
    <path
       class="st2"
       d="m 984.8,868.8 c -4.8,0 -8.7,-3.9 -8.7,-8.7 0,-4.8 3.9,-8.7 8.7,-8.7 4.8,0 8.7,3.9 8.7,8.7 0,4.8 -3.9,8.7 -8.7,8.7 z m 0,-13.7 c -2.7,0 -5,2.2 -5,5 0,2.7 2.2,5 5,5 2.7,0 5,-2.2 5,-5 0,-2.8 -2.3,-5 -5,-5 z"
       style="fill:#231f20"
       id="path648" />
  </g>
  <g
     id="g654"
     transform="matrix(1.2819036,0,0,1.2819036,-127.17066,-129.47315)">
    <path
       class="st2"
       d="m 487.7,841.7 c -5.5,0 -10,-4.5 -10,-10 0,-5.5 4.5,-10 10,-10 5.5,0 10,4.5 10,10 0,5.5 -4.5,10 -10,10 z m 0,-16.3 c -3.5,0 -6.3,2.8 -6.3,6.3 0,3.5 2.8,6.3 6.3,6.3 3.5,0 6.3,-2.8 6.3,-6.3 0,-3.5 -2.8,-6.3 -6.3,-6.3 z"
       style="fill:#231f20"
       id="path652" />
  </g>
  <g
     id="g658"
     transform="matrix(1.2819036,0,0,1.2819036,-127.17066,-129.47315)">
    <path
       class="st2"
       d="m 760.4,401.6 c -6.8,0 -12.4,-5.5 -12.4,-12.4 0,-6.8 5.5,-12.4 12.4,-12.4 6.8,0 12.4,5.5 12.4,12.4 -0.1,6.9 -5.6,12.4 -12.4,12.4 z m 0,-21 c -4.8,0 -8.7,3.9 -8.7,8.7 0,4.8 3.9,8.7 8.7,8.7 4.8,0 8.7,-3.9 8.7,-8.7 -0.1,-4.8 -3.9,-8.7 -8.7,-8.7 z"
       style="fill:#231f20"
       id="path656" />
  </g>
  <g
     id="g668"
     transform="matrix(1.2819036,0,0,1.2819036,-127.17066,-129.47315)">
    <g
       id="g662">
      <path
         class="st2"
         d="m 1171.5,404.2 h -19.1 c -1,0 -1.8,-0.8 -1.8,-1.8 0,-1 0.8,-1.8 1.8,-1.8 h 19.1 c 1,0 1.8,0.8 1.8,1.8 0,0.9 -0.8,1.8 -1.8,1.8 z"
         style="fill:#231f20"
         id="path660" />
    </g>
    <g
       id="g666">
      <path
         class="st2"
         d="m 1161.9,413.7 c -1,0 -1.8,-0.8 -1.8,-1.8 v -19.1 c 0,-1 0.8,-1.8 1.8,-1.8 1,0 1.8,0.8 1.8,1.8 v 19.1 c 0.1,1 -0.8,1.8 -1.8,1.8 z"
         style="fill:#231f20"
         id="path664" />
    </g>
  </g>
  <g
     id="g678"
     transform="matrix(1.2819036,0,0,1.2819036,-127.17066,-129.47315)">
    <g
       id="g672">
      <path
         class="st2"
         d="m 228.8,287.8 h -19.1 c -1,0 -1.8,-0.8 -1.8,-1.8 0,-1 0.8,-1.8 1.8,-1.8 h 19.1 c 1,0 1.8,0.8 1.8,1.8 0.1,1 -0.7,1.8 -1.8,1.8 z"
         style="fill:#231f20"
         id="path670" />
    </g>
    <g
       id="g676">
      <path
         class="st2"
         d="m 219.3,297.4 c -1,0 -1.8,-0.8 -1.8,-1.8 v -19.1 c 0,-1 0.8,-1.8 1.8,-1.8 1,0 1.8,0.8 1.8,1.8 v 19.1 c 0,0.9 -0.8,1.8 -1.8,1.8 z"
         style="fill:#231f20"
         id="path674" />
    </g>
  </g>
  <g
     id="g688"
     transform="matrix(1.2819036,0,0,1.2819036,-127.17066,-129.47315)">
    <g
       id="g682">
      <path
         class="st2"
         d="m 832,861.9 h -19.1 c -1,0 -1.8,-0.8 -1.8,-1.8 0,-1 0.8,-1.8 1.8,-1.8 H 832 c 1,0 1.8,0.8 1.8,1.8 0,1 -0.8,1.8 -1.8,1.8 z"
         style="fill:#231f20"
         id="path680" />
    </g>
    <g
       id="g686">
      <path
         class="st2"
         d="m 822.4,871.5 c -1,0 -1.8,-0.8 -1.8,-1.8 v -19.1 c 0,-1 0.8,-1.8 1.8,-1.8 1,0 1.8,0.8 1.8,1.8 v 19.1 c 0.1,1 -0.7,1.8 -1.8,1.8 z"
         style="fill:#231f20"
         id="path684" />
    </g>
  </g>
  <g
     id="g698"
     transform="matrix(1.2819036,0,0,1.2819036,-127.17066,-129.47315)">
    <g
       id="g692">
      <path
         class="st2"
         d="m 933.3,554 h -19.1 c -1,0 -1.8,-0.8 -1.8,-1.8 0,-1 0.8,-1.8 1.8,-1.8 h 19.1 c 1,0 1.8,0.8 1.8,1.8 0,1 -0.8,1.8 -1.8,1.8 z"
         style="fill:#231f20"
         id="path690" />
    </g>
    <g
       id="g696">
      <path
         class="st2"
         d="m 923.7,563.6 c -1,0 -1.8,-0.8 -1.8,-1.8 v -19.1 c 0,-1 0.8,-1.8 1.8,-1.8 1,0 1.8,0.8 1.8,1.8 v 19.1 c 0.1,1 -0.8,1.8 -1.8,1.8 z"
         style="fill:#231f20"
         id="path694" />
    </g>
  </g>
  <path
     class="st1"
     d="m 899.3777,260.48192 v 41.27731 h 41.27729 v -41.27731 z m 37.55978,35.25236 c 0,1.28188 -1.02552,2.30742 -2.30743,2.30742 h -29.09921 c -1.28191,0 -2.30742,-1.02554 -2.30742,-2.30742 v -29.09921 c 0,-1.28192 1.02551,-2.30745 2.30742,-2.30745 h 29.09921 c 1.28191,0 2.30743,1.02553 2.30743,2.30745 z"
     style="opacity:1;fill:#e5261f;stroke-width:1.2819"
     id="path702" />
  <path
     class="st2"
     d="m 934.63005,264.19945 h -29.09921 c -1.28191,0 -2.30742,1.02551 -2.30742,2.30741 v 29.09922 c 0,1.2819 1.02551,2.30743 2.30742,2.30743 h 29.09921 c 1.28191,0 2.30743,-1.02553 2.30743,-2.30743 v -29.09922 c 0,-1.2819 -1.02552,-2.30741 -2.30743,-2.30741 z m -2.43561,29.0992 H 907.83826 V 268.9425 h 24.35618 z"
     style="opacity:1;fill:#231f20;stroke-width:1.2819"
     id="path704" />
</svg>
