<?xml version="1.0" encoding="UTF-8" standalone="no"?>
<svg
   xmlns:dc="http://purl.org/dc/elements/1.1/"
   xmlns:cc="http://creativecommons.org/ns#"
   xmlns:rdf="http://www.w3.org/1999/02/22-rdf-syntax-ns#"
   xmlns:svg="http://www.w3.org/2000/svg"
   xmlns="http://www.w3.org/2000/svg"
   xmlns:xlink="http://www.w3.org/1999/xlink"
   version="1.1"
   id="svg2"
   width="99.999352"
   height="74.411003"
   viewBox="0 0 99.999352 74.411003">
  <metadata
     id="metadata8">
    <rdf:RDF>
      <cc:Work
         rdf:about="">
        <dc:format>image/svg+xml</dc:format>
        <dc:type
           rdf:resource="http://purl.org/dc/dcmitype/StillImage" />
        <dc:title></dc:title>
      </cc:Work>
    </rdf:RDF>
  </metadata>
  <defs
     id="defs6">
    <linearGradient
       id="linearGradient1097">
      <stop
         style="stop-color:#3b1933;stop-opacity:1;"
         offset="0"
         id="stop1093" />
      <stop
         style="stop-color:#3b1933;stop-opacity:0;"
         offset="1"
         id="stop1095" />
    </linearGradient>
    <linearGradient
       xlink:href="#linearGradient1097"
       id="linearGradient1099"
       x1="17.404753"
       y1="22.495884"
       x2="17.411493"
       y2="19.622253"
       gradientUnits="userSpaceOnUse" />
  </defs>
  <g
     id="layer2"
     transform="translate(-1.2739294e-8,-13.016)" />
  <g
     id="g10"
     style="display:inline"
     transform="translate(-1.2739294e-8,-13.016)" />
  <g
     id="layer1"
     style="display:inline"
     transform="translate(-1.2739294e-8,-13.016)">
    <g
       id="g1274"
       transform="matrix(3.1249796,0,0,3.1249796,0,-0.78390991)">
      <g
         id="g891"
         transform="matrix(0.70922002,0,0,0.70922612,-0.45390083,-0.34704953)"
         style="display:inline">
        <path
           id="path895"
           style="fill:#af2428;stroke:none;stroke-width:0.32"
           d="m 30.106668,38.603346 c 0.07333,-0.06416 0.493333,-0.303735 0.933333,-0.532391 0.731776,-0.380278 0.762547,-0.370333 0.360818,0.116656 -0.24155,0.292816 -0.66155,0.532391 -0.933333,0.532391 -0.271783,0 -0.434151,-0.0525 -0.360818,-0.116656 z m -19.419257,-0.65288 c -0.09488,-0.247248 -0.122155,-0.931248 -0.06062,-1.52 0.0981,-0.938564 0.130736,-0.883172 0.264853,0.449536 0.156869,1.5588 0.09918,1.861158 -0.204237,1.070464 z m 6.551772,-2.030464 c -0.398039,-0.50754 -0.38672,-0.518858 0.120818,-0.12082 0.308,0.241552 0.56,0.493552 0.56,0.56 0,0.263373 -0.26278,0.09386 -0.680818,-0.43918 z m 21.630444,-6.320001 0.01037,-6.72 h 3.2 3.200001 l 0.02861,1.12 c 0.02403,0.940279 0.009,0.965953 -0.09382,0.16 l -0.122435,-0.96 -3.019626,0.101804 -3.019623,0.101805 -0.09693,6.458196 -0.09693,6.458196 0.01037,-6.720001 z M 6.1355043,29.399184 c -0.06331,-6.799133 -0.071917,-6.775395 2.399634,-6.617731 l 1.5448617,0.09855 0.03013,2.4 c 0.01657,1.32 -0.02677,1.729403 -0.09632,0.909784 L 9.8873668,24.699569 8.3034845,24.589785 C 6.7396477,24.48139 6.7191107,24.49215 6.6807577,25.440001 c -0.021366,0.528 -0.1402982,2.976 -0.2642973,5.44 l -0.2254525,4.480001 z m 16.9888967,5.571192 c 0.48642,-0.07355 1.20642,-0.07159 1.6,0.0044 0.39358,0.07596 -0.0044,0.136134 -0.8844,0.133734 -0.88,-0.0026 -1.20202,-0.06455 -0.7156,-0.138102 z m 19.564234,-0.216723 c -0.0942,-0.245492 -0.125683,-1.001492 -0.06996,-1.68 0.09592,-1.167838 0.161072,-1.23588 1.221322,-1.275418 l 1.12,-0.04177 -1.06937,0.144231 c -1.066541,0.143852 -1.069078,0.148402 -0.96,1.721967 0.112823,1.627552 0.05402,1.902384 -0.241997,1.130986 z M 0.69669446,29.046098 0.64000003,23.052194 1.3905034,22.86383 c 0.4127768,-0.103601 1.3127769,-0.142344 2.0000001,-0.0861 l 1.2494967,0.102268 0.028598,3.2 c 0.015728,1.76 -0.021901,2.48 -0.08362,1.6 -0.1984649,-2.829714 -0.2300758,-2.879014 -1.852092,-2.888473 -0.799087,-0.0047 -1.4714759,0.13934 -1.4941977,0.32 -0.022723,0.18066 -0.1412102,2.488473 -0.26330655,5.128473 L 0.7533889,35.040002 Z M 32.345265,33.413336 c 0.01536,-0.372784 0.09118,-0.448608 0.193332,-0.193335 0.09244,0.230999 0.08107,0.506999 -0.02525,0.613335 -0.106336,0.106333 -0.181965,-0.08267 -0.168071,-0.42 z M 18.560001,31.733335 c 0,-0.733334 0.150525,-1.333334 0.3345,-1.333334 0.211769,0 0.254899,0.44029 0.117549,1.2 -0.300226,1.660605 -0.452049,1.705386 -0.452049,0.133334 z m -4.920468,0.414295 c -0.109743,-0.285985 -0.186545,-0.832195 -0.170672,-1.213801 0.02045,-0.491627 0.119022,-0.380517 0.338242,0.381263 0.318731,1.107575 0.187729,1.758433 -0.16757,0.832538 z m 1.300094,-1.554052 c 0.136069,-1.581951 1.052086,-3.792913 1.750181,-4.22436 0.270123,-0.166945 0.304974,-0.05831 0.121354,0.378289 -0.775069,1.84288 -1.106894,2.952986 -1.139607,3.812494 -0.03115,0.818423 -0.07504,0.865615 -0.297644,0.32 -0.230886,-0.565927 -0.278925,-0.528891 -0.415062,0.32 -0.08468,0.528 -0.09333,0.25511 -0.01922,-0.606423 z m 5.432907,1.267933 c -0.105845,-0.27583 -0.05297,-0.50151 0.11751,-0.50151 0.170476,0 0.312162,-0.252 0.314857,-0.56 0.0027,-0.308 0.142614,-0.776 0.310931,-1.04 0.208773,-0.327455 0.24482,-0.07321 0.113424,0.8 -0.222571,1.479136 -0.580122,2.022317 -0.856722,1.30151 z m 11.051281,-0.803636 c -1.307327,-1.768255 -3.241539,-2.8224 -5.40548,-2.945988 -1.246692,-0.0712 -1.89078,0.0045 -1.771312,0.208114 0.103252,0.176 0.684768,0.968 1.292257,1.76 0.941449,1.227391 0.834432,1.158506 -0.724827,-0.466557 -3.264102,-3.401853 -3.965564,-5.965175 -2.314951,-8.45942 0.879675,-1.329278 2.885315,-2.700604 4.540499,-3.104498 l 0.96,-0.234257 -1.161379,1.290539 c -2.78343,3.092982 -2.298807,6.198408 1.375882,8.816553 1.746614,1.244428 3.427088,2.790667 3.823021,3.51764 0.466729,0.856964 0.162198,0.667348 -0.61371,-0.382126 z M 45.2007,29.920001 c 0.0036,-0.704 0.06908,-0.954321 0.145625,-0.556269 0.07654,0.398052 0.07364,0.974052 -0.0065,1.28 -0.08009,0.305948 -0.142713,-0.01973 -0.139161,-0.723731 z M 13.597909,29.677592 c -0.315864,-0.778358 0.09676,-2.766238 0.813177,-3.917591 0.328542,-0.528 2.110638,-2.450528 3.960214,-4.272284 3.192504,-3.144485 4.670192,-5.243087 4.667497,-6.628748 -6.62e-4,-0.340433 -0.43212,-1.482968 -0.958796,-2.538968 -0.950746,-1.906273 -1.138649,-2.8421062 -0.765764,-3.8138288 0.260742,-0.679481 0.7646,-0.64428 0.770481,0.053828 0.0051,0.6084902 0.256293,1.0801786 1.835283,3.4466358 1.164377,1.74507 1.383194,3.693222 0.585106,5.209256 -0.542662,1.03083 -2.701961,3.109646 -5.822709,5.60568 -2.637304,2.109366 -3.907967,3.792855 -4.462235,5.911975 -0.292511,1.118346 -0.452822,1.361561 -0.622254,0.944045 z m 6.572269,-0.327869 c -0.0056,-0.137653 0.212532,-0.783296 0.484732,-1.434762 0.390835,-0.935399 0.558036,-1.084646 0.7951,-0.709722 0.165105,0.261119 0.288042,0.834762 0.273193,1.274762 l -0.027,0.8 -0.256205,-0.8 c -0.140913,-0.44 -0.270559,-0.647522 -0.288102,-0.461161 -0.03943,0.418852 -0.967639,1.677191 -0.981721,1.330883 z m 22.415088,-1.909722 c -0.01389,-0.836 0.08982,-1.52 0.23048,-1.52 0.140659,0 0.202221,0.54 0.136806,1.2 -0.184125,1.857746 -0.339478,1.993098 -0.367286,0.32 z M 28.609597,18.925209 c 0.335278,-0.376864 0.884745,-0.685208 1.221038,-0.685208 0.336292,0 0.889974,-0.149067 1.230403,-0.331259 0.484082,-0.259073 0.618963,-0.22666 0.618963,0.148741 0,0.599755 -0.762813,1.01806 -2.405891,1.319323 l -1.274109,0.233612 z m -7.463606,-2.970005 c -0.01443,-0.469083 -0.677976,-1.730458 -1.491985,-2.83621 -1.818575,-2.470361 -2.051198,-3.6097792 -1.040052,-5.0943239 0.853838,-1.2535879 1.846718,-1.8244049 1.257121,-0.7227315 -0.580536,1.0847402 -0.412136,1.8853949 0.928926,4.4165614 1.419343,2.678917 1.435209,2.759494 0.811557,4.121501 l -0.439577,0.96 z m 0.61401,23.935963 c -0.616,-0.243629 -1.516364,-0.60338 -2.000808,-0.79945 -2.529007,-1.023565 -4.892193,-4.900887 -4.653681,-7.635378 0.103279,-1.184079 0.117496,-1.165868 0.536062,0.686686 0.9044,4.002839 3.445644,6.370145 7.824052,7.288525 1.781193,0.37361 2.092062,0.345415 6.294375,-0.570886 0.56845,-0.123949 0.434841,0.02704 -0.461616,0.521706 -1.608493,0.887545 -5.855902,1.174221 -7.538384,0.508797 z M 3.8793813,38.413096 C 3.2850408,38.265214 2.4210407,37.766891 1.9593811,37.305717 1.1597905,36.506962 1.1148486,36.281691 1.0113309,32.553608 0.9515629,30.401124 0.99643,27.764228 1.1110359,26.693838 l 0.2083738,-1.946163 1.3402954,0.02616 c 0.7371626,0.01439 1.4456632,0.188672 1.5744456,0.387296 0.1287827,0.198624 0.3317184,2.623945 0.4509683,5.389602 0.1698016,3.938055 0.3168557,5.066855 0.6781456,5.205495 0.7749581,0.297379 1.0267198,-0.587817 1.0318359,-3.627949 0.00269,-1.601446 0.094815,-3.977446 0.2047104,-5.280001 l 0.1998103,-2.368281 1.5165252,0.10794 1.5165255,0.107939 0.2013891,2.132061 c 0.356686,3.776142 0.237499,8.317085 -0.2488512,9.481085 C 9.054068,38.05889 6.3408154,39.02554 3.8793817,38.413092 Z M 11.085741,38.179074 C 10.972584,38.065918 10.88,37.349336 10.88,36.586667 v -1.386665 h 1.440001 1.44 v 1.44 c 0,0.792 -0.108,1.456096 -0.24,1.475769 -1.421124,0.211811 -2.263838,0.233725 -2.43426,0.0633 z m 12.517166,-0.23441 C 20.872699,36.970242 19.203922,35.08644 18.972797,32.71796 l -0.148127,-1.517959 0.708093,1.374122 c 0.816055,1.583632 2.528946,2.625879 4.315527,2.625879 3.198003,0 4.003848,-2.225844 1.814279,-5.011265 -0.669588,-0.851805 -1.304247,-1.692736 -1.410355,-1.868736 -0.122995,-0.204012 0.517154,-0.279446 1.766121,-0.208114 4.732341,0.270275 7.855065,4.831094 5.458815,7.972742 -1.581897,2.073971 -5.007543,2.883171 -7.874243,1.860035 z m 10.764506,0.0058 c -0.09488,-0.247248 -0.126359,-0.931248 -0.06996,-1.52 0.09691,-1.011635 0.17729,-1.075872 1.462548,-1.168864 l 1.36,-0.0984 v 1.424163 c 0,1.511107 -0.298797,1.812637 -1.796215,1.812637 -0.431129,0 -0.861498,-0.202291 -0.956373,-0.449536 z m 4.828806,0.204637 c -0.207875,-0.150938 -0.282851,-2.833642 -0.20944,-7.49386 l 0.114346,-7.258759 2.984195,-0.101242 2.984196,-0.101241 0.115283,1.216625 c 0.06341,0.669144 0.05077,1.281144 -0.0281,1.36 -0.07885,0.07887 -0.695367,0.143385 -1.370036,0.143385 h -1.226665 v 1.44 1.44 h 1.28 c 1.249523,0 1.28,0.02667 1.28,1.12 0,0.616 0.0048,1.228 0.01059,1.36 0.0058,0.132 -0.534173,0.312 -1.2,0.4 l -1.210599,0.16 v 1.6 1.600001 l 1.520001,0.09753 1.52,0.09753 v 1.388231 c 0,0.970688 -0.152244,1.446652 -0.506173,1.582467 -0.714768,0.274281 -5.667133,0.232864 -6.05761,-0.05066 z M 20.160001,30.567736 c 0,-0.435747 0.287462,-1.263747 0.638804,-1.84 0.746229,-1.223929 0.856637,-0.607952 0.243283,1.357305 -0.4483,1.436405 -0.882087,1.673781 -0.882087,0.482695 z" />
      </g>
      <path
         style="fill:url(#linearGradient1099);fill-opacity:1;stroke-width:0.226951"
         d="m 14.978728,27.968483 c -0.43688,-0.172788 -1.075436,-0.427932 -1.419014,-0.56699 -1.793622,-0.725939 -3.469641,-3.475837 -3.300483,-5.41521 0.07325,-0.83978 0.08333,-0.826864 0.380186,0.487016 0.641418,2.838918 2.443719,4.517873 5.548974,5.169212 1.263258,0.264974 1.483732,0.244977 4.464097,-0.404887 0.403156,-0.08791 0.308398,0.01918 -0.327388,0.370007 -1.140775,0.62947 -4.153123,0.832789 -5.346372,0.360852 z M 2.2974341,26.920197 C 1.8759159,26.815315 1.2631497,26.461891 0.93573147,26.134815 0.36864581,25.568317 0.33677212,25.408549 0.26335529,22.764495 c -0.0423887,-1.526598 -0.010568,-3.396753 0.0707128,-4.155902 l 0.14778287,-1.38027 0.95056434,0.01855 c 0.5228104,0.0102 1.0252933,0.133811 1.1166283,0.27468 0.091335,0.140869 0.2352613,1.860971 0.3198358,3.822447 0.1204267,2.792971 0.2247204,3.593546 0.4809544,3.691873 0.5496158,0.210909 0.7281702,-0.416895 0.7317987,-2.573036 0.00191,-1.135788 0.067245,-2.820909 0.1451847,-3.744715 l 0.1417095,-1.679647 1.07555,0.07655 1.0755502,0.07655 0.1428292,1.512114 c 0.2529689,2.678149 0.1684391,5.898704 -0.1764902,6.724244 -0.5185404,1.241052 -2.4428335,1.926625 -4.1885316,1.492261 z M 7.4083286,26.754222 C 7.3280754,26.673969 7.262413,26.165751 7.262413,25.624846 v -0.983459 h 1.0212775 1.0212769 v 1.021285 c 0,0.561707 -0.076596,1.032702 -0.1702129,1.046654 -1.0078895,0.150222 -1.6055592,0.165764 -1.7264259,0.04489 z m 8.8774244,-0.166249 c -1.936318,-0.691086 -3.119848,-2.027127 -3.283766,-3.706915 l -0.105055,-1.076576 0.502194,0.974563 c 0.578762,1.123153 1.793579,1.862342 3.060658,1.862342 2.268088,0 2.839609,-1.578627 1.286723,-3.55412 -0.474885,-0.604123 -0.924998,-1.200533 -1.000252,-1.325357 -0.08723,-0.14469 0.366776,-0.19819 1.252568,-0.1476 3.356271,0.191686 5.57097,3.426338 3.871501,5.654477 -1.121913,1.470915 -3.55145,2.04482 -5.584571,1.319186 z m 7.634404,0.0041 c -0.06729,-0.175355 -0.08962,-0.660465 -0.04962,-1.078024 0.06873,-0.717477 0.125738,-0.763036 1.037269,-0.828988 l 0.964539,-0.06979 v 1.010053 c 0,1.071717 -0.211913,1.28557 -1.273912,1.28557 -0.305765,0 -0.610991,-0.14347 -0.678278,-0.318823 z m 3.424685,0.145134 c -0.147429,-0.107049 -0.200603,-2.009693 -0.148539,-5.314841 l 0.0811,-5.148102 2.116451,-0.0718 2.116451,-0.0718 0.08176,0.862862 c 0.04497,0.474575 0.03601,0.908621 -0.01993,0.964548 -0.05592,0.05594 -0.493168,0.101692 -0.971657,0.101692 h -0.869975 v 1.021286 1.021285 h 0.907801 c 0.886187,0 0.907802,0.01892 0.907802,0.794334 0,0.436883 0.0034,0.870929 0.0075,0.964547 0.0041,0.09362 -0.378846,0.221279 -0.851064,0.283691 l -0.858581,0.113476 v 1.134762 1.134762 l 1.078015,0.06917 L 32,24.666258 v 0.98457 c 0,0.688437 -0.107974,1.026003 -0.358988,1.122326 -0.506928,0.194528 -4.019244,0.165154 -4.296178,-0.03593 z M 13.843975,21.356063 c 0,-0.309043 0.203874,-0.896283 0.453053,-1.304976 0.529241,-0.868043 0.607544,-0.431176 0.172541,0.962636 -0.317943,1.018736 -0.625594,1.187089 -0.625594,0.34234 z"
         id="path1058" />
    </g>
  </g>
</svg>
