<?xml version="1.0" encoding="UTF-8" standalone="no"?>
<svg
   xmlns:dc="http://purl.org/dc/elements/1.1/"
   xmlns:cc="http://creativecommons.org/ns#"
   xmlns:rdf="http://www.w3.org/1999/02/22-rdf-syntax-ns#"
   xmlns:svg="http://www.w3.org/2000/svg"
   xmlns="http://www.w3.org/2000/svg"
   width="287.99927pt"
   height="295.85019pt"
   viewBox="0 0 287.99926 295.85018"
   version="1.2"
   id="svg99">
  <metadata
     id="metadata105">
    <rdf:RDF>
      <cc:Work
         rdf:about="">
        <dc:format>image/svg+xml</dc:format>
        <dc:type
           rdf:resource="http://purl.org/dc/dcmitype/StillImage" />
        <dc:title></dc:title>
      </cc:Work>
    </rdf:RDF>
  </metadata>
  <defs
     id="defs103" />
  <g
     id="surface5740"
     transform="translate(-153.63355,-237.02735)">
    <path
       style="fill:#78cf94;fill-opacity:1;fill-rule:nonzero;stroke:none"
       d="m 259.92187,316.45703 h 75.05079 l 38.83593,54.98438 -34.03515,78.53906 h -82.90625 l -33.59766,-79.41406 z m 0,0"
       id="path2" />
    <path
       style="fill:#35b85e;fill-opacity:1;fill-rule:nonzero;stroke:none"
       d="m 263.84375,321.69531 h 68.94531 l 33.60156,51.04688 -33.16015,48.43359 H 264.72266 L 230.6875,372.74219 Z m 0,0"
       id="path4" />
    <path
       style="fill:#ffffff;fill-opacity:1;fill-rule:nonzero;stroke:none"
       d="m 273.07031,424.95312 v 18.1875 h 5.67578 v 4.5586 h -15 v -22.7461 z m 0,0"
       id="path6" />
    <path
       style="fill:#ffffff;fill-opacity:1;fill-rule:nonzero;stroke:none"
       d="m 301.80469,433.32422 h -9.32422 v -2.07031 c 0,-1.30469 -0.0859,-2.1211 -0.26563,-2.45313 -0.17968,-0.32812 -0.60156,-0.49219 -1.26953,-0.49219 -0.57812,0 -0.97265,0.14063 -1.17969,0.42188 -0.20703,0.27734 -0.3125,1.0039 -0.3125,2.17187 v 10.9375 c 0,1.02344 0.10547,1.69532 0.3125,2.01953 0.20704,0.32032 0.625,0.48438 1.25,0.48438 0.6875,0 1.14844,-0.18359 1.39454,-0.55078 0.24609,-0.36328 0.37109,-1.08203 0.37109,-2.14063 v -2.70703 h -1.91016 v -3.46484 h 10.9336 v 12.21875 h -5.85547 l -0.86328,-1.62891 c -0.63672,0.69922 -1.44141,1.23047 -2.41016,1.58594 -0.96875,0.35547 -2.10937,0.53125 -3.42578,0.53125 -1.57031,0 -3.03906,-0.23828 -4.40625,-0.72266 -1.37109,-0.48047 -2.41016,-1.08203 -3.11719,-1.79297 -0.71484,-0.71484 -1.15625,-1.46093 -1.33594,-2.24218 -0.17968,-0.78125 -0.26171,-1.95703 -0.26171,-3.52344 v -6.76953 c 0,-2.17188 0.17968,-3.7461 0.55078,-4.73828 0.36718,-0.98438 1.42968,-1.88672 3.17968,-2.70703 1.75391,-0.82032 4.01954,-1.23047 6.79688,-1.23047 2.73828,0 5.00391,0.35937 6.80859,1.07031 1.80078,0.71094 2.97657,1.55469 3.52344,2.54297 0.54688,0.97656 0.81641,2.39844 0.81641,4.26953 z m 0,0"
       id="path8" />
    <path
       style="fill:#ffffff;fill-opacity:1;fill-rule:nonzero;stroke:none"
       d="m 334.17578,424.95312 v 22.7461 h -8.15234 l -0.0156,-15.35547 -3.23047,15.35547 h -5.78125 l -3.42578,-15.02735 -0.0117,15.02735 h -8.15625 v -22.7461 h 12.07813 c 0.34765,1.36719 0.71484,2.98047 1.10156,4.83985 l 1.31641,5.77734 2.12109,-10.61719 z m 0,0"
       id="path10" />
    <path
       style="fill:#c5a635;fill-opacity:1;fill-rule:nonzero;stroke:none"
       d="m 389.42578,388.54687 c 0.75,-24.46875 -8.07031,-47.75781 -24.84375,-65.58203 -16.77344,-17.82422 -39.48437,-28.04687 -63.95703,-28.78515 -24.48047,-0.73828 -47.77734,8.09375 -65.60156,24.875 -17.8125,16.76953 -28.02735,39.48047 -28.76172,63.94531 -0.73828,24.47266 8.09375,47.76562 24.87109,65.58203 16.76953,17.8125 39.47266,28.02734 63.92969,28.76563 24.46875,0.74609 47.76172,-8.07813 65.58594,-24.85157 17.82422,-16.77343 28.04297,-39.48437 28.77734,-63.94922 m 8.03516,19.71094 c -1.07813,4.83594 -2.50782,9.56641 -4.26953,14.16406 l 11.29296,6.12891 -7.08203,13.04297 -10.53906,-5.72656 c -2.84375,5.04297 -6.12891,9.85547 -9.83984,14.38672 l 8.67968,9.5664 -10.99218,9.97656 -7.91407,-8.73046 c -3.83593,3.51171 -7.88671,6.69921 -12.125,9.55078 l 5.72266,10.6914 -13.08203,7.00391 -5.52734,-10.33203 c -4.60547,2.20312 -9.3711,4.04687 -14.25391,5.52734 l 2.10547,11.85547 -14.60938,2.59375 -1.99218,-11.20703 c -5.25782,0.78125 -10.61329,1.15234 -16.02344,1.10547 v 9.68359 h -14.83594 v -10.87109 c -5,-0.76172 -9.90625,-1.89453 -14.68359,-3.3711 l -4.28125,11.07032 -13.83985,-5.35157 4.30469,-11.13281 c -4.78125,-2.29297 -9.37891,-4.97265 -13.76562,-8.00781 l -7.4961,9.91797 -11.83203,-8.95313 7.76563,-10.27343 c -1.65625,-1.54297 -3.27344,-3.14063 -4.83985,-4.80469 -2.14844,-2.28516 -4.17578,-4.65235 -6.08984,-7.08985 l -11.38281,6.58594 -7.4336,-12.83984 10.50781,-6.08203 c -2.55468,-4.46485 -4.75781,-9.10157 -6.59765,-13.875 l -10.83594,3.23437 -4.25,-14.21484 10.79297,-3.22266 c -1.19922,-5.34765 -1.96484,-10.8164 -2.28906,-16.36328 l -12.11328,-0.62109 0.76171,-14.81641 11.54297,0.58984 c 0.41016,-4.86328 1.15625,-9.65625 2.23047,-14.34765 l -11.96875,-4.125 4.83985,-14.02735 11.5,3.96875 c 1.97265,-5.05468 4.35546,-9.93359 7.125,-14.61328 l -9.59766,-7.75 9.32422,-11.54687 8.76172,7.07812 c 2.91015,-3.59765 6.08203,-7.02734 9.51172,-10.2539 0.625,-0.58985 1.25781,-1.17188 1.89453,-1.74219 l -8.33203,-9.1875 10.99218,-9.96875 9.10938,10.04687 c 3.85937,-2.5625 7.875,-4.84765 12.01953,-6.84375 l -4.60547,-10.89843 13.67188,-5.76953 4.73437,11.21875 c 4.83594,-1.51172 9.79297,-2.65625 14.84375,-3.42969 v -12.91016 h 14.83594 v 11.73047 c 1.30859,-0.0117 2.61719,-0.004 3.92969,0.0352 3.74609,0.11328 7.45312,0.43359 11.11328,0.9375 l 3.33203,-11.75782 14.27344,4.04688 -3.0625,10.81641 c 4.8789,1.42187 9.6289,3.20312 14.22265,5.33203 l 6.45313,-9.875 12.42187,8.11718 -5.8789,8.9961 c 4.64843,3.05859 9.07031,6.50781 13.21875,10.34375 l 9.09765,-7.44141 9.39844,11.48438 -8.32031,6.80078 c 3.5664,4.38672 6.73047,9.03125 9.48828,13.87109 l 10.66406,-4.45703 5.71875,13.69531 -10.00391,4.17969 c 1.76172,4.53906 3.19532,9.20703 4.28516,13.97266 l 12.21484,-1.08985 1.31641,14.77735 -11.28125,1.0039 c 0.29688,3.76563 0.39844,7.56641 0.28125,11.39453 -0.0469,1.57032 -0.13281,3.13672 -0.25,4.69141 l 11.80078,2.55078 -3.13672,14.5 z m -82.88672,-26.78125 c 4.47265,0 5.45703,-6.875 5.45703,-6.875 h -9.92969 c 0,0 1.3086,6.875 4.47266,6.875 m -11.3086,24.14063 c -11.92968,11.92968 -20.07421,10.17968 -20.07421,10.17968 0,0 4.94531,-7.55859 5.82031,-10.17968 0.87109,-2.61719 -10.76563,3.49609 -10.76563,3.49609 5.53125,-3.49609 7.27735,-14.25781 7.27735,-14.25781 v -64.57813 h 23.55859 v 13.66797 l -9.30859,-6.6914 v 5.24218 l 9.59765,6.6836 v 4.94922 l -9.88672,-6.98047 v 4.07031 l 9.59766,7.41406 v 3.35156 l -9.30859,-7.27343 v 4.65625 l 9.59765,6.6875 v 4.07422 l -9.88672,-7.56641 v 3.78516 l 9.59766,7.26953 v 25.01953 c 0,3.78125 8.4375,11.63281 8.4375,11.63281 -7.56641,2.61719 -14.25391,-4.65234 -14.25391,-4.65234"
       id="path12" />
    <path
       style="fill:#35b85e;fill-opacity:1;fill-rule:nonzero;stroke:none"
       d="m 167.15234,384.27734 c -0.11328,3.73438 -3.23047,6.66407 -6.96093,6.55469 -3.73438,-0.11328 -6.66797,-3.23047 -6.55469,-6.96484 0.10937,-3.73438 3.22656,-6.66797 6.96094,-6.55469 3.73046,0.11328 6.67187,3.23047 6.55468,6.96484"
       id="path14" />
    <path
       style="fill:#35b85e;fill-opacity:1;fill-rule:nonzero;stroke:none"
       d="m 441.61719,384.27734 c -0.11328,3.73438 -3.23047,6.66407 -6.96875,6.55469 -3.72657,-0.11328 -6.66407,-3.23047 -6.55078,-6.96484 0.11718,-3.73438 3.23437,-6.66797 6.96875,-6.55469 3.73046,0.11328 6.66406,3.23047 6.55078,6.96484"
       id="path16" />
    <path
       style="fill:#35b85e;fill-opacity:1;fill-rule:nonzero;stroke:none"
       d="m 173.73047,361.97266 -19.33203,-4.41407 0.89843,-3.93359 16.05079,3.66016 2.23046,-9.78516 3.28516,0.75391 z m 0,0"
       id="path18" />
    <path
       style="fill:#35b85e;fill-opacity:1;fill-rule:nonzero;stroke:none"
       d="m 177.19531,347.22656 -18.78125,-6.85156 5.08203,-13.92188 3.17969,1.15625 -3.69922,10.13282 4.16406,1.51953 3.4375,-9.42969 3.16407,1.16016 -3.4375,9.42187 5.10937,1.8711 3.83203,-10.4961 3.16407,1.15625 z m 0,0"
       id="path20" />
    <path
       style="fill:#35b85e;fill-opacity:1;fill-rule:nonzero;stroke:none"
       d="m 182.91797,331.5 -17.54297,-9.59375 2.90234,-5.30078 13.70313,3.36328 -10.24219,-9.69141 2.90234,-5.3164 17.54297,9.59765 -1.79687,3.28516 -13.8125,-7.54688 11.90625,11.03516 -1.86328,3.41016 -15.71094,-4.08594 13.8125,7.55469 z m 0,0"
       id="path22" />
    <path
       style="fill:#35b85e;fill-opacity:1;fill-rule:nonzero;stroke:none"
       d="m 189.07812,304.25391 4.23047,3.27343 2.28125,-2.95703 c 0.89063,-1.15625 1.42188,-1.91015 1.59766,-2.26953 0.28125,-0.54297 0.37109,-1.08984 0.26562,-1.64453 -0.10546,-0.55859 -0.4375,-1.05078 -1,-1.48828 -0.47265,-0.36328 -0.96093,-0.5625 -1.47656,-0.58594 -0.50781,-0.0234 -1.0039,0.12109 -1.48828,0.4375 -0.49219,0.31641 -1.29297,1.20313 -2.41797,2.65625 z m -6.28906,-4.85938 3.65625,2.82422 1.61719,-2.08984 c 0.96484,-1.2461 1.54297,-2.03125 1.73828,-2.35938 0.35938,-0.59766 0.5,-1.17187 0.42969,-1.73047 -0.0703,-0.55078 -0.36328,-1.02734 -0.8711,-1.42578 -0.48828,-0.375 -0.99218,-0.54687 -1.5039,-0.51953 -0.51563,0.0352 -1.01172,0.30078 -1.48438,0.77734 -0.28125,0.29297 -1.0039,1.1836 -2.16406,2.69141 z m -5.10156,1.16016 4.88281,-6.32813 c 0.96875,-1.24609 1.74219,-2.14062 2.32031,-2.67578 0.58204,-0.53125 1.22657,-0.91406 1.92969,-1.14453 0.71094,-0.23438 1.46485,-0.29688 2.26172,-0.19141 0.79688,0.0977 1.54297,0.41407 2.22266,0.94141 0.74609,0.57422 1.26562,1.30078 1.58203,2.17578 0.30859,0.87891 0.35156,1.78125 0.13281,2.69922 1.02734,-0.74609 2.07422,-1.11719 3.15234,-1.11328 1.07813,0.008 2.07422,0.36328 2.98829,1.07031 0.71484,0.55469 1.28906,1.26172 1.70703,2.12109 0.42578,0.85938 0.61328,1.73829 0.57031,2.62891 -0.0391,0.89063 -0.34375,1.79688 -0.90625,2.72266 -0.35156,0.57422 -1.30859,1.88672 -2.86719,3.93359 l -4.16015,5.38281 z m 0,0"
       id="path24" />
    <path
       style="fill:#35b85e;fill-opacity:1;fill-rule:nonzero;stroke:none"
       d="m 206.99609,285.30859 -7.13281,-3.42578 3.21094,7.20703 z m 10.83594,0.53125 -3.16016,3.05078 -4.40625,-2.05859 -5.75,5.54297 1.96094,4.41406 -3.07812,2.97266 -8.26953,-19.78906 3.0664,-2.96094 z m 0,0"
       id="path26" />
    <path
       style="fill:#35b85e;fill-opacity:1;fill-rule:nonzero;stroke:none"
       d="m 221.64844,274.19141 -1.91407,-2.76563 7.14844,-4.95312 4.53516,6.54296 c -0.22656,1.15625 -0.82422,2.44532 -1.78516,3.86719 -0.96875,1.42969 -2.125,2.60938 -3.47656,3.54688 -1.72266,1.1914 -3.46875,1.87109 -5.24609,2.03125 -1.77735,0.16406 -3.45313,-0.20313 -5.02735,-1.09766 -1.57031,-0.89453 -2.90625,-2.13281 -3.99609,-3.71094 -1.1875,-1.70703 -1.87891,-3.48047 -2.08203,-5.30468 -0.20703,-1.82813 0.13672,-3.57422 1.02734,-5.2461 0.67969,-1.27344 1.80078,-2.45703 3.36719,-3.54297 2.04297,-1.41015 3.93359,-2.08984 5.67187,-2.02734 1.74219,0.0625 3.29688,0.73437 4.67188,2.01172 l -2.8711,2.90234 c -0.78515,-0.64453 -1.66406,-0.98047 -2.625,-1.00781 -0.96484,-0.0234 -1.92578,0.29687 -2.88281,0.95703 -1.44531,1.00781 -2.28515,2.26172 -2.5,3.77344 -0.22265,1.51562 0.29688,3.17578 1.55078,4.98047 1.34766,1.95312 2.79688,3.11718 4.34375,3.48828 1.53516,0.3789 3.01172,0.0781 4.41797,-0.89453 0.69531,-0.48438 1.29688,-1.10547 1.80469,-1.85938 0.51172,-0.7539 0.88281,-1.5039 1.11328,-2.23828 l -1.44141,-2.08594 z m 0,0"
       id="path28" />
    <path
       style="fill:#35b85e;fill-opacity:1;fill-rule:nonzero;stroke:none"
       d="m 240.48047,262.4375 -5.80469,-5.375 0.94141,7.83594 z m 10.20312,3.71094 -3.91797,1.98047 -3.60546,-3.26563 -7.13672,3.60547 0.57812,4.79687 -3.82031,1.92969 -2.07031,-21.35547 3.80468,-1.92968 z m 0,0"
       id="path30" />
    <path
       style="fill:#35b85e;fill-opacity:1;fill-rule:nonzero;stroke:none"
       d="m 262.51172,254.71875 -0.92578,-3.23438 8.36718,-2.38671 2.1875,7.65625 c -0.58984,1.01562 -1.57031,2.04687 -2.9414,3.08593 -1.36719,1.03907 -2.84766,1.78907 -4.42969,2.23047 -2.01172,0.58203 -3.88281,0.66016 -5.61719,0.24219 -1.73828,-0.41797 -3.20703,-1.30078 -4.40625,-2.65625 -1.19922,-1.35547 -2.0625,-2.95703 -2.59375,-4.80078 -0.5664,-2 -0.65234,-3.90235 -0.26172,-5.69922 0.39844,-1.79297 1.28125,-3.33594 2.66407,-4.63281 1.05078,-0.98047 2.49609,-1.74219 4.33203,-2.26563 2.38281,-0.68359 4.39453,-0.71094 6.01953,-0.0977 1.625,0.61718 2.88672,1.7539 3.77734,3.41015 l -3.65234,1.82422 c -0.54297,-0.86719 -1.26563,-1.46094 -2.16797,-1.79687 -0.90234,-0.33985 -1.91406,-0.34375 -3.03516,-0.0195 -1.6914,0.48047 -2.89062,1.40625 -3.58203,2.76563 -0.69531,1.36328 -0.73828,3.09766 -0.13672,5.21484 0.65235,2.28125 1.64844,3.84766 2.98829,4.70313 1.33984,0.84375 2.83203,1.03906 4.47265,0.57031 0.8125,-0.23437 1.58594,-0.625 2.3125,-1.17969 0.72656,-0.55078 1.31641,-1.13672 1.77344,-1.75781 l -0.69922,-2.44141 z m 0,0"
       id="path32" />
    <path
       style="fill:#35b85e;fill-opacity:1;fill-rule:nonzero;stroke:none"
       d="m 274.89453,259.125 -2.63281,-19.81641 14.69531,-1.94922 0.44531,3.35157 -10.69531,1.42187 0.58594,4.39453 9.94922,-1.32422 0.4414,3.33985 -9.94922,1.3164 0.71485,5.39844 11.07031,-1.46875 0.44531,3.33985 z m 0,0"
       id="path34" />
    <path
       style="fill:#35b85e;fill-opacity:1;fill-rule:nonzero;stroke:none"
       d="m 296.05078,257.08203 -0.10156,-16.60937 -5.9336,0.0352 -0.0195,-3.38281 15.88672,-0.0977 0.0234,3.38282 -5.91797,0.0391 0.10156,16.60937 z m 0,0"
       id="path36" />
    <path
       style="fill:#35b85e;fill-opacity:1;fill-rule:nonzero;stroke:none"
       d="m 316.19531,250.25 -1.92578,-7.67188 -3.50391,7.07422 z m 6.51953,8.67578 -4.36718,-0.47656 -1.23438,-4.70703 -7.94531,-0.875 -2.13672,4.33203 -4.25781,-0.46875 9.92968,-19.02344 4.24219,0.46875 z m 0,0"
       id="path38" />
    <path
       style="fill:#35b85e;fill-opacity:1;fill-rule:nonzero;stroke:none"
       d="m 322.98047,259.11719 5.0039,-19.35938 3.90625,1.01172 -1.96875,7.61719 7.66016,1.98047 1.96875,-7.6211 3.90625,1.01563 -5,19.35156 -3.91016,-1.00781 2.1875,-8.46094 -7.66015,-1.98047 -2.1875,8.46485 z m 0,0"
       id="path40" />
    <path
       style="fill:#35b85e;fill-opacity:1;fill-rule:nonzero;stroke:none"
       d="m 346.34375,265.83984 8.8125,-17.9414 5.42187,2.66406 -2.75,13.83984 9.22657,-10.66406 5.4375,2.67188 -8.8125,17.9414 -3.36328,-1.64844 6.93359,-14.1289 -10.5,12.3789 -3.48438,-1.71093 3.38282,-15.875 -6.9336,14.1289 z m 0,0"
       id="path42" />
    <path
       style="fill:#35b85e;fill-opacity:1;fill-rule:nonzero;stroke:none"
       d="m 378.73828,275.23828 2.01953,-7.64844 -6.47656,4.50391 z m 1.51953,10.74219 -3.58594,-2.53125 1.1836,-4.71485 -6.52735,-4.60546 -3.96875,2.76562 -3.49609,-2.46875 17.88281,-11.85156 3.48047,2.45703 z m 0,0"
       id="path44" />
    <path
       style="fill:#35b85e;fill-opacity:1;fill-rule:nonzero;stroke:none"
       d="m 380.43359,286.42969 13.46875,-14.54297 2.96094,2.74219 -11.17578,12.07031 7.35937,6.82031 -2.28906,2.46875 z m 0,0"
       id="path46" />
    <path
       style="fill:#35b85e;fill-opacity:1;fill-rule:nonzero;stroke:none"
       d="m 404.37109,299.875 3.95313,-6.85547 -7.4336,2.65625 z m -1.35156,10.76953 -2.80078,-3.38281 2.38281,-4.24219 -5.09375,-6.15234 -4.55469,1.6289 -2.73046,-3.30078 20.36718,-6.7539 2.71875,3.28515 z m 0,0"
       id="path48" />
    <path
       style="fill:#35b85e;fill-opacity:1;fill-rule:nonzero;stroke:none"
       d="m 404.42187,313.33984 7.0625,-4.58203 5.72657,-12.44531 2.57422,3.97656 -4.07422,8.25 9.14453,-0.4375 2.53125,3.90235 -13.73828,0.14843 -7.03516,4.5586 z m 0,0"
       id="path50" />
    <path
       style="fill:#35b85e;fill-opacity:1;fill-rule:nonzero;stroke:none"
       d="m 416.05078,319.45703 2.02734,3.38281 c -1.08984,0.77735 -1.75781,1.6211 -2.0039,2.54297 -0.25,0.91797 -0.10938,1.9336 0.41406,3.03906 0.55469,1.17579 1.22266,1.94532 2.00391,2.30079 0.78125,0.35937 1.5039,0.38281 2.16797,0.0664 0.42578,-0.19922 0.73437,-0.49609 0.91015,-0.89453 0.17969,-0.38672 0.23828,-0.94922 0.16016,-1.68359 -0.0508,-0.49219 -0.25391,-1.59375 -0.59375,-3.28907 -0.44531,-2.18359 -0.4961,-3.83593 -0.16797,-4.96484 0.46875,-1.57812 1.41797,-2.70703 2.84766,-3.38281 0.91796,-0.4375 1.90234,-0.58594 2.95312,-0.44531 1.04688,0.14062 2.01172,0.60546 2.89844,1.39062 0.8789,0.77734 1.65625,1.86328 2.3125,3.25391 1.07422,2.26953 1.38672,4.20703 0.9375,5.82812 -0.44922,1.61719 -1.49219,2.84766 -3.125,3.69141 l -1.88672,-3.57031 c 0.85547,-0.59766 1.36328,-1.25 1.52344,-1.95704 0.16406,-0.70703 0.004,-1.57031 -0.48438,-2.59765 -0.5039,-1.0586 -1.11719,-1.78516 -1.83594,-2.1836 -0.45703,-0.24609 -0.92578,-0.26171 -1.39062,-0.043 -0.42969,0.20312 -0.70703,0.55859 -0.84375,1.0625 -0.16797,0.64062 -0.0391,1.95312 0.38672,3.92187 0.42187,1.97656 0.60547,3.49219 0.5625,4.55469 -0.043,1.0625 -0.33985,2.01562 -0.88672,2.86328 -0.54688,0.85156 -1.39453,1.54687 -2.53516,2.08594 -1.03515,0.49218 -2.14062,0.66406 -3.3164,0.51953 -1.17578,-0.14844 -2.23047,-0.64453 -3.16797,-1.48438 -0.9375,-0.84375 -1.78125,-2.05078 -2.52344,-3.61718 -1.08594,-2.28125 -1.39062,-4.28907 -0.91016,-6.00782 0.46875,-1.72656 1.66407,-3.1875 3.56641,-4.38281"
       id="path52" />
    <path
       style="fill:#35b85e;fill-opacity:1;fill-rule:nonzero;stroke:none"
       d="m 417.45703,338.35547 18.75391,-6.91406 1.39453,3.78515 -18.75391,6.91016 z m 0,0"
       id="path54" />
    <path
       style="fill:#35b85e;fill-opacity:1;fill-rule:nonzero;stroke:none"
       d="m 430.08984,352.26562 6.47657,-4.54296 -7.86329,-0.73047 z m -5.76953,9.19922 -1.11328,-4.25 3.94922,-2.83984 -2.02734,-7.73047 -4.8125,-0.44531 -1.08204,-4.14063 21.31641,2.45703 1.08203,4.13282 z m 0,0"
       id="path56" />
    <path
       style="fill:#35b85e;fill-opacity:1;fill-rule:nonzero;stroke:none"
       d="m 154.34766,409.21094 19.52343,-4.28516 1.29688,5.89844 -12.54297,6.46094 14.08984,0.58203 1.29297,5.91406 -19.52344,4.28516 -0.80078,-3.66797 15.36719,-3.36719 -16.21875,-0.50781 -0.82812,-3.79297 14.51562,-7.23047 -15.36328,3.36719 z m 0,0"
       id="path58" />
    <path
       style="fill:#35b85e;fill-opacity:1;fill-rule:nonzero;stroke:none"
       d="m 171.25391,439.70312 5.90625,-5.26953 -7.89454,0.1836 z m -4.66407,9.79688 -1.60156,-4.08594 3.59766,-3.27734 -2.91016,-7.44531 -4.83203,0.11328 -1.55469,-3.98828 21.45703,-0.0234 1.55078,3.97265 z m 0,0"
       id="path60" />
    <path
       style="fill:#35b85e;fill-opacity:1;fill-rule:nonzero;stroke:none"
       d="m 168.15234,452.25391 17.32813,-9.63282 1.96094,3.52344 -14.38282,8 4.875,8.77344 -2.9414,1.63672 z m 0,0"
       id="path62" />
    <path
       style="fill:#35b85e;fill-opacity:1;fill-rule:nonzero;stroke:none"
       d="m 189.67969,471.46875 4.29687,-6.64453 -7.55859,2.27344 z m -1.88672,10.6875 -2.62891,-3.52344 2.59375,-4.11328 -4.78125,-6.40234 -4.6289,1.39843 -2.5586,-3.43359 20.67578,-5.72266 2.55078,3.42188 z m 0,0"
       id="path64" />
    <path
       style="fill:#35b85e;fill-opacity:1;fill-rule:nonzero;stroke:none"
       d="m 191.80078,486.15234 6.08594,-5.80468 3.3164,-13.28907 3.26563,3.42188 -2.46875,8.85937 8.89844,-2.1289 3.21484,3.36328 -13.46875,2.70312 -6.0625,5.78516 z m 0,0"
       id="path66" />
    <path
       style="fill:#35b85e;fill-opacity:1;fill-rule:nonzero;stroke:none"
       d="m 205.14453,490.51562 3.30469,2.16016 c -0.63672,1.17578 -0.86719,2.23047 -0.69141,3.16406 0.17969,0.9336 0.75,1.78125 1.70313,2.55469 1.01562,0.80859 1.95312,1.20313 2.8125,1.1875 0.85547,-0.0195 1.51562,-0.3125 1.98047,-0.89062 0.29296,-0.3711 0.4375,-0.76563 0.42968,-1.19922 -0.0117,-0.4336 -0.21093,-0.95703 -0.59765,-1.58594 -0.26563,-0.42188 -0.92578,-1.32031 -1.97657,-2.69922 -1.35156,-1.76953 -2.1289,-3.23437 -2.32031,-4.39062 -0.27344,-1.625 0.0859,-3.0586 1.07813,-4.28907 0.63281,-0.79687 1.45312,-1.35937 2.46093,-1.6914 1.00391,-0.33203 2.07422,-0.33985 3.21094,-0.0234 1.13672,0.32031 2.3086,0.95703 3.50781,1.91797 1.96094,1.57031 3.08985,3.17578 3.39063,4.82422 0.30469,1.65625 -0.0937,3.21875 -1.19141,4.6914 l -3.26172,-2.38281 c 0.50782,-0.91016 0.67969,-1.71875 0.51563,-2.42578 -0.16406,-0.70703 -0.6875,-1.41406 -1.57031,-2.125 -0.92188,-0.73047 -1.78516,-1.11719 -2.60547,-1.16016 -0.52344,-0.0195 -0.95313,0.16797 -1.27344,0.57422 -0.29687,0.36719 -0.39453,0.80469 -0.29297,1.32031 0.13281,0.65235 0.81641,1.77344 2.0625,3.35938 1.24219,1.58984 2.07813,2.87109 2.5,3.84766 0.42969,0.97656 0.58203,1.96875 0.45703,2.97265 -0.12109,0.9961 -0.57812,1.9961 -1.37109,2.97656 -0.71094,0.89454 -1.63281,1.53516 -2.75391,1.91797 -1.11718,0.38282 -2.28906,0.40235 -3.5,0.0508 -1.21093,-0.34375 -2.5,-1.05859 -3.85156,-2.14453 -1.97656,-1.58203 -3.125,-3.25 -3.45312,-5.0039 -0.32813,-1.76172 0.10546,-3.59766 1.29687,-5.50782"
       id="path68" />
    <path
       style="fill:#35b85e;fill-opacity:1;fill-rule:nonzero;stroke:none"
       d="m 217.30859,507.95703 10.92578,-16.74219 3.38282,2.20703 -10.92578,16.74219 z m 0,0"
       id="path70" />
    <path
       style="fill:#35b85e;fill-opacity:1;fill-rule:nonzero;stroke:none"
       d="m 237.62109,510.60937 0.95703,-7.85156 -5.80468,5.35547 z m 2.97657,10.4375 -3.90235,-2.01171 0.53516,-4.83594 -7.10156,-3.66406 -3.55079,3.27734 -3.80468,-1.96094 16.08593,-14.19922 3.79297,1.96094 z m 0,0"
       id="path72" />
    <path
       style="fill:#35b85e;fill-opacity:1;fill-rule:nonzero;stroke:none"
       d="m 243.44531,522.11328 6.49219,-18.91016 3.71484,1.27735 3.40235,15.28515 4.33984,-12.6289 3.54688,1.22265 -6.4961,18.90235 -3.83203,-1.3125 -3.38672,-14.95313 -4.23437,12.33203 z m 0,0"
       id="path74" />
    <path
       style="fill:#35b85e;fill-opacity:1;fill-rule:nonzero;stroke:none"
       d="m 277.30859,519.45703 2.96094,0.375 c 1.92188,0.24219 3.12891,0.30859 3.63281,0.21094 0.4961,-0.10547 0.90625,-0.33594 1.22657,-0.69922 0.32031,-0.36328 0.51953,-0.83984 0.59375,-1.4375 0.0859,-0.66406 -0.0234,-1.22656 -0.33204,-1.68359 -0.30078,-0.45704 -0.77343,-0.77735 -1.41015,-0.96875 -0.31641,-0.0859 -1.28906,-0.23438 -2.91016,-0.4375 l -3.1289,-0.39454 z m -5.44922,10.9375 2.5,-19.83594 8.4336,1.07032 c 2.11719,0.26171 3.63672,0.63671 4.55078,1.11328 0.91797,0.48047 1.60547,1.20703 2.06641,2.1914 0.46484,0.98438 0.61718,2.06641 0.47265,3.23438 -0.1875,1.49219 -0.78125,2.66406 -1.78125,3.51953 -0.99609,0.86328 -2.3789,1.3125 -4.15625,1.33984 0.80469,0.61719 1.44922,1.26172 1.94141,1.9375 0.48437,0.67578 1.10937,1.84375 1.87109,3.50782 l 1.92969,4.17187 -4.78906,-0.60156 -2.34766,-4.6836 c -0.83594,-1.67187 -1.41797,-2.73046 -1.74219,-3.17968 -0.33203,-0.45313 -0.69531,-0.77735 -1.10156,-0.97657 -0.40625,-0.20312 -1.06641,-0.36328 -1.98437,-0.48046 l -0.8125,-0.10157 -1.05079,8.27735 z m 0,0"
       id="path76" />
    <path
       style="fill:#35b85e;fill-opacity:1;fill-rule:nonzero;stroke:none"
       d="m 292.36328,512.68359 4.03516,-0.0703 0.1875,10.82422 c 0.0312,1.72266 0.0976,2.83203 0.21093,3.33984 0.1836,0.81641 0.60547,1.46875 1.26563,1.94922 0.65625,0.48438 1.55078,0.71875 2.67969,0.69922 1.14453,-0.0195 2.0039,-0.27344 2.57422,-0.75 0.57421,-0.47656 0.91796,-1.05859 1.01953,-1.73828 0.11328,-0.6875 0.14843,-1.82031 0.12109,-3.40234 l -0.19141,-11.0586 4.03516,-0.0742 0.18359,10.50391 c 0.0391,2.40234 -0.0351,4.09766 -0.23828,5.08984 -0.19922,0.9961 -0.58593,1.83594 -1.16406,2.53125 -0.57031,0.69141 -1.35156,1.2461 -2.32422,1.66797 -0.97265,0.42188 -2.2539,0.64844 -3.83203,0.67969 -1.91406,0.0273 -3.36328,-0.16797 -4.35547,-0.58984 -0.99609,-0.42188 -1.78515,-0.98438 -2.37109,-1.67579 -0.58203,-0.69921 -0.97266,-1.42578 -1.16797,-2.19531 -0.28516,-1.14062 -0.44531,-2.82812 -0.48438,-5.0664 z m 0,0"
       id="path78" />
    <path
       style="fill:#35b85e;fill-opacity:1;fill-rule:nonzero;stroke:none"
       d="m 316.32031,522.71484 0.85547,5.27344 3.68359,-0.59766 c 1.4375,-0.23437 2.34375,-0.41796 2.71094,-0.5625 0.57813,-0.20703 1.01563,-0.54687 1.32031,-1.02343 0.3086,-0.48438 0.39844,-1.06641 0.28907,-1.77344 -0.0977,-0.58594 -0.32422,-1.06641 -0.67578,-1.43359 -0.35547,-0.36329 -0.82032,-0.59375 -1.39454,-0.69922 -0.57031,-0.0977 -1.76562,0 -3.57812,0.29297 z m -1.27734,-7.84375 0.74219,4.5586 2.60937,-0.42188 c 1.55078,-0.25781 2.51172,-0.4375 2.88281,-0.53515 0.66797,-0.19532 1.16407,-0.51563 1.49219,-0.96875 0.32813,-0.45704 0.4375,-1.00391 0.33594,-1.64063 -0.10156,-0.60937 -0.34766,-1.07422 -0.7461,-1.40234 -0.39843,-0.32422 -0.9375,-0.47657 -1.60937,-0.44922 -0.40625,0.0195 -1.54688,0.17969 -3.41797,0.48437 z m -4.51953,-2.64062 7.88672,-1.27735 c 1.55859,-0.2539 2.73828,-0.3789 3.52343,-0.37109 0.78907,0.008 1.51953,0.16406 2.19532,0.47656 0.66796,0.3125 1.26171,0.78516 1.78125,1.40235 0.51171,0.62109 0.83984,1.35547 0.97656,2.21484 0.14844,0.91797 0.0391,1.80859 -0.33203,2.66406 -0.375,0.85157 -0.95313,1.53907 -1.7461,2.0625 1.26172,0.15235 2.28125,0.59766 3.06641,1.33985 0.78516,0.73437 1.26562,1.67578 1.45312,2.8125 0.14063,0.90234 0.0781,1.80859 -0.19921,2.72265 -0.28516,0.91407 -0.7461,1.6836 -1.38282,2.3086 -0.64062,0.625 -1.47656,1.08203 -2.51953,1.37109 -0.65234,0.17578 -2.24609,0.48438 -4.77734,0.91406 l -6.71875,1.08985 z m 0,0"
       id="path80" />
    <path
       style="fill:#35b85e;fill-opacity:1;fill-rule:nonzero;stroke:none"
       d="m 335.57422,518.72266 1.60547,5.09765 3.5625,-1.125 c 1.39062,-0.4375 2.25781,-0.75781 2.60547,-0.94922 0.53906,-0.28515 0.92578,-0.6875 1.15625,-1.20703 0.23437,-0.51562 0.24218,-1.11328 0.0273,-1.78906 -0.17969,-0.56641 -0.47266,-1.00781 -0.87109,-1.32031 -0.41016,-0.3125 -0.89844,-0.47657 -1.48047,-0.49219 -0.58594,-0.0156 -1.75,0.25 -3.5,0.80859 z m -2.39844,-7.57813 1.39063,4.41016 2.52343,-0.80078 c 1.5,-0.47266 2.42578,-0.78907 2.77735,-0.94532 0.63281,-0.28906 1.07812,-0.67968 1.33593,-1.17578 0.26172,-0.49609 0.29297,-1.05469 0.0977,-1.67187 -0.19141,-0.58203 -0.5,-1.01172 -0.94531,-1.28125 -0.4375,-0.26172 -0.99219,-0.33203 -1.66016,-0.20703 -0.39453,0.0742 -1.5,0.40234 -3.30859,0.97265 z m -4.85547,-1.95703 7.6211,-2.40625 c 1.50781,-0.47656 2.65234,-0.77344 3.4375,-0.875 0.77734,-0.11328 1.52343,-0.0586 2.23437,0.15234 0.71484,0.21485 1.36719,0.59375 1.96875,1.12891 0.59766,0.53906 1.03125,1.22266 1.28906,2.05078 0.28125,0.89063 0.30078,1.78516 0.0547,2.67969 -0.24219,0.90234 -0.72266,1.66797 -1.42578,2.30078 1.26562,-0.0312 2.34375,0.26562 3.22266,0.88281 0.88671,0.61719 1.5,1.47266 1.84765,2.57813 0.27344,0.86328 0.33985,1.77343 0.19141,2.71875 -0.14453,0.94531 -0.48438,1.77734 -1.02735,2.48437 -0.54296,0.71485 -1.30859,1.28516 -2.29687,1.71875 -0.62109,0.27344 -2.15234,0.8125 -4.59766,1.60156 l -6.49218,2.05079 z m 0,0"
       id="path82" />
    <path
       style="fill:#35b85e;fill-opacity:1;fill-rule:nonzero;stroke:none"
       d="m 354.27734,521.53125 -8.63672,-18.02734 13.36719,-6.41016 1.46094,3.05859 -9.72656,4.65625 1.91406,3.9961 9.05078,-4.33594 1.45703,3.03906 -9.05078,4.33594 2.35156,4.90625 10.07032,-4.82813 1.45703,3.03907 z m 0,0"
       id="path84" />
    <path
       style="fill:#35b85e;fill-opacity:1;fill-rule:nonzero;stroke:none"
       d="m 368.74219,500.97656 2.48828,-1.65625 c 1.61328,-1.0664 2.57422,-1.80859 2.89062,-2.21094 0.30469,-0.40234 0.46485,-0.84375 0.46875,-1.32812 0.008,-0.48438 -0.15625,-0.98047 -0.48828,-1.47656 -0.37109,-0.5586 -0.82422,-0.91016 -1.35156,-1.0625 -0.52734,-0.14063 -1.09375,-0.0781 -1.69922,0.1914 -0.29687,0.14063 -1.125,0.66797 -2.49219,1.57422 l -2.62109,1.7461 z m 3.02734,11.84375 -11.06641,-16.64844 7.07422,-4.70703 c 1.78125,-1.18359 3.16797,-1.89062 4.17969,-2.1289 1.00391,-0.23828 2,-0.13282 2.99609,0.30859 0.99219,0.44531 1.81641,1.15234 2.46875,2.14063 0.83204,1.25 1.14844,2.52343 0.95704,3.82812 -0.19141,1.30078 -0.94922,2.54297 -2.26954,3.72656 1.00782,-0.0547 1.91797,0.008 2.73047,0.20313 0.8086,0.19531 2.04688,0.67187 3.70703,1.42578 l 4.19532,1.89844 -4.01953,2.67578 -4.83985,-2.00781 c -1.72656,-0.72266 -2.85937,-1.14454 -3.40234,-1.26954 -0.53906,-0.125 -1.03125,-0.13281 -1.46875,-0.0195 -0.44141,0.10938 -1.04688,0.42188 -1.82031,0.9336 l -0.67969,0.45312 4.62109,6.95703 z m 0,0"
       id="path86" />
    <path
       style="fill:#35b85e;fill-opacity:1;fill-rule:nonzero;stroke:none"
       d="m 392.23437,486.35547 3.79297,3.76172 2.63282,-2.64844 c 1.02343,-1.03906 1.64843,-1.71875 1.86328,-2.05078 0.34765,-0.50391 0.5039,-1.03906 0.46875,-1.60938 -0.0352,-0.5625 -0.30469,-1.09765 -0.8086,-1.59765 -0.42578,-0.41797 -0.89062,-0.67188 -1.39453,-0.76172 -0.49609,-0.0937 -1.01172,-0.008 -1.53515,0.25 -0.51954,0.25781 -1.42969,1.03515 -2.72266,2.33984 z m -5.64453,-5.60547 3.28125,3.25781 1.86328,-1.875 c 1.10938,-1.12109 1.78125,-1.82812 2.01954,-2.13281 0.42578,-0.54688 0.63671,-1.10156 0.63671,-1.66016 0,-0.5625 -0.23046,-1.07031 -0.6875,-1.52343 -0.4414,-0.4336 -0.91796,-0.66797 -1.43359,-0.69922 -0.51172,-0.0274 -1.03125,0.16797 -1.56641,0.58984 -0.3125,0.25 -1.14062,1.04688 -2.48046,2.39453 z m -5.20703,0.52344 5.63281,-5.67578 c 1.11329,-1.1211 1.98829,-1.91016 2.63282,-2.3711 0.64062,-0.45703 1.32422,-0.75781 2.05468,-0.90234 0.72657,-0.14063 1.48438,-0.10938 2.26563,0.0859 0.78516,0.20312 1.48047,0.60937 2.09375,1.21875 0.66406,0.65234 1.09766,1.44531 1.30078,2.35156 0.19141,0.91015 0.13281,1.80859 -0.20312,2.69531 1.11328,-0.61719 2.20312,-0.85156 3.26953,-0.71875 1.0664,0.13672 2.01172,0.61719 2.83203,1.42969 0.64453,0.64062 1.125,1.41406 1.43359,2.3164 0.3125,0.91016 0.39453,1.80079 0.24219,2.6836 -0.15234,0.8789 -0.55859,1.74609 -1.23047,2.59375 -0.42578,0.52344 -1.53516,1.71094 -3.33594,3.54687 l -4.79297,4.82813 z m 0,0"
       id="path88" />
    <path
       style="fill:#35b85e;fill-opacity:1;fill-rule:nonzero;stroke:none"
       d="m 404.05469,471.62109 c 1.82812,1.33985 3.51953,1.92578 5.08203,1.77344 1.55859,-0.15234 2.8125,-0.875 3.76562,-2.17187 0.95313,-1.29688 1.26172,-2.70704 0.9375,-4.22266 -0.32422,-1.51953 -1.42187,-2.96875 -3.28906,-4.33203 -1.84766,-1.35547 -3.52344,-1.96094 -5.02734,-1.81641 -1.50391,0.14453 -2.7461,0.88672 -3.73047,2.23438 -0.98438,1.33593 -1.31641,2.7539 -0.9961,4.2539 0.31641,1.4961 1.40625,2.92578 3.25782,4.28125 m -2.34766,3.4336 c -1.64062,-1.20313 -2.83984,-2.46094 -3.59375,-3.76563 -0.55469,-0.96875 -0.92187,-2.01172 -1.11328,-3.125 -0.18359,-1.10937 -0.16016,-2.16406 0.0781,-3.14844 0.3086,-1.3164 0.94922,-2.63281 1.91016,-3.9414 1.74219,-2.37891 3.86719,-3.73438 6.38672,-4.08594 2.51953,-0.34375 5.09375,0.44141 7.71875,2.36719 2.60156,1.91015 4.12109,4.10937 4.55469,6.60156 0.42968,2.49219 -0.21875,4.92188 -1.95313,7.29297 -1.75781,2.39844 -3.89062,3.76953 -6.39062,4.10937 -2.5,0.34766 -5.03125,-0.42578 -7.59766,-2.30468"
       id="path90" />
    <path
       style="fill:#35b85e;fill-opacity:1;fill-rule:nonzero;stroke:none"
       d="m 421.05469,448.72656 -7.84766,-1 5.32031,5.83594 z m 10.45312,-2.91015 -2.03906,3.89062 -4.82813,-0.5625 -3.70703,7.07813 3.25782,3.57031 -1.98829,3.78906 -14.09375,-16.16797 1.97657,-3.78515 z m 0,0"
       id="path92" />
    <path
       style="fill:#35b85e;fill-opacity:1;fill-rule:nonzero;stroke:none"
       d="m 423.05859,435.29297 0.99219,-2.82031 c 0.63672,-1.82813 0.95313,-2.99219 0.96094,-3.50391 0.004,-0.50781 -0.13672,-0.96094 -0.42188,-1.34375 -0.28906,-0.39063 -0.71484,-0.68359 -1.28515,-0.88281 -0.63282,-0.22266 -1.20313,-0.23438 -1.71485,-0.0274 -0.50781,0.20313 -0.92187,0.58985 -1.23828,1.17578 -0.15234,0.29297 -0.5,1.20704 -1.03515,2.75391 l -1.03907,2.97656 z m 9.5625,7.61719 -18.86718,-6.59766 2.80078,-8.01953 c 0.70312,-2.01563 1.38672,-3.42188 2.04297,-4.21485 0.66015,-0.79296 1.51953,-1.3164 2.57421,-1.5625 1.0625,-0.25 2.14844,-0.17578 3.26172,0.21485 1.41407,0.49609 2.44141,1.3164 3.07032,2.47265 0.6289,1.15625 0.78125,2.60547 0.4414,4.34766 0.76563,-0.66016 1.53516,-1.15234 2.29688,-1.48828 0.75781,-0.33594 2.03515,-0.70313 3.82031,-1.09766 l 4.48437,-1.01953 -1.58984,4.5586 -5.07031,1.32031 c -1.8086,0.46094 -2.96875,0.80859 -3.47656,1.03515 -0.50782,0.22657 -0.89844,0.51563 -1.1836,0.86719 -0.28125,0.35938 -0.57422,0.97266 -0.88281,1.84766 l -0.27344,0.77344 7.87891,2.75 z m 0,0"
       id="path94" />
    <path
       style="fill:#35b85e;fill-opacity:1;fill-rule:nonzero;stroke:none"
       d="m 423.65234,415.89844 13.00391,2.51562 0.57031,-2.96094 c 0.21094,-1.10937 0.30469,-1.91796 0.27735,-2.42968 -0.0352,-0.67578 -0.20704,-1.26172 -0.50782,-1.76172 -0.30468,-0.4961 -0.86718,-0.96485 -1.69531,-1.40235 -0.82812,-0.4375 -2,-0.80078 -3.51562,-1.09765 -1.51954,-0.29297 -2.70704,-0.38281 -3.57032,-0.27344 -0.86718,0.10938 -1.57422,0.35938 -2.125,0.75781 -0.54687,0.39453 -0.96875,0.94532 -1.27343,1.65625 C 424.58203,411.43359 424.30859,412.5 424,414.125 Z m -4.08593,3.32422 1.40234,-7.2461 c 0.31641,-1.6289 0.67969,-2.85156 1.09375,-3.66406 0.5625,-1.08594 1.35547,-1.95313 2.37891,-2.60547 1.02734,-0.65625 2.20703,-1.07812 3.54296,-1.25781 1.33985,-0.1875 2.92579,-0.10547 4.76563,0.25 1.61719,0.3125 2.96875,0.78125 4.05859,1.41015 1.33203,0.76954 2.35938,1.6875 3.0625,2.76954 0.53907,0.82031 0.88282,1.84765 1.03125,3.08984 0.10547,0.92578 0.0156,2.125 -0.26562,3.58594 l -1.44141,7.46093 z m 0,0"
       id="path96" />
  </g>
</svg>
