<?xml version="1.0" encoding="UTF-8" standalone="no"?>
<svg
   xmlns:dc="http://purl.org/dc/elements/1.1/"
   xmlns:cc="http://creativecommons.org/ns#"
   xmlns:rdf="http://www.w3.org/1999/02/22-rdf-syntax-ns#"
   xmlns:svg="http://www.w3.org/2000/svg"
   xmlns="http://www.w3.org/2000/svg"
   xmlns:sodipodi="http://sodipodi.sourceforge.net/DTD/sodipodi-0.dtd"
   xmlns:inkscape="http://www.inkscape.org/namespaces/inkscape"
   version="1.1"
   x="0px"
   y="0px"
   viewBox="0 0 300 300"
   xml:space="preserve"
   id="svg66"
   sodipodi:docname="petronas.svg"
   width="300"
   height="300"
   inkscape:version="1.0.1 (3bc2e81, 2020-09-07)"><sodipodi:namedview
   pagecolor="#ffffff"
   bordercolor="#666666"
   borderopacity="1"
   objecttolerance="10"
   gridtolerance="10"
   guidetolerance="10"
   inkscape:pageopacity="0"
   inkscape:pageshadow="2"
   inkscape:window-width="1366"
   inkscape:window-height="703"
   id="namedview5466"
   showgrid="false"
   fit-margin-top="0"
   fit-margin-left="0"
   fit-margin-right="0"
   fit-margin-bottom="0"
   inkscape:zoom="1.0423335"
   inkscape:cx="100.67566"
   inkscape:cy="195.09324"
   inkscape:window-x="0"
   inkscape:window-y="0"
   inkscape:window-maximized="1"
   inkscape:current-layer="Layer_2"
   inkscape:document-rotation="0" /><metadata
   id="metadata72"><rdf:RDF><cc:Work
       rdf:about=""><dc:format>image/svg+xml</dc:format><dc:type
         rdf:resource="http://purl.org/dc/dcmitype/StillImage" /><dc:title></dc:title></cc:Work></rdf:RDF></metadata><defs
   id="defs70" />
<style
   type="text/css"
   id="style2">
	.st0{fill:#0C0407;}
	.st1{fill:#00A99D;}
	.st2{fill:#414042;}
</style>

<g
   id="Layer_2"
   transform="translate(-23.1,-15.1)">
	<g
   id="g63"
   transform="matrix(0.64336264,0,0,0.64336264,266.96825,103.84252)">
		
		
		
		
		
		
		
		
		
		
	<path
   class="st1"
   d="m -92.231223,172.06455 c 0,47.9 -38.899997,86.8 -86.799997,86.8 -47.9,0 -86.8,-38.9 -86.8,-86.8 0,-47.9 38.9,-86.799997 86.8,-86.799997 47.9,0 86.799997,38.799997 86.799997,86.799997"
   id="path1657" /><path
   class="st1"
   d="m -67.431223,52.464553 109.9,-190.400003 H -127.23122 c -47.3,1.3 -59.7,10.6 -77.7,41.700003 0,0 -109.1,189 -109.1,189.1 -13.5,23.199997 -21.5,50.299997 -21.5,79.099997 0,56.9 30.4,106.8 75.9,134.1 23.5,14.1 51.1,22.3 80.5,22.3 86.399997,0 156.399997,-70 156.399997,-156.4 0,-29.6 -8.2,-57.3 -22.5,-80.899997 z m -58.899997,-150.4 h 99.499997 l -63.7,110.4 -21.699997,-37.6 v 0 l -40.4,-70 c 5.8,-2 13.7,-2.8 26.3,-2.8 m -52.7,386.599997 c -28.6,0 -54.8,-10.3 -75.1,-27.4 v 0 c -25.4,-21.4 -41.5,-53.4 -41.5,-89.2 0,-21.6 5.8,-41.7 16,-59.1 0,0 100.2,-173.499997 100.5,-174.199997 l 39.1,67.6 v 0 0.1 l 61.399997,106.399997 c 0,0 0,0.1 0,0.1 10.2,17.3 16,37.5 16,59.1 0.1,64.4 -52.099997,116.6 -116.399997,116.6"
   id="path1659" /></g>
</g>
</svg>
