<?xml version="1.0" encoding="UTF-8" standalone="no"?>
<svg
   xmlns:dc="http://purl.org/dc/elements/1.1/"
   xmlns:cc="http://creativecommons.org/ns#"
   xmlns:rdf="http://www.w3.org/1999/02/22-rdf-syntax-ns#"
   xmlns:svg="http://www.w3.org/2000/svg"
   xmlns="http://www.w3.org/2000/svg"
   version="1.1"
   id="Layer_1"
   x="0px"
   y="0px"
   viewBox="0 0 300 300"
   xml:space="preserve"
   width="300"
   height="300"><metadata
   id="metadata26"><rdf:RDF><cc:Work
       rdf:about=""><dc:format>image/svg+xml</dc:format><dc:type
         rdf:resource="http://purl.org/dc/dcmitype/StillImage" /><dc:title></dc:title></cc:Work></rdf:RDF></metadata><defs
   id="defs24" />
<style
   type="text/css"
   id="style2">
	.st0{fill:#E44126;}
	.st1{fill:#0061B3;}
</style>
<g
   id="XMLID_1_"
   transform="translate(-67.499997,-82.8)">
	
	
	
	
	
	
	
	
	
	
	
	
	
	
	
	
<g
   id="g934"
   transform="matrix(2.3006135,0,0,2.3006135,-354.39187,-342.35338)"><path
     id="path927"
     class="st0"
     d="m 211.40633,184.8 c -2.3,0 -20.2,0.6 -20.2,20.1 v 36.6 c 0,0 0,16.2 14.4,18.3 h 4.7 c 0,0 6.1,1.1 6.1,6.5 0,0 -0.7,15.4 12.9,17.2 1.1,0.1 2.1,0.2 3.1,0.2 11,0 13.5,-8.8 13.5,-8.8 l 23.7,-40.6 c 0,0 3.6,-7.5 -4,-7.5 h -10.8 c 0,0 -0.1,0 -0.1,0 -1.1,0 -7.8,-0.3 -4.5,-7.9 l 9,-19 -29.5,29.8 c 0,0 -7.2,9.3 1.4,9.3 h 13.6 c 0,0 0.3,0 0.7,0 1.9,0 6.5,0.5 3.6,5.4 l -12.6,22.3 c 0,0 -2.6,4 -5,4 -0.9,0 -1.8,-0.6 -2.5,-2.2 v -8.6 c 0,0 -1.8,-12.2 -11.5,-12.2 h -7.5 c 0,0 -0.3,0.1 -0.7,0.1 -1.5,0 -5,-0.7 -5,-6.5 v -37.7 c 0,0 -0.4,-6.5 5.4,-6.5 h 78.3 c 0,0 0,0 0.1,0 0.8,0 6,0.3 6,7.9 v 36.3 c 0,0 1.1,6.8 -5,6.8 h -7.5 c 0,0 -12.9,0.7 -12.9,13.3 v 19 c 0,0 -0.4,6.5 -5,6.5 h -38.4 c 0,0 -0.3,0 -0.8,0 -2.1,0 -7.8,0.5 -7.8,5.4 0,0 1.1,6.5 7.9,6.5 h 39.2 c 0,0 17.6,0 17.6,-17.2 v -12.9 c 0,0 -0.7,-7.5 5.7,-7.5 0,0 19.8,-0.4 19.8,-19 v -40.6 c 0,0 -1.8,-16.5 -16.5,-16.5 h -78.6 c 0,-0.3 -0.1,-0.3 -0.3,-0.3" /><path
     id="path929"
     class="st0"
     d="m 262.50633,302.6 h -26.6 c -3.3,0 -5.9,2.8 -5.9,6.3 0,3.5 2.6,6.3 5.9,6.3 h 26.6 c 3.3,0 5.9,-2.8 5.9,-6.3 0,-3.4 -2.6,-6.3 -5.9,-6.3" /></g></g>
</svg>
